<svg width="902" height="255" viewBox="0 0 902 255" fill="none" xmlns="http://www.w3.org/2000/svg">
<path d="M771 67C798.455 67 798.455 67 804.438 72.0625C807.375 77.5841 807.633 82.8564 805.875 88.8125C804 92 804 92 799 97C802.96 102.94 806.92 108.88 811 115C812.78 110.093 814.558 105.186 816.334 100.278C816.937 98.6141 817.54 96.95 818.144 95.2861C821.552 85.8941 824.896 76.4974 828 67C832.95 67 837.9 67 843 67C846.221 75.7527 849.436 84.5078 852.636 93.2681C853.459 95.5208 854.284 97.7732 855.11 100.025C855.976 102.389 856.834 104.756 857.688 107.125C857.931 107.785 858.174 108.445 858.424 109.125C859.574 112.346 860 114.507 860 118C856.04 118 852.08 118 848 118C845 110.5 845 110.5 845 106C839.06 106 833.12 106 827 106C826.01 109.96 825.02 113.92 824 118C802.498 120.529 802.498 120.529 796.736 116.364C792.825 111.959 788 105.121 788 99C786.35 99 784.7 99 783 99C783 105.27 783 111.54 783 118C779.04 118 775.08 118 771 118C771 101.17 771 84.34 771 67ZM783 77C783 80.96 783 84.92 783 89C788.933 89.471 788.933 89.471 794 87C794.819 83.4379 794.819 83.4379 795 80C793.096 78.096 791.666 77.0648 788.953 76.8008C786.968 76.8113 784.983 76.9008 783 77ZM835 78C833.35 83.94 831.7 89.88 830 96C833.63 96 837.26 96 841 96C839.854 89.6552 838.431 83.9681 836 78C835.67 78 835.34 78 835 78Z" fill="black"/>
<path d="M74.4238 186.612C75.3149 186.602 76.2059 186.593 77.1239 186.583C78.0833 186.589 79.0428 186.595 80.0312 186.602C81.0187 186.599 82.0062 186.596 83.0236 186.593C85.1116 186.591 87.1996 186.596 89.2876 186.609C92.4877 186.625 95.6866 186.609 98.8867 186.59C100.914 186.592 102.941 186.596 104.969 186.602C106.408 186.592 106.408 186.592 107.876 186.583C109.213 186.597 109.213 186.597 110.576 186.612C111.752 186.615 111.752 186.615 112.951 186.619C115.583 187.108 116.454 187.829 118 190C118.381 192.049 118.381 192.049 118.388 194.424C118.398 195.315 118.407 196.206 118.417 197.124C118.411 198.083 118.405 199.043 118.398 200.031C118.401 201.019 118.404 202.006 118.407 203.024C118.409 205.112 118.404 207.2 118.391 209.288C118.375 212.488 118.391 215.687 118.41 218.887C118.408 220.914 118.404 222.941 118.398 224.969C118.405 225.928 118.411 226.888 118.417 227.876C118.407 228.767 118.398 229.658 118.388 230.576C118.386 231.36 118.383 232.144 118.381 232.951C117.892 235.583 117.171 236.454 115 238C112.951 238.381 112.951 238.381 110.576 238.388C109.685 238.398 108.794 238.407 107.876 238.417C106.917 238.411 105.957 238.405 104.969 238.398C103.981 238.401 102.994 238.404 101.976 238.407C99.8884 238.409 97.8004 238.404 95.7124 238.391C92.5123 238.375 89.3134 238.391 86.1133 238.41C84.0859 238.408 82.0586 238.404 80.0312 238.398C78.5921 238.408 78.5921 238.408 77.1239 238.417C76.2329 238.407 75.3419 238.398 74.4238 238.388C73.6401 238.386 72.8564 238.383 72.049 238.381C69.4168 237.892 68.546 237.171 67 235C66.619 232.951 66.619 232.951 66.6118 230.576C66.6024 229.685 66.5929 228.794 66.5832 227.876C66.5923 226.437 66.5923 226.437 66.6016 224.969C66.5987 223.981 66.5958 222.994 66.5929 221.976C66.5908 219.888 66.5964 217.8 66.6089 215.712C66.6249 212.512 66.609 209.313 66.5898 206.113C66.5918 204.086 66.5957 202.059 66.6016 200.031C66.5955 199.072 66.5894 198.112 66.5832 197.124C66.5926 196.233 66.6021 195.342 66.6118 194.424C66.6142 193.64 66.6166 192.856 66.619 192.049C67.4587 187.533 70.1816 186.625 74.4238 186.612Z" fill="#32A041"/>
<path d="M14.4238 186.612C15.3149 186.602 16.2059 186.593 17.1239 186.583C18.0833 186.589 19.0428 186.595 20.0312 186.602C21.0187 186.599 22.0062 186.596 23.0236 186.593C25.1116 186.591 27.1996 186.596 29.2876 186.609C32.4877 186.625 35.6866 186.609 38.8867 186.59C40.9141 186.592 42.9414 186.596 44.9688 186.602C46.4079 186.592 46.4079 186.592 47.8761 186.583C49.2126 186.597 49.2126 186.597 50.5762 186.612C51.7517 186.615 51.7517 186.615 52.951 186.619C55.5832 187.108 56.454 187.829 58 190C58.381 192.049 58.381 192.049 58.3882 194.424C58.3976 195.315 58.4071 196.206 58.4168 197.124C58.4108 198.083 58.4047 199.043 58.3984 200.031C58.4013 201.019 58.4042 202.006 58.4071 203.024C58.4092 205.112 58.4036 207.2 58.3911 209.288C58.3751 212.488 58.391 215.687 58.4102 218.887C58.4082 220.914 58.4043 222.941 58.3984 224.969C58.4045 225.928 58.4106 226.888 58.4168 227.876C58.4074 228.767 58.3979 229.658 58.3882 230.576C58.3858 231.36 58.3834 232.144 58.381 232.951C57.8916 235.583 57.171 236.454 55 238C52.951 238.381 52.951 238.381 50.5762 238.388C49.6851 238.398 48.7941 238.407 47.8761 238.417C46.9167 238.411 45.9572 238.405 44.9688 238.398C43.9813 238.401 42.9938 238.404 41.9764 238.407C39.8884 238.409 37.8004 238.404 35.7124 238.391C32.5123 238.375 29.3134 238.391 26.1133 238.41C24.0859 238.408 22.0586 238.404 20.0312 238.398C18.5921 238.408 18.5921 238.408 17.1239 238.417C16.2329 238.407 15.3419 238.398 14.4238 238.388C13.6401 238.386 12.8564 238.383 12.049 238.381C9.41676 237.892 8.54599 237.171 7 235C6.61905 232.951 6.61905 232.951 6.61182 230.576C6.60236 229.685 6.5929 228.794 6.58316 227.876C6.59227 226.437 6.59227 226.437 6.60156 224.969C6.59869 223.981 6.59582 222.994 6.59286 221.976C6.59082 219.888 6.59636 217.8 6.60889 215.712C6.62494 212.512 6.60904 209.313 6.58984 206.113C6.59183 204.086 6.59567 202.059 6.60156 200.031C6.59549 199.072 6.58942 198.112 6.58316 197.124C6.59262 196.233 6.60207 195.342 6.61182 194.424C6.6142 193.64 6.61659 192.856 6.61905 192.049C7.45874 187.533 10.1816 186.625 14.4238 186.612Z" fill="#32A041"/>
<path d="M134.424 126.612C135.315 126.602 136.206 126.593 137.124 126.583C138.083 126.589 139.043 126.595 140.031 126.602C141.019 126.599 142.006 126.596 143.024 126.593C145.112 126.591 147.2 126.596 149.288 126.609C152.488 126.625 155.687 126.609 158.887 126.59C160.914 126.592 162.941 126.596 164.969 126.602C166.408 126.592 166.408 126.592 167.876 126.583C169.213 126.597 169.213 126.597 170.576 126.612C171.752 126.615 171.752 126.615 172.951 126.619C175.583 127.108 176.454 127.829 178 130C178.381 132.049 178.381 132.049 178.388 134.424C178.398 135.315 178.407 136.206 178.417 137.124C178.411 138.083 178.405 139.043 178.398 140.031C178.401 141.019 178.404 142.006 178.407 143.024C178.409 145.112 178.404 147.2 178.391 149.288C178.375 152.488 178.391 155.687 178.41 158.887C178.408 160.914 178.404 162.941 178.398 164.969C178.405 165.928 178.411 166.888 178.417 167.876C178.407 168.767 178.398 169.658 178.388 170.576C178.386 171.36 178.383 172.144 178.381 172.951C177.892 175.583 177.171 176.454 175 178C172.951 178.381 172.951 178.381 170.576 178.388C169.685 178.398 168.794 178.407 167.876 178.417C166.917 178.411 165.957 178.405 164.969 178.398C163.981 178.401 162.994 178.404 161.976 178.407C159.888 178.409 157.8 178.404 155.712 178.391C152.512 178.375 149.313 178.391 146.113 178.41C144.086 178.408 142.059 178.404 140.031 178.398C138.592 178.408 138.592 178.408 137.124 178.417C136.233 178.407 135.342 178.398 134.424 178.388C133.64 178.386 132.856 178.383 132.049 178.381C129.417 177.892 128.546 177.171 127 175C126.619 172.951 126.619 172.951 126.612 170.576C126.602 169.685 126.593 168.794 126.583 167.876C126.592 166.437 126.592 166.437 126.602 164.969C126.599 163.981 126.596 162.994 126.593 161.976C126.591 159.888 126.596 157.8 126.609 155.712C126.625 152.512 126.609 149.313 126.59 146.113C126.592 144.086 126.596 142.059 126.602 140.031C126.595 139.072 126.589 138.112 126.583 137.124C126.593 136.233 126.602 135.342 126.612 134.424C126.614 133.64 126.617 132.856 126.619 132.049C127.459 127.533 130.182 126.625 134.424 126.612Z" fill="#32A041"/>
<path d="M74.4238 126.612C75.3149 126.602 76.2059 126.593 77.1239 126.583C78.0833 126.589 79.0428 126.595 80.0312 126.602C81.0187 126.599 82.0062 126.596 83.0236 126.593C85.1116 126.591 87.1996 126.596 89.2876 126.609C92.4877 126.625 95.6866 126.609 98.8867 126.59C100.914 126.592 102.941 126.596 104.969 126.602C106.408 126.592 106.408 126.592 107.876 126.583C109.213 126.597 109.213 126.597 110.576 126.612C111.752 126.615 111.752 126.615 112.951 126.619C115.583 127.108 116.454 127.829 118 130C118.381 132.049 118.381 132.049 118.388 134.424C118.398 135.315 118.407 136.206 118.417 137.124C118.411 138.083 118.405 139.043 118.398 140.031C118.401 141.019 118.404 142.006 118.407 143.024C118.409 145.112 118.404 147.2 118.391 149.288C118.375 152.488 118.391 155.687 118.41 158.887C118.408 160.914 118.404 162.941 118.398 164.969C118.405 165.928 118.411 166.888 118.417 167.876C118.407 168.767 118.398 169.658 118.388 170.576C118.386 171.36 118.383 172.144 118.381 172.951C117.892 175.583 117.171 176.454 115 178C112.951 178.381 112.951 178.381 110.576 178.388C109.685 178.398 108.794 178.407 107.876 178.417C106.917 178.411 105.957 178.405 104.969 178.398C103.981 178.401 102.994 178.404 101.976 178.407C99.8884 178.409 97.8004 178.404 95.7124 178.391C92.5123 178.375 89.3134 178.391 86.1133 178.41C84.0859 178.408 82.0586 178.404 80.0312 178.398C78.5921 178.408 78.5921 178.408 77.1239 178.417C76.2329 178.407 75.3419 178.398 74.4238 178.388C73.6401 178.386 72.8564 178.383 72.049 178.381C69.4168 177.892 68.546 177.171 67 175C66.619 172.951 66.619 172.951 66.6118 170.576C66.6024 169.685 66.5929 168.794 66.5832 167.876C66.5923 166.437 66.5923 166.437 66.6016 164.969C66.5987 163.981 66.5958 162.994 66.5929 161.976C66.5908 159.888 66.5964 157.8 66.6089 155.712C66.6249 152.512 66.609 149.313 66.5898 146.113C66.5918 144.086 66.5957 142.059 66.6016 140.031C66.5955 139.072 66.5894 138.112 66.5832 137.124C66.5926 136.233 66.6021 135.342 66.6118 134.424C66.6142 133.64 66.6166 132.856 66.619 132.049C67.4587 127.533 70.1816 126.625 74.4238 126.612Z" fill="#32A041"/>
<path d="M14.4238 126.612C15.3149 126.602 16.2059 126.593 17.1239 126.583C18.0833 126.589 19.0428 126.595 20.0312 126.602C21.0187 126.599 22.0062 126.596 23.0236 126.593C25.1116 126.591 27.1996 126.596 29.2876 126.609C32.4877 126.625 35.6866 126.609 38.8867 126.59C40.9141 126.592 42.9414 126.596 44.9688 126.602C46.4079 126.592 46.4079 126.592 47.8761 126.583C49.2126 126.597 49.2126 126.597 50.5762 126.612C51.7517 126.615 51.7517 126.615 52.951 126.619C55.5832 127.108 56.454 127.829 58 130C58.381 132.049 58.381 132.049 58.3882 134.424C58.3976 135.315 58.4071 136.206 58.4168 137.124C58.4108 138.083 58.4047 139.043 58.3984 140.031C58.4013 141.019 58.4042 142.006 58.4071 143.024C58.4092 145.112 58.4036 147.2 58.3911 149.288C58.3751 152.488 58.391 155.687 58.4102 158.887C58.4082 160.914 58.4043 162.941 58.3984 164.969C58.4045 165.928 58.4106 166.888 58.4168 167.876C58.4074 168.767 58.3979 169.658 58.3882 170.576C58.3858 171.36 58.3834 172.144 58.381 172.951C57.8916 175.583 57.171 176.454 55 178C52.951 178.381 52.951 178.381 50.5762 178.388C49.6851 178.398 48.7941 178.407 47.8761 178.417C46.9167 178.411 45.9572 178.405 44.9688 178.398C43.9813 178.401 42.9938 178.404 41.9764 178.407C39.8884 178.409 37.8004 178.404 35.7124 178.391C32.5123 178.375 29.3134 178.391 26.1133 178.41C24.0859 178.408 22.0586 178.404 20.0312 178.398C18.5921 178.408 18.5921 178.408 17.1239 178.417C16.2329 178.407 15.3419 178.398 14.4238 178.388C13.6401 178.386 12.8564 178.383 12.049 178.381C9.41676 177.892 8.54599 177.171 7 175C6.61905 172.951 6.61905 172.951 6.61182 170.576C6.60236 169.685 6.5929 168.794 6.58316 167.876C6.59227 166.437 6.59227 166.437 6.60156 164.969C6.59869 163.981 6.59582 162.994 6.59286 161.976C6.59082 159.888 6.59636 157.8 6.60889 155.712C6.62494 152.512 6.60904 149.313 6.58984 146.113C6.59183 144.086 6.59567 142.059 6.60156 140.031C6.59549 139.072 6.58942 138.112 6.58316 137.124C6.59262 136.233 6.60207 135.342 6.61182 134.424C6.6142 133.64 6.61659 132.856 6.61905 132.049C7.45874 127.533 10.1816 126.625 14.4238 126.612Z" fill="#32A041"/>
<path d="M74.4238 66.6118C75.3149 66.6024 76.2059 66.5929 77.1239 66.5832C78.0833 66.5892 79.0428 66.5953 80.0312 66.6016C81.0187 66.5987 82.0062 66.5958 83.0236 66.5929C85.1116 66.5908 87.1996 66.5964 89.2876 66.6089C92.4877 66.6249 95.6866 66.609 98.8867 66.5898C100.914 66.5918 102.941 66.5957 104.969 66.6016C106.408 66.5925 106.408 66.5925 107.876 66.5832C109.213 66.5973 109.213 66.5973 110.576 66.6118C111.752 66.6154 111.752 66.6154 112.951 66.619C115.583 67.1084 116.454 67.829 118 70C118.381 72.049 118.381 72.049 118.388 74.4238C118.398 75.3149 118.407 76.2059 118.417 77.1239C118.411 78.0833 118.405 79.0428 118.398 80.0312C118.401 81.0187 118.404 82.0062 118.407 83.0236C118.409 85.1116 118.404 87.1996 118.391 89.2876C118.375 92.4877 118.391 95.6866 118.41 98.8867C118.408 100.914 118.404 102.941 118.398 104.969C118.405 105.928 118.411 106.888 118.417 107.876C118.407 108.767 118.398 109.658 118.388 110.576C118.386 111.36 118.383 112.144 118.381 112.951C117.892 115.583 117.171 116.454 115 118C112.951 118.381 112.951 118.381 110.576 118.388C109.685 118.398 108.794 118.407 107.876 118.417C106.917 118.411 105.957 118.405 104.969 118.398C103.981 118.401 102.994 118.404 101.976 118.407C99.8884 118.409 97.8004 118.404 95.7124 118.391C92.5123 118.375 89.3134 118.391 86.1133 118.41C84.0859 118.408 82.0586 118.404 80.0312 118.398C78.5921 118.408 78.5921 118.408 77.1239 118.417C76.2329 118.407 75.3419 118.398 74.4238 118.388C73.6401 118.386 72.8564 118.383 72.049 118.381C69.4168 117.892 68.546 117.171 67 115C66.619 112.951 66.619 112.951 66.6118 110.576C66.6024 109.685 66.5929 108.794 66.5832 107.876C66.5923 106.437 66.5923 106.437 66.6016 104.969C66.5987 103.981 66.5958 102.994 66.5929 101.976C66.5908 99.8884 66.5964 97.8004 66.6089 95.7124C66.6249 92.5123 66.609 89.3134 66.5898 86.1133C66.5918 84.0859 66.5957 82.0586 66.6016 80.0312C66.5955 79.0718 66.5894 78.1124 66.5832 77.1239C66.5926 76.2329 66.6021 75.3419 66.6118 74.4238C66.6142 73.6401 66.6166 72.8564 66.619 72.049C67.4587 67.5326 70.1816 66.6247 74.4238 66.6118Z" fill="#32A041"/>
<path d="M14.4238 66.6118C15.3149 66.6024 16.2059 66.5929 17.1239 66.5832C18.0833 66.5892 19.0428 66.5953 20.0312 66.6016C21.0187 66.5987 22.0062 66.5958 23.0236 66.5929C25.1116 66.5908 27.1996 66.5964 29.2876 66.6089C32.4877 66.6249 35.6866 66.609 38.8867 66.5898C40.9141 66.5918 42.9414 66.5957 44.9688 66.6016C46.4079 66.5925 46.4079 66.5925 47.8761 66.5832C49.2126 66.5973 49.2126 66.5973 50.5762 66.6118C51.7517 66.6154 51.7517 66.6154 52.951 66.619C55.5832 67.1084 56.454 67.829 58 70C58.381 72.049 58.381 72.049 58.3882 74.4238C58.3976 75.3149 58.4071 76.2059 58.4168 77.1239C58.4108 78.0833 58.4047 79.0428 58.3984 80.0312C58.4013 81.0187 58.4042 82.0062 58.4071 83.0236C58.4092 85.1116 58.4036 87.1996 58.3911 89.2876C58.3751 92.4877 58.391 95.6866 58.4102 98.8867C58.4082 100.914 58.4043 102.941 58.3984 104.969C58.4045 105.928 58.4106 106.888 58.4168 107.876C58.4074 108.767 58.3979 109.658 58.3882 110.576C58.3858 111.36 58.3834 112.144 58.381 112.951C57.8916 115.583 57.171 116.454 55 118C52.951 118.381 52.951 118.381 50.5762 118.388C49.6851 118.398 48.7941 118.407 47.8761 118.417C46.9167 118.411 45.9572 118.405 44.9688 118.398C43.9813 118.401 42.9938 118.404 41.9764 118.407C39.8884 118.409 37.8004 118.404 35.7124 118.391C32.5123 118.375 29.3134 118.391 26.1133 118.41C24.0859 118.408 22.0586 118.404 20.0312 118.398C18.5921 118.408 18.5921 118.408 17.1239 118.417C16.2329 118.407 15.3419 118.398 14.4238 118.388C13.6401 118.386 12.8564 118.383 12.049 118.381C9.41676 117.892 8.54599 117.171 7 115C6.61905 112.951 6.61905 112.951 6.61182 110.576C6.60236 109.685 6.5929 108.794 6.58316 107.876C6.59227 106.437 6.59227 106.437 6.60156 104.969C6.59869 103.981 6.59582 102.994 6.59286 101.976C6.59082 99.8884 6.59636 97.8004 6.60889 95.7124C6.62494 92.5123 6.60904 89.3134 6.58984 86.1133C6.59183 84.0859 6.59567 82.0586 6.60156 80.0312C6.59549 79.0718 6.58942 78.1124 6.58316 77.1239C6.59262 76.2329 6.60207 75.3419 6.61182 74.4238C6.6142 73.6401 6.61659 72.8564 6.61905 72.049C7.45874 67.5326 10.1816 66.6247 14.4238 66.6118Z" fill="#32A041"/>
<path d="M134.424 6.61182C135.315 6.60236 136.206 6.5929 137.124 6.58316C138.083 6.58923 139.043 6.59531 140.031 6.60156C141.019 6.59869 142.006 6.59582 143.024 6.59286C145.112 6.59082 147.2 6.59636 149.288 6.60889C152.488 6.62494 155.687 6.60904 158.887 6.58984C160.914 6.59183 162.941 6.59567 164.969 6.60156C166.408 6.59245 166.408 6.59245 167.876 6.58316C169.213 6.59735 169.213 6.59735 170.576 6.61182C171.752 6.6154 171.752 6.6154 172.951 6.61905C175.583 7.10844 176.454 7.829 178 10C178.381 12.049 178.381 12.049 178.388 14.4238C178.398 15.3149 178.407 16.2059 178.417 17.1239C178.411 18.0833 178.405 19.0428 178.398 20.0312C178.401 21.0187 178.404 22.0062 178.407 23.0236C178.409 25.1116 178.404 27.1996 178.391 29.2876C178.375 32.4877 178.391 35.6866 178.41 38.8867C178.408 40.9141 178.404 42.9414 178.398 44.9688C178.405 45.9282 178.411 46.8876 178.417 47.8761C178.407 48.7671 178.398 49.6581 178.388 50.5762C178.386 51.3599 178.383 52.1436 178.381 52.951C177.892 55.5832 177.171 56.454 175 58C172.951 58.381 172.951 58.381 170.576 58.3882C169.685 58.3976 168.794 58.4071 167.876 58.4168C166.917 58.4108 165.957 58.4047 164.969 58.3984C163.981 58.4013 162.994 58.4042 161.976 58.4071C159.888 58.4092 157.8 58.4036 155.712 58.3911C152.512 58.3751 149.313 58.391 146.113 58.4102C144.086 58.4082 142.059 58.4043 140.031 58.3984C138.592 58.4075 138.592 58.4075 137.124 58.4168C136.233 58.4074 135.342 58.3979 134.424 58.3882C133.64 58.3858 132.856 58.3834 132.049 58.381C129.417 57.8916 128.546 57.171 127 55C126.619 52.951 126.619 52.951 126.612 50.5762C126.602 49.6851 126.593 48.7941 126.583 47.8761C126.592 46.437 126.592 46.437 126.602 44.9688C126.599 43.9813 126.596 42.9938 126.593 41.9764C126.591 39.8884 126.596 37.8004 126.609 35.7124C126.625 32.5123 126.609 29.3134 126.59 26.1133C126.592 24.0859 126.596 22.0586 126.602 20.0312C126.595 19.0718 126.589 18.1124 126.583 17.1239C126.593 16.2329 126.602 15.3419 126.612 14.4238C126.614 13.6401 126.617 12.8564 126.619 12.049C127.459 7.53265 130.182 6.62474 134.424 6.61182Z" fill="#32A041"/>
<path d="M74.4238 6.61182C75.3149 6.60236 76.2059 6.5929 77.1239 6.58316C78.0833 6.58923 79.0428 6.59531 80.0312 6.60156C81.0187 6.59869 82.0062 6.59582 83.0236 6.59286C85.1116 6.59082 87.1996 6.59636 89.2876 6.60889C92.4877 6.62494 95.6866 6.60904 98.8867 6.58984C100.914 6.59183 102.941 6.59567 104.969 6.60156C106.408 6.59245 106.408 6.59245 107.876 6.58316C109.213 6.59735 109.213 6.59735 110.576 6.61182C111.752 6.6154 111.752 6.6154 112.951 6.61905C115.583 7.10844 116.454 7.829 118 10C118.381 12.049 118.381 12.049 118.388 14.4238C118.398 15.3149 118.407 16.2059 118.417 17.1239C118.411 18.0833 118.405 19.0428 118.398 20.0312C118.401 21.0187 118.404 22.0062 118.407 23.0236C118.409 25.1116 118.404 27.1996 118.391 29.2876C118.375 32.4877 118.391 35.6866 118.41 38.8867C118.408 40.9141 118.404 42.9414 118.398 44.9688C118.405 45.9282 118.411 46.8876 118.417 47.8761C118.407 48.7671 118.398 49.6581 118.388 50.5762C118.386 51.3599 118.383 52.1436 118.381 52.951C117.892 55.5832 117.171 56.454 115 58C112.951 58.381 112.951 58.381 110.576 58.3882C109.685 58.3976 108.794 58.4071 107.876 58.4168C106.917 58.4108 105.957 58.4047 104.969 58.3984C103.981 58.4013 102.994 58.4042 101.976 58.4071C99.8884 58.4092 97.8004 58.4036 95.7124 58.3911C92.5123 58.3751 89.3134 58.391 86.1133 58.4102C84.0859 58.4082 82.0586 58.4043 80.0312 58.3984C78.5921 58.4075 78.5921 58.4075 77.1239 58.4168C76.2329 58.4074 75.3419 58.3979 74.4238 58.3882C73.6401 58.3858 72.8564 58.3834 72.049 58.381C69.4168 57.8916 68.546 57.171 67 55C66.619 52.951 66.619 52.951 66.6118 50.5762C66.6024 49.6851 66.5929 48.7941 66.5832 47.8761C66.5923 46.437 66.5923 46.437 66.6016 44.9688C66.5987 43.9813 66.5958 42.9938 66.5929 41.9764C66.5908 39.8884 66.5964 37.8004 66.6089 35.7124C66.6249 32.5123 66.609 29.3134 66.5898 26.1133C66.5918 24.0859 66.5957 22.0586 66.6016 20.0312C66.5955 19.0718 66.5894 18.1124 66.5832 17.1239C66.5926 16.2329 66.6021 15.3419 66.6118 14.4238C66.6142 13.6401 66.6166 12.8564 66.619 12.049C67.4587 7.53265 70.1816 6.62474 74.4238 6.61182Z" fill="#32A041"/>
<path d="M50 10C55.8001 15.2005 59.5553 20.6227 60.3477 28.4219C60.7194 37.9145 59.6154 44.9114 53.1328 52.0586C45.4149 59.2809 39.1181 60.5912 28.6641 60.3438C20.9707 59.622 15.6788 56.5815 10.5039 50.9023C5.22089 44.2197 3.73647 37.4988 4 29C5.18302 21.1056 8.68696 14.576 14.8516 9.46484C25.9408 1.88791 39.0158 2.53588 50 10Z" fill="#C8191E"/>
<path d="M235 67C239.95 67 244.9 67 250 67C252.063 70.5745 254.126 74.1491 256.189 77.7239C256.889 78.9371 257.589 80.1503 258.29 81.3635C259.303 83.1186 260.315 84.8737 261.328 86.6289C261.936 87.6815 262.543 88.7341 263.169 89.8186C265.12 93.2083 267.06 96.6043 269 100C269.33 89.11 269.66 78.22 270 67C273.3 67 276.6 67 280 67C280 83.83 280 100.66 280 118C275.38 118 270.76 118 266 118C263.012 114.242 261.12 111.468 259.128 107.271C257.354 103.699 255.328 100.279 253.323 96.8335C250.854 92.5719 248.432 88.2831 246 84C246 95.22 246 106.44 246 118C242.37 118 238.74 118 235 118C235 101.17 235 84.34 235 67Z" fill="black"/>
<path d="M565 69C571.436 74.3339 574.487 80.6587 575.277 88.8867C575.547 97.3088 574.565 105.191 569.188 111.937C563.594 117.707 558.016 118.573 550.191 119C542.272 119 536.528 116.427 530.813 110.875C525.705 102.774 524.903 93.6721 526.434 84.3633C528.008 77.9777 530.866 73.1655 536 69C544.444 64.2684 556.559 64.2537 565 69ZM541 80C537.702 86.423 537.353 92.5875 538.688 99.625C540.235 103.603 541.565 105.461 545 108C549.156 109.388 552.169 109.282 556.313 107.875C559.979 105.317 561.455 102.883 562.688 98.625C563.49 91.8805 562.904 86.1656 560 80C557.276 76.7278 554.938 76.0885 550.688 75.6875C546.147 76.0723 544.335 76.8924 541 80Z" fill="black"/>
<path d="M680 67C706.571 67 706.571 67 715.812 72.75C721.96 79.0734 723.102 86.3816 723 95C722.262 102.434 719.629 107.371 714.312 112.688C703.329 120.355 693.677 118 680 118C680 101.17 680 84.34 680 67ZM692 77C692 87.23 692 97.46 692 108C700.822 108.38 700.822 108.38 707 104C710.591 99.5419 711.351 94.4591 710.785 88.8828C709.805 83.9344 707.969 81.2743 704 78C700.882 76.2546 700.882 76.2546 692 77Z" fill="black"/>
<path d="M435 67C438.63 67 442.26 67 446 67C446.015 68.0341 446.029 69.0681 446.044 70.1335C446.102 73.9824 446.18 77.8306 446.262 81.679C446.296 83.3423 446.324 85.0057 446.346 86.6692C446.38 89.0651 446.432 91.46 446.488 93.8555C446.495 94.5952 446.501 95.335 446.508 96.0972C446.633 100.541 447.255 103.463 450 107C452.625 108.142 455.158 108.199 458 108C460.947 106.918 460.947 106.918 463 105C464.223 101.33 464.231 97.8768 464.316 94.0508C464.337 93.2782 464.358 92.5055 464.379 91.7095C464.445 89.2439 464.504 86.7782 464.562 84.3125C464.606 82.64 464.649 80.9674 464.693 79.2949C464.8 75.1967 464.902 71.0984 465 67C468.96 67 472.92 67 477 67C477.075 71.9804 477.129 76.9605 477.165 81.9414C477.18 83.6329 477.2 85.3243 477.226 87.0156C477.263 89.4584 477.28 91.9007 477.293 94.3438C477.308 95.0899 477.324 95.8361 477.34 96.6049C477.342 102.636 476.206 108.107 472.457 113.023C466.23 118.141 460.064 119.695 452 119C445.337 117.831 441.192 116.066 437.059 110.621C434.426 106.589 434.874 102.724 434.902 98.0547C434.904 97.1697 434.905 96.2847 434.907 95.3728C434.912 92.5402 434.925 89.7076 434.937 86.875C434.943 84.957 434.947 83.0391 434.951 81.1211C434.962 76.414 434.979 71.707 435 67Z" fill="black"/>
<path d="M732 67C741.9 67 751.8 67 762 67C762 70.3 762 73.6 762 77C756.06 77 750.12 77 744 77C744 80.3 744 83.6 744 87C749.28 87 754.56 87 760 87C760 89.97 760 92.94 760 96C754.72 96 749.44 96 744 96C744 99.96 744 103.92 744 108C749.94 108 755.88 108 762 108C762 111.3 762 114.6 762 118C752.1 118 742.2 118 732 118C732 101.17 732 84.34 732 67Z" fill="black"/>
<path d="M641 67C650.9 67 660.8 67 671 67C671 70.3 671 73.6 671 77C664.73 77 658.46 77 652 77C652 80.3 652 83.6 652 87C657.61 87 663.22 87 669 87C669 89.97 669 92.94 669 96C663.39 96 657.78 96 652 96C652 99.96 652 103.92 652 108C658.27 108 664.54 108 671 108C671 111.3 671 114.6 671 118C661.1 118 651.2 118 641 118C641 101.17 641 84.34 641 67Z" fill="black"/>
<path d="M322 69C321.488 72.7552 320.782 75.6669 319 79C318.443 78.8556 317.886 78.7113 317.312 78.5625C312.059 77.2845 307.403 76.8035 302 77C301.581 79.3307 301.581 79.3307 302 82C304.995 85.2012 308.724 86.926 312.562 88.9375C319.832 92.8608 319.832 92.8608 322 97C323.261 102.585 323.332 106.626 321 112C316.963 116.325 312.981 118.477 307 119C300.471 118.921 295.098 118.439 289 116C289 112.37 289 108.74 289 105C294 106 294 106 297.438 107.063C300.863 107.964 303.485 108.32 307 108C307.99 107.34 308.98 106.68 310 106C310.025 103.62 310.025 103.62 309 101C306.737 99.4629 304.682 98.2562 302.25 97.0625C296.925 94.4166 293.34 92.0231 290 87C289.406 83.9648 289.406 83.9648 289.5 80.9375C289.51 79.9359 289.521 78.9343 289.531 77.9023C290.062 74.6148 291.056 72.6846 293 70C301.948 63.5757 312.226 65.5064 322 69Z" fill="black"/>
<path d="M602 67C611.9 67 621.8 67 632 67C632 70.3 632 73.6 632 77C626.06 77 620.12 77 614 77C614 80.96 614 84.92 614 89C619.61 89 625.22 89 631 89C631 91.97 631 94.94 631 98C625.39 98 619.78 98 614 98C614 104.6 614 111.2 614 118C610.04 118 606.08 118 602 118C602 101.17 602 84.34 602 67Z" fill="black"/>
<path d="M389 67C401.87 67 414.74 67 428 67C428 70.3 428 73.6 428 77C423.71 77 419.42 77 415 77C415 90.53 415 104.06 415 118C411.04 118 407.08 118 403 118C403 104.47 403 90.94 403 77C398.38 77 393.76 77 389 77C389 73.7 389 70.4 389 67Z" fill="black"/>
<path d="M326 67C338.54 67 351.08 67 364 67C364 70.3 364 73.6 364 77C359.71 77 355.42 77 351 77C351 90.53 351 104.06 351 118C347.04 118 343.08 118 339 118C339 104.47 339 90.94 339 77C334.71 77 330.42 77 326 77C326 73.7 326 70.4 326 67Z" fill="black"/>
<path d="M483 67C495.87 67 508.74 67 522 67C522 70.3 522 73.6 522 77C517.38 77 512.76 77 508 77C508 90.53 508 104.06 508 118C504.37 118 500.74 118 497 118C497 104.47 497 90.94 497 77C492.38 77 487.76 77 483 77C483 73.7 483 70.4 483 67Z" fill="black"/>
<path d="M866 67C869.63 67 873.26 67 877 67C877 80.53 877 94.06 877 108C883.93 108 890.86 108 898 108C898 111.3 898 114.6 898 118C887.44 118 876.88 118 866 118C866 101.17 866 84.34 866 67Z" fill="black"/>
<path d="M371 67C374.96 67 378.92 67 383 67C383 83.83 383 100.66 383 118C379.04 118 375.08 118 371 118C371 101.17 371 84.34 371 67Z" fill="black"/>
<path d="M617 199C618.98 199 620.96 199 623 199C624.871 200.987 626.121 202.622 627.523 204.906C628.11 205.805 628.11 205.805 628.708 206.722C629.951 208.636 631.163 210.567 632.375 212.5C633.213 213.802 634.053 215.103 634.895 216.402C636.956 219.586 638.976 222.791 641 226C641.33 217.09 641.66 208.18 642 199C643.65 199 645.3 199 647 199C647 211.87 647 224.74 647 238C645.02 238 643.04 238 641 238C639.028 235.737 637.631 233.796 636.125 231.25C635.266 229.879 634.407 228.508 633.547 227.137C633.123 226.445 632.7 225.753 632.264 225.041C630.377 221.994 628.377 219.034 626.375 216.062C624.704 213.557 624.704 213.557 623 211C622.67 219.91 622.34 228.82 622 238C620.35 238 618.7 238 617 238C617 225.13 617 212.26 617 199Z" fill="black"/>
<path d="M577 139C583 139 583 139 584.58 140.386C584.965 141.028 585.35 141.67 585.746 142.332C586.191 143.049 586.637 143.767 587.096 144.506C587.538 145.267 587.981 146.028 588.438 146.812C588.876 147.531 589.315 148.25 589.768 148.99C591.19 151.32 592.595 153.66 594 156C596.31 159.63 598.62 163.26 601 167C601.33 157.76 601.66 148.52 602 139C603.65 139 605.3 139 607 139C607 151.87 607 164.74 607 178C601 178 601 178 599.097 176.167C598.568 175.326 598.038 174.484 597.492 173.617C596.898 172.697 596.304 171.776 595.691 170.828C595.092 169.854 594.493 168.879 593.875 167.875C593.268 166.924 592.661 165.972 592.035 164.992C590.895 163.204 589.764 161.41 588.644 159.609C586.815 156.706 584.903 153.855 583 151C582.67 159.91 582.34 168.82 582 178C580.35 178 578.7 178 577 178C577 165.13 577 152.26 577 139Z" fill="black"/>
<path d="M294 209C294.66 209.33 295.32 209.66 296 210C296 210.66 296 211.32 296 212C296.474 211.526 296.949 211.051 297.438 210.562C301.136 208.307 304.695 207.862 309 208C312.67 209.562 313.773 210.659 316 214C316.227 216.544 316.227 216.544 316.195 219.543C316.189 220.616 316.182 221.689 316.176 222.795C316.159 223.914 316.142 225.034 316.125 226.187C316.116 227.319 316.107 228.45 316.098 229.615C316.074 232.41 316.041 235.205 316 238C314.35 238 312.7 238 311 238C310.97 237.069 310.97 237.069 310.94 236.12C310.845 233.309 310.735 230.498 310.625 227.687C310.594 226.711 310.563 225.735 310.531 224.729C310.473 223.322 310.473 223.322 310.414 221.887C310.383 221.023 310.351 220.159 310.319 219.268C310.128 216.723 310.128 216.723 308 214C304.562 214.181 304.562 214.181 301 215C299.1 217.789 298.721 220.221 298.586 223.547C298.547 224.391 298.509 225.236 298.469 226.105C298.422 227.415 298.422 227.415 298.375 228.75C298.336 229.638 298.298 230.526 298.258 231.441C298.164 233.627 298.078 235.813 298 238C296.35 238 294.7 238 293 238C292.98 237.344 292.96 236.688 292.94 236.012C292.845 233.049 292.735 230.087 292.625 227.125C292.594 226.092 292.563 225.06 292.531 223.996C292.493 223.01 292.454 222.024 292.414 221.008C292.367 219.641 292.367 219.641 292.319 218.247C292.201 215.801 292.201 215.801 290 214C286.403 214.323 286.403 214.323 283 215C280.651 219.689 280.57 224.177 280.375 229.312C280.336 230.148 280.298 230.984 280.258 231.846C280.164 233.897 280.081 235.948 280 238C278.35 238 276.7 238 275 238C275 228.43 275 218.86 275 209C277.667 209 280.333 209 283 209C287.089 207.637 289.746 208.325 294 209Z" fill="black"/>
<path d="M212 67C215.63 67 219.26 67 223 67C223 83.83 223 100.66 223 118C219.37 118 215.74 118 212 118C212 101.17 212 84.34 212 67Z" fill="black"/>
<path d="M333 141C332.34 142.65 331.68 144.3 331 146C330.381 145.835 329.762 145.67 329.125 145.5C323.168 144.547 317.996 144.002 312.5 146.75C309.287 149.642 308.156 151.524 307.699 155.84C307.695 156.862 307.691 157.884 307.687 158.937C307.671 159.957 307.654 160.977 307.637 162.027C308.053 165.433 308.965 167.26 311 170C313.965 171.977 314.991 172.313 318.375 172.625C319.125 172.7 319.875 172.775 320.648 172.852C323.095 173.006 325.549 173 328 173C328 169.37 328 165.74 328 162C325.03 162 322.06 162 319 162C319 160.35 319 158.7 319 157C323.62 157 328.24 157 333 157C333 163.6 333 170.2 333 177C329.02 178.327 325.356 178.263 321.187 178.312C320.393 178.342 319.598 178.371 318.779 178.4C313.35 178.459 310.292 177.626 306 174C300.834 167.158 300.234 161.389 301 153C302.589 147.637 305.237 144.02 310 141C317.074 137.644 325.858 137.826 333 141Z" fill="black"/>
<path d="M212 139C228.928 139 228.928 139 234 142C237.067 145.879 237.301 148.992 236.812 153.875C235.555 157.165 233.329 159.373 231 162C231.577 162.987 232.155 163.975 232.75 164.992C233.5 166.286 234.25 167.581 235 168.875C235.382 169.526 235.763 170.177 236.156 170.848C239 175.773 239 175.773 239 178C236.277 178.465 236.277 178.465 233 178C230.787 174.888 229.182 171.838 227.521 168.42C226.987 167.41 226.987 167.41 226.441 166.379C226.139 165.756 225.837 165.133 225.526 164.49C223.509 162.227 223.509 162.227 217 162C217 167.28 217 172.56 217 178C215.35 178 213.7 178 212 178C212 165.13 212 152.26 212 139ZM217 144C217 148.62 217 153.24 217 158C224.937 158.171 224.937 158.171 231 154C231.471 149.827 231.471 149.827 229.688 146.188C226.783 144.144 224.249 143.881 220.812 143.938C219.554 143.958 218.296 143.979 217 144Z" fill="black"/>
<path d="M442 137C443.98 137 445.96 137 448 137C448 150.53 448 164.06 448 178C446.35 178 444.7 178 443 178C442.67 177.34 442.34 176.68 442 176C441.01 176.66 440.02 177.32 439 178C434.931 178.665 430.775 178.923 427.047 176.984C424.403 174.854 423.078 173.234 422 170C421.854 167.878 421.779 165.751 421.75 163.625C421.724 162.504 421.698 161.382 421.672 160.227C422.111 155.913 423.755 153.555 426.41 150.238C428.439 148.658 429.892 148.441 432.438 148.188C433.199 148.099 433.961 148.01 434.746 147.918C437 148 437 148 441 150C441.33 145.71 441.66 141.42 442 137ZM428 157C426.416 161.751 426.561 165.606 428.062 170.375C429.841 173.299 429.841 173.299 433.375 174.188C437.049 174.28 437.049 174.28 439.938 172.25C442.923 167.545 442.871 163.429 442 158C440.623 154.731 440.623 154.731 438 153C433.116 152.084 430.996 153.117 428 157Z" fill="black"/>
<path d="M518 137C519.65 137 521.3 137 523 137C523 150.53 523 164.06 523 178C521.35 178 519.7 178 518 178C517.67 177.34 517.34 176.68 517 176C516.34 176.66 515.68 177.32 515 178C509.956 178.699 505.438 178.792 500.938 176.312C496.872 171.46 496.627 166.777 496.742 160.66C497.216 155.769 499.268 152.12 503 149C505.086 148.418 505.086 148.418 507.375 148.188C508.5 148.054 508.5 148.054 509.648 147.918C512 148 512 148 517 150C517.33 145.71 517.66 141.42 518 137ZM504.625 154.812C502.222 159.525 502.115 163.816 503 169C504.817 172.403 504.817 172.403 508 174C511.676 174.178 511.676 174.178 515 173C518.247 168.129 518.329 163.701 517.25 158.125C516.244 154.753 516.244 154.753 513 153C509.256 152.442 507.666 152.492 504.625 154.812Z" fill="black"/>
<path d="M343 209C346.656 211.067 347.761 212.397 349.312 216.312C350.562 223.014 350.493 229.004 347 235C344.723 237.227 343.458 237.945 340.273 238.328C339.317 238.302 338.36 238.277 337.375 238.25C336.413 238.235 335.452 238.219 334.461 238.203C332 238 332 238 330 237C329.67 241.62 329.34 246.24 329 251C327.35 251 325.7 251 324 251C324 237.14 324 223.28 324 209C326.97 209.495 326.97 209.495 330 210C331.176 209.505 331.176 209.505 332.375 209C336.123 207.572 339.17 207.946 343 209ZM330 216C328.308 221.076 328.509 225.411 330.062 230.437C331.855 233.314 331.855 233.314 335.438 234.125C339.025 234.343 339.025 234.343 341.375 232.187C344.689 227.726 344.759 223.43 344 218C341.694 214.705 340.404 213.274 336.438 212.5C333.548 213.093 332.116 213.959 330 216Z" fill="black"/>
<path d="M671 142C671.99 142 672.98 142 674 142C674 144.31 674 146.62 674 149C676.97 149 679.94 149 683 149C683 150.32 683 151.64 683 153C680.03 153 677.06 153 674 153C674.114 155.772 674.241 158.542 674.375 161.312C674.406 162.098 674.437 162.884 674.469 163.693C674.507 164.451 674.546 165.208 674.586 165.988C674.633 167.033 674.633 167.033 674.681 168.099C674.921 170.325 674.921 170.325 677 173C680.084 173.25 680.084 173.25 683 173C683 174.65 683 176.3 683 178C681.397 178.081 679.792 178.139 678.188 178.188C676.848 178.24 676.848 178.24 675.48 178.293C673 178 673 178 671.238 176.613C669.053 173.766 668.88 171.958 668.902 168.43C668.906 167.534 668.909 166.638 668.912 165.715C668.92 164.778 668.929 163.841 668.938 162.875C668.942 161.93 668.947 160.985 668.951 160.012C668.963 157.674 668.979 155.337 669 153C667.438 153.062 665.875 153.125 664.312 153.188C663.442 153.222 662.572 153.257 661.676 153.293C657.778 154.323 656.365 155.736 654 159C653.275 162.273 653.21 165.469 653.188 168.812C653.162 169.696 653.137 170.58 653.111 171.49C653.053 173.66 653.023 175.83 653 178C651.02 178 649.04 178 647 178C647 168.43 647 158.86 647 149C648.65 149 650.3 149 652 149C652.33 149.99 652.66 150.98 653 152C653.33 151.526 653.66 151.051 654 150.562C657.006 148.214 660.302 148.094 664 148C667 148.438 667 148.438 669 149C669.66 146.69 670.32 144.38 671 142Z" fill="black"/>
<path d="M473 149C476.105 151.427 477.754 154.261 479 158C479 160.31 479 162.62 479 165C472.73 165 466.46 165 460 165C461.297 170.691 461.297 170.691 463.734 172.398C466.727 173.193 469.178 172.959 472.25 172.625C473.866 172.459 473.866 172.459 475.516 172.289C476.745 172.146 476.745 172.146 478 172C478 173.65 478 175.3 478 177C474.697 178.101 472.102 178.202 468.625 178.25C467.504 178.276 466.382 178.302 465.227 178.328C461.657 177.965 459.854 177.129 457 175C453.224 169.791 453.319 164.184 454 158C455.517 153.751 457.109 151.31 461 149C465.182 147.606 468.765 147.774 473 149ZM460 157C460 157.99 460 158.98 460 160C464.29 160 468.58 160 473 160C472.67 158.35 472.34 156.7 472 155C466.915 151.61 463.746 152.144 460 157Z" fill="black"/>
<path d="M554.711 210.297C557.214 213.604 557.121 217.175 557.098 221.203C557.094 222.183 557.091 223.162 557.088 224.172C557.08 225.188 557.071 226.203 557.062 227.25C557.058 228.281 557.053 229.312 557.049 230.375C557.037 232.917 557.021 235.458 557 238C555.35 238 553.7 238 552 238C551.67 237.34 551.34 236.68 551 236C550.01 236.66 549.02 237.32 548 238C544.28 238.54 540.721 238.535 537 238C533.512 235.323 533.107 233.76 532.5 229.437C533 226 533 226 534.625 223.687C539.916 219.928 544.743 219.784 551 220C550.34 218.02 549.68 216.04 549 214C543.06 214.495 543.06 214.495 537 215C536.67 213.68 536.34 212.36 536 211C541.126 207.583 549.446 206.306 554.711 210.297ZM539 227C538.75 229.458 538.75 229.458 539 232C539.66 232.66 540.32 233.32 541 234C544.374 233.816 547.024 233.598 549.938 231.812C551.473 229.194 551.198 226.971 551 224C546.701 223.8 542.252 223.748 539 227Z" fill="black"/>
<path d="M705 149C709.295 152.49 710.232 154.917 710.812 160.375C710.874 161.901 710.936 163.427 711 165C701.595 165.495 701.595 165.495 692 166C692.99 167.98 693.98 169.96 695 172C700.014 173.233 703.935 173.14 709 172C709 173.65 709 175.3 709 177C704.583 179.209 698.808 178.421 694 178C691.145 177.033 690.201 176.201 688 174C685.431 168.737 685.451 163.746 686 158C687.517 153.751 689.109 151.31 693 149C697.207 147.598 700.735 147.818 705 149ZM692 157C692 157.99 692 158.98 692 160C696.29 160 700.58 160 705 160C704.67 158.35 704.34 156.7 704 155C698.915 151.61 695.746 152.144 692 157Z" fill="black"/>
<path d="M229.875 198.812C230.904 198.798 231.932 198.784 232.992 198.77C236.055 199.004 238.232 199.708 241 201C240.34 202.65 239.68 204.3 239 206C238.34 205.835 237.68 205.67 237 205.5C232.143 204.69 227.852 204.3 223.187 206.062C219.77 209.09 218.362 212.476 217.715 216.988C217.496 221.894 218.351 225.779 221 230C226.576 233.891 232.615 233.086 239 232C239.043 233.666 239.041 235.334 239 237C236.974 239.026 233.078 238.276 230.312 238.312C229.604 238.342 228.896 238.371 228.166 238.4C222.139 238.473 218.633 236.539 214.25 232.312C210.613 225.584 210.491 218.369 212 211C213.891 205.726 216.58 203.223 221 200C224.175 198.942 226.54 198.833 229.875 198.812Z" fill="black"/>
<path d="M634 149C638.047 152.186 640.657 155.392 641.336 160.551C641.426 166.951 640.935 170.863 637 176C632.399 178.948 627.268 178.747 622 178C618.574 176.365 616.604 173.989 614.625 170.75C613.148 164.251 613.324 158.546 616.68 152.668C620.965 147.254 627.878 147.105 634 149ZM622.188 154.812C619.011 159.441 618.996 163.548 620 169C621.817 172.403 621.817 172.403 625 174C628.794 174.065 630.969 173.893 633.875 171.375C635.644 167.64 636.565 164.157 635.492 160.062C634.123 156.604 633.135 155.09 630 153C626.476 152.351 625.228 152.853 622.188 154.812Z" fill="black"/>
<path d="M263 209C265.706 211.152 266.883 212.29 267.454 215.749C267.423 217.289 267.423 217.289 267.391 218.859C267.371 220.532 267.371 220.532 267.352 222.238C267.318 223.397 267.285 224.556 267.25 225.75C267.232 226.924 267.214 228.099 267.195 229.309C267.148 232.207 267.082 235.103 267 238C265.68 238 264.36 238 263 238C262.67 237.34 262.34 236.68 262 236C261.01 236.66 260.02 237.32 259 238C254.193 238.631 249.605 238.896 245.312 236.5C243.441 232.934 243.351 229.943 244 226C245.514 222.616 246.715 222.112 250.187 220.75C254.307 219.94 257.817 219.853 262 220C261.67 218.02 261.34 216.04 261 214C256.484 213.923 252.409 213.898 248 215C247.67 213.35 247.34 211.7 247 210C252.377 208.055 257.429 207.208 263 209ZM249 228C249.32 230.603 249.32 230.603 250 233C253.256 233.943 253.256 233.943 257 234C260.063 232.02 260.063 232.02 262 229C262.42 226.288 262.42 226.288 262 224C256.708 223.754 252.847 224.153 249 228Z" fill="black"/>
<path d="M734.937 210.813C739.417 215.563 739.37 219.749 739.254 226.082C738.861 230.597 737.568 233.541 734.258 236.621C729.911 239.276 724.901 238.688 720 238C716.044 236.301 714.326 233.723 712.562 229.813C711.697 223.948 711.996 218.622 714.125 213.063C719.788 206.834 728.01 206.538 734.937 210.813ZM720.125 214.875C717.137 219.27 717.245 222.837 718 228C718.83 231.112 718.83 231.112 721 233C724.999 234.259 727.042 234.437 730.875 232.688C733.991 228.746 734.297 224.948 734 220C732.653 216.921 731.353 215.353 729 213C725.101 212.394 723.455 212.703 720.125 214.875Z" fill="black"/>
<path d="M444.375 198.812C445.779 198.791 445.779 198.791 447.211 198.77C450.161 199.013 452.324 199.769 455 201C454.34 202.65 453.68 204.3 453 206C452.432 205.84 451.863 205.68 451.277 205.516C446.484 204.43 441.777 204.382 437.125 206C433.372 209.533 432.097 213.457 431.902 218.57C432.144 222.517 432.724 225.448 434.5 229C438.624 232.299 443.129 233.133 448.363 232.891C450.252 232.663 452.128 232.34 454 232C454 233.65 454 235.3 454 237C450.901 238.55 447.649 238.267 444.25 238.312C443.546 238.342 442.842 238.371 442.117 238.4C436.956 238.463 434.086 237.401 430 234C425.339 228.74 425.402 222.053 425.617 215.352C426.335 209.071 428.128 205.49 433.063 201.562C437.04 199.447 439.925 198.843 444.375 198.812Z" fill="black"/>
<path d="M551.938 150.75C556.188 155.387 556.435 160.218 556.32 166.27C555.83 170.45 554.558 172.66 552 176C547.395 178.95 542.272 178.74 537 178C533.307 176.303 531.41 173.839 529.625 170.187C528.329 163.576 528.352 158.613 531.68 152.703C536.675 146.26 545.599 146.974 551.938 150.75ZM535 158C533.986 163.413 534.085 167.558 537.063 172.25C539.949 174.299 539.949 174.299 543.625 174.062C546.935 173.255 546.935 173.255 548.875 171.437C550.895 167.062 551.46 162.881 550.313 158.187C548.787 155.645 547.609 154.416 545 153C540.012 151.977 537.78 153.949 535 158Z" fill="black"/>
<path d="M379 149C381.705 151.154 382.883 152.29 383.454 155.749C383.423 157.289 383.423 157.289 383.391 158.859C383.371 160.532 383.371 160.532 383.352 162.238C383.318 163.397 383.285 164.556 383.25 165.75C383.232 166.924 383.214 168.099 383.195 169.309C383.148 172.207 383.082 175.103 383 178C381.68 178 380.36 178 379 178C378.67 177.34 378.34 176.68 378 176C377.01 176.66 376.02 177.32 375 178C370.193 178.631 365.605 178.896 361.313 176.5C359.446 172.944 359.208 169.93 360 166C362.599 162.201 365.588 161.018 370 160C372.693 159.854 375.299 159.907 378 160C377.656 157.527 377.656 157.527 377 155C372.917 152.959 368.297 153.989 364 155C363.67 153.68 363.34 152.36 363 151C368.383 148.137 373.047 146.986 379 149ZM367 166C365.639 168.524 365.639 168.524 365 171C366.036 172.707 366.036 172.707 368 174C371.767 173.933 374.092 173.82 376.938 171.25C378.167 168.646 378.237 166.847 378 164C373.839 163.806 370.649 163.872 367 166Z" fill="black"/>
<path d="M676.937 210.813C681.417 215.563 681.37 219.749 681.254 226.082C680.861 230.597 679.568 233.541 676.258 236.621C671.911 239.276 666.901 238.688 662 238C658.044 236.301 656.326 233.723 654.562 229.813C653.697 223.948 653.996 218.622 656.125 213.063C661.788 206.834 670.01 206.538 676.937 210.813ZM662.125 214.875C659.137 219.27 659.245 222.837 660 228C660.83 231.112 660.83 231.112 663 233C666.999 234.259 669.042 234.437 672.875 232.688C675.991 228.746 676.297 224.948 676 220C674.653 216.921 673.353 215.353 671 213C667.101 212.394 665.455 212.703 662.125 214.875Z" fill="black"/>
<path d="M277.937 150.812C282.578 155.734 282.42 160.294 282.324 166.855C281.883 171.139 280.932 172.9 278 176C273.314 179.124 268.481 178.695 263 178C259.041 176.311 257.324 173.719 255.562 169.812C254.697 163.948 254.996 158.622 257.125 153.062C262.788 146.834 271.01 146.538 277.937 150.812ZM262 156C260.32 161.04 260.286 165.983 262.062 171C263.968 173.284 263.968 173.284 267.375 174.062C271.045 174.304 271.045 174.304 273.875 172.25C276.61 169.354 276.957 167.576 277.25 163.625C276.918 158.812 275.356 156.356 272 153C267.614 152.523 265.162 152.838 262 156Z" fill="black"/>
<path d="M411 149C413.995 151.246 414.816 152.449 416 156C416.082 157.7 416.107 159.403 416.098 161.105C416.094 162.088 416.091 163.071 416.088 164.084C416.08 165.108 416.071 166.132 416.062 167.187C416.058 168.223 416.053 169.259 416.049 170.326C416.037 172.884 416.021 175.442 416 178C414.02 178 412.04 178 410 178C409.505 166.12 409.505 166.12 409 154C401.736 153.277 401.736 153.277 399.062 155.25C397.189 158.335 396.872 161.556 396.684 165.109C396.642 165.863 396.6 166.618 396.557 167.395C396.498 168.56 396.498 168.56 396.438 169.75C396.394 170.543 396.351 171.336 396.307 172.152C396.201 174.101 396.1 176.051 396 178C394.35 178 392.7 178 391 178C391 168.43 391 158.86 391 149C392.65 149 394.3 149 396 149C396 149.66 396 150.32 396 151C396.804 150.484 397.609 149.969 398.438 149.437C402.962 147.612 406.329 147.677 411 149Z" fill="black"/>
<path d="M460 209C461.65 209 463.3 209 465 209C465.022 209.931 465.022 209.931 465.044 210.88C465.119 213.692 465.215 216.502 465.313 219.312C465.335 220.289 465.358 221.265 465.381 222.271C465.416 223.209 465.452 224.147 465.488 225.113C465.514 225.977 465.541 226.841 465.568 227.732C466.088 230.462 466.738 231.407 469 233C472.583 233.083 472.583 233.083 476 232C477.88 229.194 478.279 226.785 478.414 223.453C478.453 222.609 478.491 221.764 478.531 220.895C478.562 220.022 478.593 219.149 478.625 218.25C478.664 217.362 478.702 216.474 478.742 215.559C478.836 213.373 478.922 211.187 479 209C480.65 209 482.3 209 484 209C484 218.57 484 228.14 484 238C482.68 238 481.36 238 480 238C480 237.34 480 236.68 480 236C479.452 236.321 478.904 236.642 478.34 236.973C475.611 238.171 473.537 238.367 470.563 238.438C469.172 238.497 469.172 238.497 467.754 238.559C463.601 237.716 462.369 236.536 460 233C459.394 228.878 459.53 224.843 459.688 220.688C459.71 219.565 459.733 218.443 459.756 217.287C459.815 214.523 459.897 211.762 460 209Z" fill="black"/>
<path d="M356 209C357.65 209 359.3 209 361 209C361.022 209.931 361.022 209.931 361.044 210.88C361.119 213.692 361.215 216.502 361.313 219.312C361.335 220.289 361.358 221.265 361.381 222.271C361.416 223.209 361.452 224.147 361.488 225.113C361.514 225.977 361.541 226.841 361.568 227.732C362.088 230.462 362.738 231.407 365 233C368.583 233.083 368.583 233.083 372 232C373.88 229.194 374.279 226.785 374.414 223.453C374.453 222.609 374.491 221.764 374.531 220.895C374.562 220.022 374.593 219.149 374.625 218.25C374.664 217.362 374.702 216.474 374.742 215.559C374.836 213.373 374.922 211.187 375 209C376.65 209 378.3 209 380 209C380 218.57 380 228.14 380 238C378.68 238 377.36 238 376 238C376 237.34 376 236.68 376 236C375.452 236.321 374.904 236.642 374.34 236.973C371.611 238.171 369.537 238.367 366.563 238.438C365.172 238.497 365.172 238.497 363.754 238.559C359.601 237.716 358.369 236.536 356 233C355.394 228.878 355.53 224.843 355.688 220.688C355.71 219.565 355.733 218.443 355.756 217.287C355.815 214.523 355.897 211.762 356 209Z" fill="black"/>
<path d="M757.125 208.375C757.994 208.465 758.863 208.555 759.758 208.648C762 209 762 209 764 210C763.67 211.65 763.34 213.3 763 215C762.319 214.835 761.639 214.67 760.938 214.5C757.584 213.929 754.396 213.933 751 214C751 215.32 751 216.64 751 218C751.843 218.398 752.686 218.797 753.555 219.207C755.198 220.002 755.198 220.002 756.875 220.813C757.966 221.335 759.056 221.857 760.18 222.395C763 224 763 224 765 227C765.574 230.773 765.261 232.538 763.375 235.875C757.987 239.268 752.207 238.551 746 238C745.34 237.67 744.68 237.34 744 237C744 235.35 744 233.7 744 232C744.831 232.107 745.663 232.214 746.52 232.324C747.606 232.444 748.693 232.564 749.813 232.688C750.891 232.815 751.97 232.943 753.082 233.074C756.017 233.29 756.017 233.29 757.887 231.52C758.254 231.018 758.622 230.517 759 230C756.618 227.304 754.178 225.96 750.938 224.438C748.129 223.113 746.204 222.204 744 220C743.562 216.058 743.355 213.875 745.75 210.625C749.533 207.893 752.567 207.872 757.125 208.375Z" fill="black"/>
<path d="M589.125 208.375C589.994 208.465 590.863 208.555 591.758 208.648C594 209 594 209 596 210C595.67 211.65 595.34 213.3 595 215C594.319 214.835 593.639 214.67 592.938 214.5C589.584 213.929 586.396 213.933 583 214C583 215.32 583 216.64 583 218C583.843 218.398 584.686 218.797 585.555 219.207C587.198 220.002 587.198 220.002 588.875 220.813C589.966 221.335 591.056 221.857 592.18 222.395C595 224 595 224 597 227C597.574 230.773 597.261 232.538 595.375 235.875C589.987 239.268 584.207 238.551 578 238C577.34 237.67 576.68 237.34 576 237C576 235.35 576 233.7 576 232C576.831 232.107 577.663 232.214 578.52 232.324C579.606 232.444 580.693 232.564 581.813 232.688C582.891 232.815 583.97 232.943 585.082 233.074C588.017 233.29 588.017 233.29 589.887 231.52C590.254 231.018 590.622 230.517 591 230C588.618 227.304 586.178 225.96 582.938 224.438C580.129 223.113 578.204 222.204 576 220C575.562 216.058 575.355 213.875 577.75 210.625C581.533 207.893 584.567 207.872 589.125 208.375Z" fill="black"/>
<path d="M407 210C406.34 211.65 405.68 213.3 405 215C404.157 214.754 404.157 214.754 403.297 214.504C400.869 213.971 398.731 213.901 396.25 213.938C395.051 213.951 395.051 213.951 393.828 213.965C392.923 213.982 392.923 213.982 392 214C392 215.32 392 216.64 392 218C393.237 218.371 393.237 218.371 394.5 218.75C405.304 222.609 405.304 222.609 407 226C407.56 231.786 407.56 231.786 407 234C404.209 237.018 402.591 237.928 398.484 238.426C397.252 238.388 396.02 238.351 394.75 238.313C393.507 238.288 392.265 238.264 390.984 238.238C388 238 388 238 387 237C386.959 235.334 386.957 233.666 387 232C387.843 232.084 388.686 232.168 389.555 232.254C390.65 232.356 391.746 232.458 392.875 232.563C393.966 232.667 395.056 232.771 396.18 232.879C398.952 233.226 398.952 233.226 401 232C401.652 229.975 401.652 229.975 402 228C401.175 227.753 400.35 227.505 399.5 227.25C388.696 223.391 388.696 223.391 387 220C386.583 214.749 386.583 214.749 387 212C392.41 206.217 400.234 207.36 407 210Z" fill="black"/>
<path d="M683 209C684.98 209 686.96 209 689 209C689.207 209.57 689.414 210.141 689.627 210.728C690.561 213.299 691.499 215.868 692.438 218.437C692.763 219.335 693.088 220.233 693.424 221.158C693.736 222.012 694.049 222.866 694.371 223.746C694.659 224.537 694.947 225.328 695.244 226.142C695.852 227.982 695.852 227.982 697 229C697.207 228.43 697.414 227.859 697.627 227.272C698.561 224.701 699.499 222.132 700.438 219.562C700.763 218.665 701.088 217.767 701.424 216.842C701.736 215.988 702.049 215.134 702.371 214.254C702.659 213.463 702.947 212.672 703.244 211.858C704 210 704 210 705 209C706.666 208.959 708.334 208.957 710 209C708.666 215.9 706.566 222.081 703.875 228.562C703.502 229.476 703.13 230.389 702.746 231.33C701.837 233.556 700.922 235.779 700 238C698.02 238 696.04 238 694 238C691.194 231.938 688.685 225.781 686.25 219.562C685.932 218.757 685.614 217.951 685.287 217.122C684.991 216.361 684.695 215.6 684.391 214.816C684.123 214.13 683.855 213.444 683.579 212.737C683 211 683 211 683 209Z" fill="black"/>
<path d="M509 208C510 210 510 210 509 214C504.545 214.495 504.545 214.495 500 215C499.07 217.79 498.813 219.765 498.684 222.668C498.642 223.561 498.6 224.453 498.557 225.373C498.498 226.766 498.498 226.766 498.438 228.187C498.394 229.128 498.351 230.068 498.307 231.037C498.201 233.358 498.099 235.679 498 238C496.02 238 494.04 238 492 238C492 228.43 492 218.86 492 209C493.65 209 495.3 209 497 209C497.33 209.66 497.66 210.32 498 211C498.701 210.505 499.402 210.01 500.125 209.5C503.371 207.806 505.393 207.748 509 208Z" fill="black"/>
<path d="M530 208C530.33 209.65 530.66 211.3 531 213C529 214 529 214 526.062 214.312C523.039 214.736 523.039 214.736 521.352 216.434C519.267 220.393 519.427 224.337 519.312 228.75C519.278 229.638 519.244 230.526 519.209 231.441C519.127 233.627 519.057 235.813 519 238C517.35 238 515.7 238 514 238C514 228.43 514 218.86 514 209C515.32 209 516.64 209 518 209C518.66 209.66 519.32 210.32 520 211C520.722 210.505 521.444 210.01 522.188 209.5C525.148 207.921 526.713 207.718 530 208Z" fill="black"/>
<path d="M357 148C357.33 148.99 357.66 149.98 358 151C357.01 152.485 357.01 152.485 356 154C355.031 154.144 354.061 154.289 353.062 154.437C350.035 154.726 350.035 154.726 348.352 156.426C346.27 160.39 346.427 164.333 346.312 168.75C346.278 169.638 346.244 170.526 346.209 171.441C346.127 173.627 346.057 175.813 346 178C344.35 178 342.7 178 341 178C341 168.43 341 158.86 341 149C342.32 149 343.64 149 345 149C345.33 149.99 345.66 150.98 346 152C346.433 151.526 346.866 151.051 347.312 150.562C350.289 147.806 353.138 147.896 357 148Z" fill="black"/>
<path d="M564 209C565.98 209 567.96 209 570 209C570 218.57 570 228.14 570 238C568.02 238 566.04 238 564 238C564 228.43 564 218.86 564 209Z" fill="black"/>
<path d="M244 149C245.65 149 247.3 149 249 149C249 158.57 249 168.14 249 178C247.35 178 245.7 178 244 178C244 168.43 244 158.86 244 149Z" fill="black"/>
<path d="M566 198C567.32 198.66 568.64 199.32 570 200C569.67 201.65 569.34 203.3 569 205C567.35 204.67 565.7 204.34 564 204C564.875 199.125 564.875 199.125 566 198Z" fill="black"/>
<path d="M246 138C246.99 138.33 247.98 138.66 249 139C249 140.65 249 142.3 249 144C247.35 144.33 245.7 144.66 244 145C243.312 143.188 243.312 143.188 243 141C244.438 139.25 244.438 139.25 246 138Z" fill="black"/>
</svg>
