<svg width="448" height="512" viewBox="0 0 448 512" fill="none" xmlns="http://www.w3.org/2000/svg">
<path d="M97.8719 434.733C51.5345 339.784 23.9656 282.444 23.9656 281.02C23.9656 278.698 26.7972 279.021 54.6377 284.48C103.603 294.094 129.764 296.806 173.373 296.822C231.07 296.838 278.053 287.7 314.558 269.338C333.869 259.623 345.483 251.011 354.995 239.345C366.711 224.967 370.474 215.065 370.61 198.398C370.728 182.546 368.592 174.187 359.419 154.79C355.79 147.125 352.603 138.327 352.298 135.24C351.823 130.272 352.23 129.559 355.893 129.136C363.896 128.188 403.4 166.539 417.948 189.377C443.024 228.763 445.059 271.37 423.832 312.572C410.793 337.886 396.382 355.4 372.255 375.306C332.156 408.368 285.547 431.392 221.186 449.941C186.616 459.911 130.715 472 119.202 472C116.761 472 112.182 463.997 97.9063 434.717L97.8719 434.733ZM110.776 281.612C65.7601 275.78 27.9853 270.709 26.8154 270.337C24.8156 269.693 17.6607 245.821 13.6248 226.39C12.6079 221.473 11.1156 208.451 10.302 197.432C6.67166 148.261 17.3708 114.266 46.0412 83.6972C94.5836 31.9852 198.517 25.694 315.778 67.3695C336.36 74.6937 344.533 79.7804 340.753 82.9501C337.956 85.29 319 85.256 286.243 82.8477C235.039 79.084 196.06 86.205 175.969 103.024C145.381 128.626 150.045 184.748 189.499 265.706C193.772 274.472 198.078 283.051 199.062 284.797C201.352 288.815 199.69 292.546 195.705 292.359C194.008 292.277 155.79 287.446 110.776 281.612ZM261.792 237.565C225.864 231.105 193.565 208.826 183.138 183.343C178.136 171.102 178.373 155.13 183.714 145.569C188.546 136.921 201.024 126.919 212.198 122.73C230.798 115.762 263.369 118.542 287.105 129.14C309.638 139.195 329.612 156.878 337.037 173.324C346.566 194.433 338.63 217.984 318.216 229.225C304.686 236.668 278.39 240.551 261.774 237.566H261.792L261.792 237.565Z" fill="#E48020"/>
</svg>
