<svg width="429" height="432" viewBox="0 0 429 432" fill="none" xmlns="http://www.w3.org/2000/svg">
<path d="M88.2524 394.733C41.915 299.784 14.3462 242.444 14.3462 241.02C14.3462 238.698 17.1777 239.021 45.0182 244.48C93.9835 254.094 120.145 256.806 163.753 256.822C221.45 256.838 268.434 247.7 304.938 229.338C324.25 219.623 335.864 211.011 345.375 199.345C357.091 184.967 360.855 175.065 360.99 158.398C361.109 142.546 358.972 134.187 349.8 114.79C346.171 107.125 342.983 98.327 342.679 95.24C342.204 90.2719 342.611 89.5592 346.273 89.1364C354.276 88.1879 393.781 126.539 408.328 149.377C433.404 188.763 435.44 231.37 414.212 272.572C401.173 297.886 386.763 315.4 362.635 335.306C322.537 368.368 275.928 391.392 211.567 409.941C176.996 419.911 121.096 432 109.583 432C107.142 432 102.563 423.997 88.2869 394.717L88.2524 394.733ZM101.157 241.612C56.1407 235.78 18.3658 230.709 17.1959 230.337C15.1962 229.693 8.04124 205.821 4.00533 186.39C2.98846 181.473 1.49615 168.451 0.682581 157.432C-2.94778 108.261 7.75136 74.2665 36.4217 43.6972C84.9641 -8.01482 188.898 -14.306 306.158 27.3695C326.741 34.6937 334.913 39.7804 331.133 42.9501C328.336 45.29 309.38 45.256 276.624 42.8477C225.419 39.084 186.441 46.205 166.349 63.0239C135.762 88.6255 140.426 144.748 179.88 225.706C184.153 234.472 188.459 243.051 189.443 244.797C191.733 248.815 190.071 252.546 186.086 252.359C184.388 252.277 146.171 247.446 101.157 241.612ZM252.173 197.565C216.245 191.105 183.946 168.826 173.518 143.343C168.516 131.102 168.754 115.13 174.094 105.569C178.927 96.9213 191.405 86.9186 202.579 82.7301C221.178 75.7622 253.749 78.5416 277.486 89.1399C300.018 99.1947 319.993 116.878 327.418 133.324C336.947 154.433 329.011 177.984 308.597 189.225C295.066 196.668 268.77 200.551 252.154 197.566H252.173L252.173 197.565Z" fill="#EF6C00"/>
</svg>
