<svg width="370" height="433" viewBox="0 0 370 433" fill="none" xmlns="http://www.w3.org/2000/svg">
<path d="M168.229 96.1989C168.229 207.343 168.229 318.488 168.229 433C160.853 433 153.985 432.796 146.748 431.863C145.923 431.757 145.098 431.656 144.273 431.557C142.066 431.289 139.899 430.927 137.725 430.467C136.786 430.27 135.844 430.106 134.898 429.948C133.591 429.725 132.312 429.436 131.029 429.102C130.11 428.863 129.188 428.654 128.258 428.461C127.255 428.251 126.282 428.004 125.308 427.684C124.845 427.549 124.389 427.443 123.917 427.342C122.724 427.081 121.557 426.74 120.385 426.396C120.172 426.334 119.96 426.273 119.741 426.21C118.489 425.843 117.264 425.434 116.041 424.978C115.414 424.748 114.779 424.548 114.139 424.356C111.115 423.436 108.171 422.344 105.274 421.078C104.715 420.836 104.155 420.606 103.588 420.383C102.631 420.003 101.685 419.597 100.741 419.186C100.594 419.122 100.447 419.059 100.296 418.994C99.6646 418.717 99.0976 418.439 98.5229 418.055C98.3323 417.994 98.1418 417.933 97.9455 417.87C97.3069 417.649 96.7817 417.359 96.2035 417.014C95.7615 416.774 95.3189 416.6 94.8486 416.423C93.6179 415.947 92.4782 415.315 91.3219 414.685C90.6772 414.334 90.0241 414.006 89.3634 413.687C86.8382 412.435 84.4115 410.964 82.0001 409.506C81.4944 409.2 80.9871 408.898 80.4795 408.595C79.5428 408.032 78.6197 407.449 77.7008 406.857C77.2854 406.591 76.8675 406.329 76.4476 406.071C76.2365 405.94 76.0254 405.809 75.8079 405.674C75.6144 405.556 75.4209 405.437 75.2215 405.315C75.0116 405.161 75.0116 405.161 74.7975 405.003C74.7975 404.865 74.7975 404.726 74.7975 404.582C74.5641 404.55 74.5641 404.55 74.3259 404.518C73.6871 404.357 73.3937 404.15 72.8947 403.727C71.919 402.928 70.8863 402.249 69.8233 401.572C69.6633 401.454 69.5034 401.336 69.3386 401.214C69.3386 401.076 69.3386 400.937 69.3386 400.793C69.1523 400.746 68.9661 400.698 68.7743 400.649C67.9694 400.329 67.6389 399.931 67.029 399.32C66.5437 398.941 66.0397 398.591 65.533 398.241C64.0709 397.226 64.0709 397.226 63.4597 396.583C63.2518 396.486 63.2518 396.486 63.0398 396.386C62.5314 396.115 62.3293 395.779 61.99 395.32C61.7821 395.251 61.5743 395.181 61.3601 395.11C61.0059 394.763 60.6568 394.412 60.3103 394.057C59.6726 393.497 59.0181 392.956 58.3645 392.415C58.0257 392.129 57.6973 391.831 57.3709 391.531C57.3709 391.392 57.3709 391.254 57.3709 391.11C57.2453 391.089 57.1197 391.067 56.9903 391.045C56.4654 390.879 56.2423 390.696 55.9012 390.268C55.9012 390.129 55.9012 389.991 55.9012 389.847C55.7496 389.8 55.598 389.752 55.4419 389.703C54.6027 389.31 53.9809 388.767 53.5916 387.913C53.4076 387.482 53.4076 387.482 52.8961 387.348C52.2547 387.078 51.9664 386.724 51.5445 386.181C51.0056 385.497 50.3846 384.918 49.7074 384.374C48.7754 383.627 48.0354 382.779 47.2928 381.848C46.9474 381.493 46.5973 381.142 46.243 380.796C45.8931 380.445 45.5432 380.094 45.1933 379.743C45.033 379.591 44.8728 379.439 44.7077 379.283C44.044 378.587 43.4631 377.842 42.8698 377.085C42.544 376.685 42.219 376.323 41.847 375.968C41.414 375.533 41.414 375.533 41.204 374.902C41.0655 374.902 40.9269 374.902 40.7841 374.902C40.4694 374.554 40.17 374.191 39.8787 373.823C39.7109 373.612 39.5431 373.401 39.3702 373.184C39.2132 372.987 39.0562 372.79 38.8945 372.586C38.6811 372.336 38.467 372.085 38.2515 371.836C37.8447 371.323 37.8447 371.323 37.8447 370.902C37.6368 370.833 37.429 370.763 37.2148 370.692C37.071 370.413 36.9316 370.132 36.7949 369.85C36.5153 369.569 36.2353 369.288 35.9551 369.008C35.702 368.69 35.455 368.368 35.2136 368.042C35.078 367.859 34.9424 367.677 34.8027 367.489C34.6634 367.3 34.524 367.111 34.3804 366.916C34.1027 366.541 33.825 366.167 33.5471 365.792C33.418 365.617 33.2889 365.443 33.1559 365.263C32.879 364.895 32.5915 364.535 32.3004 364.179C31.9658 363.745 31.9658 363.745 31.7559 363.114C31.4795 362.83 31.199 362.549 30.916 362.272C30.1013 361.228 29.3358 360.214 29.0264 358.904C28.8878 358.904 28.7493 358.904 28.6065 358.904C28.244 358.412 28.244 358.412 27.8454 357.772C27.7128 357.562 27.5801 357.352 27.4435 357.136C27.1368 356.588 27.1368 356.588 27.1368 356.167C26.9982 356.167 26.8596 356.167 26.7169 356.167C26.6311 355.987 26.5453 355.807 26.4569 355.622C26.0806 354.892 25.6575 354.208 25.2078 353.523C25.0397 353.263 24.8719 353.004 24.7042 352.744C24.6198 352.614 24.5354 352.483 24.4485 352.348C24.0572 351.739 23.6735 351.126 23.2919 350.51C23.1628 350.302 23.0337 350.094 22.9007 349.88C22.5374 349.255 22.2151 348.622 21.8968 347.973C21.5286 347.24 21.1223 346.528 20.7199 345.813C19.5257 343.674 18.3891 341.506 17.2687 339.327C17.1914 339.177 17.1141 339.027 17.0344 338.872C16.3321 337.504 15.6843 336.147 15.1691 334.696C14.7164 333.618 14.2174 332.56 13.7256 331.499C12.7239 329.324 11.7912 327.141 11.0068 324.877C10.7812 324.232 10.5434 323.593 10.303 322.953C9.31089 320.279 8.39744 317.577 7.60868 314.835C7.38701 314.068 7.15308 313.318 6.86587 312.573C6.5641 311.786 6.351 310.993 6.15398 310.173C6.08183 309.876 6.00965 309.579 5.93746 309.282C5.90146 309.133 5.86547 308.983 5.82838 308.829C5.66013 308.132 5.48738 307.435 5.31415 306.739C5.28021 306.602 5.24628 306.464 5.21132 306.323C5.02152 305.56 4.82389 304.799 4.61702 304.04C4.09708 302.127 3.66514 300.229 3.34414 298.272C3.21865 297.513 3.0574 296.767 2.88649 296.017C2.58471 294.639 2.38246 293.257 2.1931 291.86C2.05403 290.84 1.90363 289.824 1.73008 288.809C1.23022 285.88 0.921019 282.979 0.728569 280.015C0.667051 279.118 0.590951 278.222 0.514611 277.326C-0.165532 269.252 -0.151739 261.137 0.439426 253.058C0.472664 252.591 0.503392 252.124 0.533372 251.657C0.824786 247.132 1.36318 242.689 2.12533 238.219C2.29182 237.241 2.44781 236.262 2.5978 235.282C2.88246 233.427 3.21953 231.595 3.62135 229.762C3.6993 229.396 3.6993 229.396 3.77882 229.023C4.06337 227.707 4.38229 226.407 4.74424 225.11C4.919 224.464 5.05403 223.814 5.18292 223.157C5.4387 221.925 5.7785 220.741 6.16136 219.543C6.32322 219.011 6.45178 218.492 6.56078 217.947C6.75071 217.019 7.07989 216.162 7.41374 215.277C7.59105 214.767 7.71626 214.28 7.82053 213.75C7.99836 212.864 8.31335 212.074 8.66037 211.242C8.86066 210.736 9.02194 210.234 9.17214 209.711C10.3346 205.709 11.9442 201.752 13.6994 197.976C14.2232 196.842 14.7328 195.706 15.1929 194.544C15.6589 193.384 16.1465 192.33 16.8373 191.289C17.1473 190.778 17.2943 190.228 17.4787 189.661C17.7565 189.239 18.0366 188.818 18.3185 188.398C18.4684 188.057 18.6177 187.714 18.7581 187.369C19.6709 185.239 20.8102 183.201 22.0469 181.244C22.3133 180.811 22.5616 180.371 22.8064 179.926C23.2443 179.13 23.6842 178.335 24.1317 177.544C24.2538 177.327 24.3759 177.11 24.5016 176.886C24.6091 176.725 24.7165 176.565 24.8272 176.4C24.9658 176.4 25.1044 176.4 25.2471 176.4C25.2775 176.235 25.3078 176.07 25.339 175.9C25.4571 175.347 25.4571 175.347 25.6671 174.926C25.8056 174.926 25.9442 174.926 26.087 174.926C26.1389 174.744 26.1909 174.561 26.2444 174.374C26.5233 173.619 26.8609 173.039 27.3467 172.4C27.4853 172.4 27.6239 172.4 27.7666 172.4C27.8462 172.122 27.8462 172.122 27.9274 171.839C28.1943 171.116 28.5091 170.629 28.9739 170.019C29.488 169.332 29.9907 168.648 30.4567 167.927C31.3155 166.617 32.2551 165.362 33.189 164.105C33.3952 163.824 33.5954 163.54 33.7939 163.254C33.8835 163.146 33.9731 163.039 34.0654 162.928C34.204 162.928 34.3426 162.928 34.4853 162.928C34.5024 162.811 34.5194 162.694 34.537 162.574C34.7484 161.922 35.1058 161.529 35.5483 161.007C35.7185 160.803 35.8887 160.6 36.0641 160.39C36.236 160.185 36.4079 159.981 36.5849 159.77C37.3627 158.814 38.1377 157.861 38.842 156.849C39.2501 156.281 39.6555 155.834 40.1542 155.35C40.3231 155.146 40.492 154.941 40.666 154.731C41.204 154.087 41.204 154.087 41.6896 153.613C42.3512 152.934 42.921 152.205 43.5005 151.455C43.8636 151.014 44.2413 150.614 44.646 150.212C45.0544 149.806 45.4602 149.397 45.866 148.988C46.6935 148.155 47.5214 147.323 48.3496 146.491C48.8483 145.99 49.3467 145.488 49.8447 144.987C50.4231 144.404 51.0022 143.823 51.5814 143.241C51.7578 143.063 51.9341 142.885 52.1158 142.702C53.0205 141.795 53.9387 140.918 54.9105 140.083C55.4633 139.607 55.9958 139.111 56.531 138.615C58.2341 137.044 59.9814 135.549 61.78 134.089C61.9681 133.935 62.1562 133.782 62.35 133.624C63.8431 132.413 63.8431 132.413 64.5882 131.931C65.1538 131.581 65.1538 131.581 65.5987 131.089C65.9792 130.721 65.9792 130.721 66.6091 130.721C66.6784 130.513 66.7477 130.304 66.819 130.089C67.2857 129.704 67.2857 129.704 67.882 129.287C68.0901 129.14 68.2982 128.992 68.5127 128.84C68.8175 128.625 68.8175 128.625 69.1286 128.405C69.5746 128.073 70.0178 127.737 70.4605 127.401C71.3753 126.721 71.3753 126.721 72.068 126.721C72.068 126.583 72.068 126.444 72.068 126.3C72.46 126.009 72.8649 125.736 73.2753 125.472C74.1835 124.889 74.1835 124.889 75.0501 124.247C75.4274 123.985 75.4274 123.985 76.0572 123.985C76.0572 123.846 76.0572 123.707 76.0572 123.564C76.4403 123.298 76.837 123.052 77.2383 122.814C77.4883 122.665 77.7382 122.515 77.9879 122.365C78.1841 122.247 78.1841 122.247 78.3842 122.127C78.7903 121.878 79.1884 121.619 79.5855 121.355C79.7153 121.269 79.845 121.184 79.9787 121.095C80.2289 120.929 80.4783 120.761 80.7269 120.592C81.405 120.144 81.966 119.87 82.7759 119.775C82.7759 119.636 82.7759 119.497 82.7759 119.354C82.9389 119.267 83.1018 119.18 83.2697 119.091C84.529 118.416 85.7781 117.729 87.0145 117.012C87.9793 116.455 88.9521 115.929 89.9531 115.44C90.7439 115.044 91.5227 114.627 92.3028 114.21C96.2378 112.115 96.2378 112.115 98.2375 111.339C99.2351 110.947 100.207 110.494 101.18 110.045C102.451 109.46 103.73 108.92 105.032 108.408C105.57 108.193 106.108 107.979 106.646 107.763C106.902 107.661 107.158 107.559 107.422 107.453C107.933 107.246 108.441 107.031 108.946 106.81C109.531 106.564 110.091 106.367 110.7 106.198C111.431 105.986 112.107 105.731 112.802 105.42C113.985 104.94 115.234 104.621 116.457 104.258C116.824 104.148 117.191 104.039 117.558 103.93C117.921 103.822 118.283 103.714 118.646 103.607C119.45 103.368 120.242 103.117 121.025 102.815C121.767 102.529 122.511 102.32 123.285 102.132C123.493 102.082 123.493 102.082 123.705 102.03C124.199 101.909 124.693 101.79 125.188 101.672C125.62 101.568 126.052 101.464 126.484 101.359C127.162 101.196 127.841 101.033 128.519 100.871C129.599 100.612 130.678 100.348 131.755 100.074C132.699 99.8366 133.638 99.6335 134.596 99.4616C135.668 99.2679 136.733 99.0579 137.798 98.8301C139.343 98.5169 140.895 98.3146 142.458 98.1202C143.569 97.9812 144.672 97.8256 145.776 97.6353C148.184 97.2215 150.598 97.047 153.034 96.8805C153.732 96.8311 154.43 96.7759 155.127 96.7185C157.354 96.5357 159.58 96.3753 161.812 96.2778C161.998 96.2694 162.184 96.261 162.376 96.2523C164.329 96.1756 166.269 96.1989 168.229 96.1989Z" fill="url(#paint0_linear_5_7)"/>
<path d="M295.674 0C295.674 31.6762 295.674 63.3523 295.674 95.9883C320.202 95.9883 344.729 95.9883 370 95.9883C370 119.259 370 142.53 370 166.506C345.473 166.506 320.945 166.506 295.674 166.506C295.677 175.527 295.679 184.548 295.682 193.842C295.683 199.212 295.684 204.582 295.685 209.952C295.685 213.102 295.685 216.252 295.686 219.403C295.686 219.784 295.686 220.165 295.686 220.546C295.687 226.611 295.689 232.675 295.691 238.74C295.692 244.978 295.694 251.216 295.694 257.453C295.694 258.336 295.694 259.219 295.694 260.102C295.694 260.275 295.694 260.449 295.694 260.628C295.695 263.415 295.696 266.202 295.697 268.989C295.698 271.796 295.699 274.604 295.698 277.412C295.698 279.076 295.699 280.74 295.7 282.404C295.701 283.653 295.701 284.902 295.7 286.151C295.7 286.652 295.7 287.153 295.701 287.653C295.704 290.254 295.673 292.85 295.579 295.45C295.566 295.801 295.566 295.801 295.553 296.159C295.481 297.994 295.32 299.8 295.084 301.621C295.047 301.922 295.009 302.223 294.972 302.523C294.878 303.279 294.78 304.033 294.682 304.788C294.626 305.217 294.571 305.646 294.517 306.075C294.139 309.044 293.699 311.971 293.04 314.89C292.884 315.612 292.759 316.339 292.63 317.067C292.381 318.428 292.048 319.75 291.68 321.083C291.476 321.854 291.307 322.626 291.147 323.408C290.951 324.358 290.712 325.252 290.387 326.164C290.111 327.023 289.907 327.901 289.698 328.779C289.204 330.83 288.537 332.818 287.847 334.81C287.71 335.208 287.573 335.606 287.436 336.004C286.906 337.538 286.366 339.067 285.806 340.59C285.718 340.831 285.63 341.071 285.539 341.319C285.012 342.716 284.425 344.071 283.79 345.423C283.538 345.973 283.308 346.524 283.09 347.089C282.59 348.367 282.004 349.602 281.416 350.841C281.165 351.374 280.916 351.908 280.667 352.442C279.407 355.135 278.05 357.759 276.601 360.354C276.369 360.778 276.151 361.207 275.938 361.64C275.8 361.64 275.661 361.64 275.518 361.64C275.471 361.81 275.423 361.979 275.374 362.153C275.085 362.939 274.72 363.622 274.305 364.346C274.064 364.771 273.843 365.201 273.629 365.64C273.49 365.64 273.352 365.64 273.209 365.64C273.161 365.779 273.114 365.918 273.065 366.061C272.775 366.724 272.426 367.298 272.037 367.906C271.722 368.404 271.422 368.908 271.122 369.416C270.691 370.137 270.252 370.853 269.797 371.56C269.646 371.795 269.646 371.795 269.492 372.035C269.357 372.204 269.357 372.204 269.22 372.376C269.081 372.376 268.942 372.376 268.8 372.376C268.723 372.65 268.723 372.65 268.646 372.93C268.356 373.702 267.993 374.226 267.487 374.876C267.319 375.094 267.151 375.313 266.977 375.539C266.817 375.746 266.656 375.952 266.49 376.165C266.253 376.475 266.017 376.787 265.782 377.099C265.684 377.229 265.586 377.359 265.485 377.493C265.196 377.885 265.196 377.885 264.863 378.48C264.776 378.619 264.69 378.758 264.601 378.901C264.462 378.901 264.323 378.901 264.181 378.901C264.123 379.024 264.066 379.147 264.007 379.273C263.766 379.734 263.499 380.12 263.183 380.533C262.835 380.989 262.488 381.445 262.153 381.911C261.988 382.14 261.988 382.14 261.819 382.375C261.718 382.516 261.617 382.657 261.513 382.802C261.424 382.904 261.334 383.006 261.241 383.111C261.103 383.111 260.964 383.111 260.821 383.111C260.774 383.261 260.727 383.41 260.678 383.564C260.346 384.284 259.882 384.786 259.338 385.348C258.567 386.167 257.826 386.996 257.121 387.874C256.484 388.664 255.836 389.441 255.166 390.203C255.012 390.377 254.859 390.552 254.7 390.731C254.313 391.11 254.313 391.11 253.893 391.11C253.841 391.241 253.789 391.371 253.735 391.505C253.423 392.037 253.171 392.104 252.633 392.373C252.404 392.78 252.404 392.78 252.213 393.215C251.898 393.584 251.898 393.584 251.583 393.847C251.445 393.847 251.306 393.847 251.163 393.847C251.111 393.977 251.059 394.107 251.006 394.242C250.693 394.774 250.442 394.84 249.903 395.11C249.834 395.249 249.765 395.388 249.693 395.531C249.428 396.063 249.163 396.113 248.644 396.373C248.414 396.78 248.414 396.78 248.224 397.215C247.909 397.583 247.909 397.583 247.594 397.846C247.455 397.846 247.317 397.846 247.174 397.846C247.128 397.963 247.082 398.079 247.035 398.199C246.665 398.844 246.161 399.291 245.612 399.78C245.501 399.881 245.39 399.982 245.275 400.086C244.189 401.061 243.062 401.984 241.925 402.898C241.119 403.552 241.119 403.552 240.359 404.258C239.314 405.306 238.126 406.302 236.886 407.108C236.747 407.108 236.609 407.108 236.466 407.108C236.466 407.247 236.466 407.386 236.466 407.529C236.092 407.842 235.705 408.137 235.311 408.424C235.078 408.596 234.844 408.768 234.61 408.94C234.282 409.179 234.282 409.179 233.947 409.424C233.662 409.638 233.377 409.853 233.094 410.069C232.423 410.572 231.749 411.072 231.073 411.568C230.792 411.775 230.792 411.775 230.506 411.985C229.059 413.002 229.059 413.002 228.488 413.002C228.488 413.141 228.488 413.28 228.488 413.423C227.858 413.844 227.858 413.844 227.228 413.844C227.228 413.983 227.228 414.122 227.228 414.265C226.823 414.544 226.404 414.804 225.981 415.055C225.729 415.206 225.477 415.357 225.226 415.509C225.102 415.583 224.977 415.658 224.849 415.735C224.382 416.021 223.928 416.325 223.475 416.634C222.837 417.066 222.191 417.457 221.518 417.832C221.072 418.094 220.648 418.381 220.22 418.673C219.295 419.298 218.342 419.841 217.36 420.37C216.997 420.567 216.633 420.764 216.271 420.962C216.078 421.067 215.886 421.172 215.687 421.279C215.223 421.537 214.761 421.799 214.301 422.066C214.109 422.177 214.109 422.177 213.912 422.291C213.547 422.504 213.181 422.717 212.816 422.931C212.102 423.322 211.391 423.634 210.641 423.949C210.468 424.053 210.295 424.157 210.116 424.264C209.591 424.58 209.591 424.58 208.883 424.883C208.238 425.161 207.661 425.481 207.057 425.836C206.434 426.17 205.783 426.417 205.126 426.672C204.304 426.993 203.492 427.336 202.678 427.677C202.251 427.857 201.822 428.035 201.394 428.212C200.39 428.627 199.395 429.052 198.411 429.514C196.469 430.408 194.443 431.142 192.408 431.795C191.644 432.052 190.895 432.352 190.145 432.648C189.645 432.79 189.645 432.79 189.015 432.579C189.014 423.87 189.013 415.161 189.012 406.452C189.012 406.281 189.012 406.111 189.012 405.935C189.01 387.664 189.008 369.394 189.006 351.123C189.006 350.717 189.006 350.311 189.006 349.905C189.006 341.381 189.005 332.856 189.005 324.332C189.004 320.05 189.004 315.768 189.004 311.485C189.004 310.839 189.004 310.193 189.004 309.548C189.003 299.606 189.002 289.665 189.001 279.724C189.001 279.404 189.001 279.404 189.001 279.077C189 275.634 189 272.191 188.999 268.747C188.998 258.824 188.997 248.901 188.996 238.977C188.996 238.773 188.996 238.569 188.996 238.358C188.996 233.873 188.996 229.387 188.996 224.902C188.995 223.097 188.995 221.292 188.995 219.487C188.995 219.289 188.995 219.092 188.995 218.888C188.995 212.534 188.994 206.18 188.993 199.826C188.992 193.419 188.991 187.013 188.991 180.607C188.991 179.719 188.991 178.832 188.992 177.944C188.992 177.771 188.992 177.597 188.992 177.417C188.992 174.675 188.991 171.932 188.99 169.19C188.989 166.486 188.989 163.782 188.99 161.078C188.99 159.634 188.99 158.191 188.989 156.747C188.985 151.015 188.997 145.29 189.225 139.562C189.233 139.358 189.241 139.155 189.249 138.945C189.409 134.828 189.751 130.774 190.362 126.698C190.472 125.968 190.578 125.239 190.683 124.509C190.773 123.885 190.864 123.261 190.956 122.637C191 122.34 191.043 122.043 191.087 121.746C191.332 120.072 191.632 118.429 192.026 116.783C192.188 116.096 192.311 115.406 192.427 114.71C192.721 113.052 193.123 111.422 193.529 109.789C193.592 109.537 193.654 109.285 193.718 109.026C194.024 107.811 194.353 106.618 194.762 105.434C194.935 104.919 195.062 104.398 195.183 103.869C195.753 101.529 196.504 99.2597 197.387 97.0203C197.654 96.3307 197.884 95.6336 198.111 94.9301C198.244 94.5431 198.405 94.1663 198.568 93.7912C198.817 93.1985 199.008 92.6432 199.185 92.0283C199.72 90.1946 200.504 88.4905 201.309 86.7625C201.651 86.0099 201.958 85.2479 202.259 84.4782C202.829 83.0402 203.501 81.657 204.196 80.2764C204.449 79.7752 204.699 79.2732 204.948 78.77C206.237 76.1611 207.568 73.5835 209.057 71.0826C209.4 70.4843 209.704 69.8723 210.011 69.2547C210.565 68.2727 211.141 67.3085 211.809 66.3998C212.194 65.8755 212.512 65.3421 212.819 64.7684C213.308 63.8638 213.874 63.0362 214.47 62.1997C215.032 61.4064 215.565 60.5943 216.1 59.7822C216.885 58.5907 216.885 58.5907 217.294 58.0587C217.61 57.6618 217.61 57.6618 217.78 57.0457C217.936 56.8937 218.091 56.7418 218.252 56.5852C218.842 55.9807 219.227 55.3881 219.646 54.6611C219.879 54.3092 219.879 54.3092 220.299 54.0987C220.51 53.7487 220.72 53.3978 220.929 53.0462C221.139 52.8357 221.349 52.6252 221.559 52.4147C221.806 51.9727 221.806 51.9727 221.979 51.5727C222.117 51.5727 222.256 51.5727 222.399 51.5727C222.457 51.4486 222.516 51.3245 222.576 51.1966C222.953 50.4721 223.458 49.859 223.96 49.2177C224.063 49.0827 224.166 48.9477 224.272 48.8086C224.373 48.6801 224.473 48.5517 224.576 48.4193C224.667 48.3023 224.758 48.1853 224.851 48.0647C225.128 47.7837 225.128 47.7837 225.758 47.5732C225.789 47.4505 225.819 47.3279 225.851 47.2015C226.012 46.5567 226.353 46.2214 226.795 45.7313C227.018 45.4789 227.018 45.4789 227.247 45.2215C227.648 44.8367 227.648 44.8367 228.068 44.8367C228.139 44.6022 228.139 44.6022 228.212 44.363C228.541 43.6722 228.94 43.4062 229.537 42.9422C229.607 42.8032 229.676 42.6643 229.747 42.5212C230.042 41.9299 230.487 41.6584 231.007 41.2581C231.676 40.6245 232.287 39.9482 232.897 39.2584C233.695 38.3644 234.519 37.503 235.364 36.6534C235.535 36.4807 235.535 36.4807 235.709 36.3044C236.351 35.6632 237.011 35.0823 237.726 34.5221C238.08 34.1756 238.43 33.8249 238.776 33.4696C239.056 33.1889 239.335 32.9083 239.615 32.6276C239.784 32.4496 239.953 32.2716 240.127 32.0882C240.665 31.5751 240.665 31.5751 241.216 31.2462C241.75 30.9226 241.981 30.5988 242.345 30.1016C242.553 30.0321 242.761 29.9627 242.975 29.8911C243.109 29.7174 243.243 29.5438 243.382 29.3649C243.847 28.7988 243.98 28.7681 244.654 28.6281C244.724 28.4197 244.793 28.2113 244.864 27.9966C245.293 27.6036 245.293 27.6036 245.835 27.1809C246.025 27.033 246.214 26.8851 246.409 26.7328C246.865 26.3877 247.324 26.0504 247.791 25.7206C248.406 25.3092 248.406 25.3092 248.761 24.9221C249.064 24.6286 249.064 24.6286 249.51 24.5233C249.64 24.4886 249.77 24.4539 249.903 24.4181C249.973 24.2097 250.042 24.0013 250.113 23.7866C250.455 23.493 250.455 23.493 250.893 23.1946C251.05 23.0855 251.208 22.9764 251.37 22.864C251.535 22.7517 251.701 22.6393 251.872 22.5236C252.197 22.3005 252.523 22.0769 252.848 21.8526C253.065 21.7049 253.065 21.7049 253.287 21.5541C253.668 21.2717 253.981 20.9662 254.313 20.6291C254.659 20.4131 255.01 20.2032 255.362 19.9976C255.784 19.719 256.203 19.4382 256.622 19.1556C258.804 17.6821 258.804 17.6821 259.352 17.6821C259.352 17.5431 259.352 17.4042 259.352 17.2611C259.775 16.9588 260.193 16.6864 260.638 16.4191C260.757 16.3442 260.877 16.2693 261 16.1921C261.757 15.7297 262.491 15.4048 263.341 15.1561C263.341 15.0171 263.341 14.8782 263.341 14.7351C263.811 14.416 263.811 14.416 264.456 14.0509C264.798 13.8568 264.798 13.8568 265.148 13.6587C265.383 13.5276 265.618 13.3966 265.86 13.2615C266.08 13.137 266.3 13.0124 266.527 12.8841C268.111 11.9985 268.111 11.9985 268.59 11.9985C268.59 11.8596 268.59 11.7207 268.59 11.5775C268.948 11.3977 269.307 11.2179 269.666 11.0381C269.897 10.9223 270.128 10.8064 270.365 10.687C270.85 10.4444 271.335 10.2026 271.82 9.96178C273.261 9.24531 274.687 8.50963 276.099 7.73642C276.937 7.28105 277.788 6.8935 278.668 6.52552C278.944 6.4055 279.219 6.28488 279.495 6.16372C279.705 6.07133 279.705 6.07133 279.919 5.97707C280.061 5.91493 280.202 5.85279 280.347 5.78877C281.158 5.43227 281.969 5.07691 282.783 4.72969C283.475 4.43009 284.155 4.11249 284.835 3.78901C285.763 3.35815 286.676 2.97937 287.65 2.6732C288.999 2.24691 290.317 1.73141 291.626 1.19553C294.549 0 294.549 0 295.674 0Z" fill="url(#paint1_linear_5_7)"/>
<defs>
<linearGradient id="paint0_linear_5_7" x1="84.1146" y1="96.1956" x2="84.1146" y2="433" gradientUnits="userSpaceOnUse">
<stop stop-color="#E47F1F"/>
<stop offset="1" stop-color="#FF7C00"/>
</linearGradient>
<linearGradient id="paint1_linear_5_7" x1="279.494" y1="0" x2="279.494" y2="432.747" gradientUnits="userSpaceOnUse">
<stop stop-color="#0E5448"/>
<stop offset="1" stop-color="#008E76"/>
</linearGradient>
</defs>
</svg>
