<svg width="144" height="168" viewBox="0 0 144 168" fill="none" xmlns="http://www.w3.org/2000/svg">
<path d="M65.473 37.3243C65.473 80.4473 65.473 123.57 65.473 168C62.6023 168 59.9294 167.921 57.1128 167.559C56.7918 167.518 56.4707 167.478 56.1493 167.44C55.2906 167.336 54.4473 167.196 53.6009 167.017C53.2356 166.941 52.869 166.877 52.5009 166.816C51.9922 166.729 51.4944 166.617 50.995 166.488C50.6372 166.395 50.2787 166.314 49.9167 166.239C49.5263 166.157 49.1477 166.061 48.7686 165.937C48.5882 165.885 48.4108 165.844 48.2273 165.805C47.7628 165.704 47.3085 165.571 46.8525 165.438C46.7698 165.414 46.6871 165.39 46.6019 165.365C46.1147 165.223 45.6378 165.064 45.1621 164.888C44.9177 164.798 44.6708 164.721 44.4215 164.646C43.2446 164.289 42.0991 163.865 40.9716 163.374C40.7541 163.28 40.536 163.191 40.3154 163.105C39.9427 162.957 39.5747 162.8 39.2071 162.64C39.15 162.616 39.0929 162.591 39.034 162.566C38.7884 162.458 38.5677 162.35 38.344 162.201C38.2699 162.178 38.1957 162.154 38.1193 162.13C37.8708 162.044 37.6664 161.931 37.4414 161.797C37.2693 161.705 37.0971 161.637 36.914 161.568C36.4351 161.384 35.9915 161.139 35.5415 160.894C35.2906 160.758 35.0364 160.631 34.7793 160.507C33.7965 160.021 32.8521 159.45 31.9136 158.884C31.7167 158.766 31.5193 158.648 31.3218 158.531C30.9572 158.313 30.5979 158.086 30.2403 157.857C30.0787 157.754 29.916 157.652 29.7526 157.552C29.6704 157.501 29.5883 157.45 29.5036 157.398C29.4283 157.352 29.353 157.306 29.2754 157.259C29.1937 157.199 29.1937 157.199 29.1104 157.138C29.1104 157.084 29.1104 157.03 29.1104 156.974C29.0195 156.962 29.0195 156.962 28.9268 156.949C28.6782 156.887 28.564 156.807 28.3698 156.642C27.9901 156.332 27.5882 156.069 27.1745 155.806C27.1122 155.76 27.05 155.715 26.9858 155.668C26.9858 155.614 26.9858 155.56 26.9858 155.504C26.9133 155.486 26.8409 155.467 26.7662 155.448C26.4529 155.324 26.3243 155.17 26.087 154.932C25.8981 154.785 25.7019 154.65 25.5048 154.514C24.9357 154.12 24.9357 154.12 24.6978 153.871C24.6169 153.833 24.6169 153.833 24.5344 153.794C24.3366 153.689 24.2579 153.559 24.1258 153.381C24.0449 153.354 23.964 153.327 23.8807 153.299C23.7428 153.165 23.607 153.028 23.4721 152.891C23.2239 152.673 22.9692 152.463 22.7148 152.253C22.583 152.143 22.4552 152.027 22.3281 151.911C22.3281 151.857 22.3281 151.803 22.3281 151.747C22.2793 151.739 22.2304 151.73 22.18 151.722C21.9757 151.658 21.8889 151.586 21.7561 151.421C21.7561 151.367 21.7561 151.313 21.7561 151.257C21.6971 151.239 21.6382 151.22 21.5774 151.201C21.2508 151.049 21.0088 150.838 20.8573 150.507C20.7857 150.339 20.7857 150.339 20.5866 150.287C20.3369 150.183 20.2248 150.045 20.0606 149.835C19.8508 149.569 19.6091 149.344 19.3456 149.134C18.9829 148.844 18.6948 148.515 18.4059 148.154C18.2714 148.016 18.1352 147.88 17.9973 147.745C17.8611 147.609 17.7249 147.473 17.5887 147.337C17.5264 147.278 17.464 147.219 17.3998 147.158C17.1415 146.888 16.9153 146.599 16.6844 146.305C16.5577 146.15 16.4312 146.01 16.2864 145.872C16.1179 145.703 16.1179 145.703 16.0362 145.458C15.9822 145.458 15.9283 145.458 15.8727 145.458C15.7503 145.323 15.6337 145.183 15.5203 145.04C15.455 144.958 15.3897 144.876 15.3224 144.792C15.2613 144.715 15.2003 144.639 15.1373 144.56C15.0543 144.463 14.9709 144.366 14.8871 144.269C14.7287 144.07 14.7287 144.07 14.7287 143.907C14.6478 143.88 14.5669 143.853 14.4836 143.825C14.4276 143.717 14.3734 143.608 14.3202 143.498C14.2113 143.389 14.1024 143.28 13.9933 143.172C13.8948 143.049 13.7987 142.923 13.7048 142.797C13.652 142.726 13.5992 142.655 13.5448 142.582C13.4906 142.509 13.4364 142.436 13.3805 142.36C13.2724 142.215 13.1643 142.069 13.0562 141.924C13.0059 141.856 12.9557 141.789 12.9039 141.719C12.7962 141.576 12.6843 141.436 12.571 141.298C12.4408 141.13 12.4408 141.13 12.359 140.885C12.2515 140.775 12.1423 140.666 12.0322 140.558C11.7151 140.153 11.4172 139.76 11.2968 139.251C11.2428 139.251 11.1889 139.251 11.1333 139.251C10.9922 139.061 10.9922 139.061 10.8371 138.812C10.7855 138.731 10.7339 138.649 10.6807 138.565C10.5613 138.353 10.5613 138.353 10.5613 138.19C10.5074 138.19 10.4535 138.19 10.3979 138.19C10.3645 138.12 10.3311 138.05 10.2967 137.978C10.1503 137.695 9.98562 137.43 9.81059 137.164C9.74519 137.063 9.67986 136.962 9.61461 136.861C9.58177 136.811 9.54893 136.76 9.5151 136.708C9.36281 136.472 9.21347 136.233 9.06495 135.995C9.01471 135.914 8.96446 135.833 8.9127 135.75C8.7713 135.508 8.64589 135.262 8.52198 135.01C8.37869 134.726 8.22055 134.45 8.06396 134.172C7.59919 133.342 7.15685 132.501 6.72079 131.656C6.6907 131.598 6.66062 131.539 6.62962 131.479C6.35629 130.948 6.10415 130.422 5.90365 129.859C5.72748 129.441 5.53327 129.03 5.34187 128.619C4.95199 127.774 4.58901 126.928 4.28374 126.049C4.19593 125.799 4.10336 125.551 4.00981 125.303C3.6237 124.265 3.26819 123.217 2.96121 122.153C2.87495 121.856 2.7839 121.564 2.67212 121.275C2.55468 120.97 2.47174 120.663 2.39506 120.344C2.36698 120.229 2.33889 120.114 2.3108 119.999C2.29679 119.941 2.28278 119.883 2.26834 119.823C2.20286 119.552 2.13563 119.282 2.06821 119.012C2.055 118.959 2.0418 118.905 2.02819 118.85C1.95432 118.554 1.87741 118.259 1.79689 117.965C1.59454 117.222 1.42643 116.486 1.3015 115.727C1.25266 115.432 1.18991 115.143 1.12339 114.852C1.00594 114.317 0.927227 113.781 0.853533 113.239C0.799406 112.843 0.74087 112.449 0.673327 112.055C0.478789 110.919 0.358451 109.793 0.283551 108.643C0.259609 108.295 0.229992 107.948 0.200281 107.6C-0.0644233 104.467 -0.0590551 101.319 0.17102 98.1841C0.183956 98.003 0.195915 97.8219 0.207583 97.6407C0.320998 95.8848 0.530537 94.1609 0.827154 92.4266C0.891953 92.0473 0.952661 91.6677 1.01104 91.2874C1.12182 90.5676 1.25301 89.8569 1.40939 89.1454C1.43973 89.0036 1.43973 89.0036 1.47068 88.8589C1.58142 88.3481 1.70554 87.844 1.84641 87.3407C1.91442 87.0901 1.96697 86.8377 2.01714 86.5829C2.11668 86.1048 2.24893 85.6455 2.39794 85.1808C2.46093 84.9744 2.51096 84.7728 2.55338 84.5615C2.6273 84.2014 2.75542 83.8689 2.88535 83.5256C2.95436 83.3276 3.00308 83.1385 3.04367 82.9332C3.11287 82.5892 3.23547 82.2829 3.37052 81.9598C3.44847 81.7635 3.51124 81.5689 3.5697 81.3661C4.02211 79.8134 4.64857 78.2779 5.33165 76.8129C5.53552 76.3728 5.73385 75.9321 5.91291 75.4812C6.09426 75.0312 6.28403 74.6224 6.55289 74.2185C6.67355 74.0202 6.73074 73.8068 6.8025 73.5868C6.91065 73.4229 7.01964 73.2596 7.12936 73.0968C7.18772 72.9642 7.24581 72.8315 7.30045 72.6973C7.6557 71.8709 8.09912 71.0801 8.58041 70.3212C8.68408 70.1531 8.78072 69.9825 8.87599 69.8095C9.04645 69.5006 9.21762 69.1923 9.39181 68.8855C9.43931 68.8012 9.48682 68.7169 9.53576 68.63C9.57758 68.5678 9.6194 68.5056 9.66249 68.4414C9.71642 68.4414 9.77035 68.4414 9.82591 68.4414C9.83771 68.3774 9.84951 68.3134 9.86166 68.2475C9.90763 68.0331 9.90763 68.0331 9.98934 67.8697C10.0433 67.8697 10.0972 67.8697 10.1528 67.8697C10.173 67.799 10.1932 67.7282 10.2141 67.6553C10.3226 67.3625 10.454 67.1377 10.6431 66.8897C10.697 66.8897 10.7509 66.8897 10.8065 66.8897C10.8374 66.7818 10.8374 66.7818 10.869 66.6718C10.9729 66.3915 11.0954 66.2023 11.2763 65.9658C11.4764 65.6992 11.6721 65.4337 11.8534 65.1541C12.1876 64.6457 12.5533 64.1588 12.9168 63.6711C12.9971 63.5624 13.0749 63.4519 13.1522 63.3411C13.1871 63.2993 13.222 63.2575 13.2579 63.2144C13.3118 63.2144 13.3658 63.2144 13.4213 63.2144C13.428 63.1691 13.4346 63.1239 13.4414 63.0772C13.5237 62.8241 13.6628 62.6717 13.835 62.4692C13.9013 62.3902 13.9675 62.3112 14.0358 62.2299C14.1027 62.1505 14.1695 62.0711 14.2385 61.9893C14.5411 61.6186 14.8428 61.2487 15.1169 60.8561C15.2757 60.6356 15.4335 60.4622 15.6276 60.2742C15.6933 60.195 15.7591 60.1159 15.8268 60.0343C16.0362 59.7842 16.0362 59.7842 16.2251 59.6004C16.4826 59.3371 16.7044 59.0541 16.9299 58.7633C17.0712 58.592 17.2182 58.4369 17.3757 58.2809C17.5347 58.1233 17.6926 57.9647 17.8506 57.8061C18.1726 57.4829 18.4948 57.1599 18.8172 56.837C19.0112 56.6426 19.2052 56.4482 19.399 56.2535C19.6241 56.0275 19.8495 55.8018 20.0749 55.5761C20.1436 55.5071 20.2122 55.4381 20.2829 55.367C20.635 55.015 20.9924 54.6749 21.3706 54.351C21.5857 54.1663 21.7929 53.9736 22.0013 53.7813C22.6641 53.172 23.3441 52.5916 24.0441 52.0253C24.1173 51.9657 24.1905 51.9061 24.266 51.8447C24.8471 51.3749 24.8471 51.3749 25.137 51.1882C25.3571 51.0523 25.3571 51.0523 25.5303 50.8615C25.6784 50.7185 25.6784 50.7185 25.9235 50.7185C25.9505 50.6377 25.9775 50.5568 26.0052 50.4735C26.1869 50.3239 26.1869 50.3239 26.4189 50.1622C26.4999 50.105 26.5809 50.0478 26.6644 49.9889C26.783 49.9054 26.783 49.9054 26.9041 49.8202C27.0777 49.6912 27.2502 49.5609 27.4225 49.4303C27.7785 49.1668 27.7785 49.1668 28.0481 49.1668C28.0481 49.1129 28.0481 49.059 28.0481 49.0034C28.2006 48.8905 28.3582 48.7844 28.5179 48.6818C28.8714 48.4556 28.8714 48.4556 29.2087 48.2068C29.3555 48.105 29.3555 48.105 29.6007 48.105C29.6007 48.0511 29.6007 47.9972 29.6007 47.9417C29.7497 47.8385 29.9041 47.7429 30.0603 47.6507C30.1576 47.5928 30.2549 47.5347 30.352 47.4765C30.4284 47.4309 30.4284 47.4309 30.5063 47.3843C30.6643 47.2875 30.8193 47.187 30.9738 47.0848C31.0243 47.0515 31.0748 47.0181 31.1268 46.9838C31.2242 46.9192 31.3213 46.8542 31.418 46.7887C31.6819 46.6149 31.9003 46.5086 32.2155 46.4716C32.2155 46.4177 32.2155 46.3638 32.2155 46.3082C32.2789 46.2746 32.3423 46.2409 32.4077 46.2062C32.8978 45.9443 33.3839 45.6776 33.8651 45.3996C34.2406 45.1833 34.6192 44.9795 35.0088 44.7896C35.3166 44.636 35.6196 44.474 35.9233 44.3124C37.4547 43.4996 37.4547 43.4996 38.233 43.1986C38.6212 43.0464 38.9994 42.8707 39.3782 42.6965C39.8727 42.4695 40.3707 42.2598 40.8772 42.0613C41.0866 41.9781 41.296 41.8947 41.5053 41.8112C41.6051 41.7715 41.7048 41.7318 41.8076 41.6909C42.0064 41.6103 42.2041 41.5271 42.4007 41.4414C42.6282 41.3458 42.8461 41.2693 43.0834 41.2037C43.3676 41.1215 43.6308 41.0227 43.9012 40.9019C44.3619 40.7159 44.8479 40.5919 45.3239 40.451C45.4668 40.4086 45.6095 40.3662 45.7523 40.3238C45.8934 40.2818 46.0346 40.2401 46.1758 40.1987C46.4888 40.1058 46.7968 40.0086 47.1015 39.8912C47.3905 39.7803 47.6799 39.6993 47.9812 39.6264C48.062 39.6067 48.062 39.6067 48.1445 39.5866C48.3368 39.5398 48.5292 39.4938 48.7217 39.4478C48.8899 39.4074 49.0581 39.367 49.2263 39.3265C49.4903 39.2632 49.7542 39.1999 50.0182 39.1369C50.4387 39.0366 50.8585 38.9342 51.2775 38.8279C51.645 38.7357 52.0106 38.6569 52.3835 38.5902C52.8005 38.515 53.2151 38.4336 53.6296 38.3452C54.2307 38.2236 54.8347 38.1452 55.443 38.0697C55.8754 38.0158 56.305 37.9554 56.7344 37.8816C57.6716 37.721 58.6112 37.6533 59.5593 37.5888C59.831 37.5696 60.1024 37.5482 60.3739 37.5259C61.2406 37.455 62.1068 37.3927 62.9756 37.3549C63.048 37.3516 63.1203 37.3484 63.1948 37.345C63.9552 37.3153 64.7102 37.3243 65.473 37.3243Z" fill="#F2F2F2"/>
<path d="M115.073 0C115.073 12.2901 115.073 24.5801 115.073 37.2426C124.619 37.2426 134.165 37.2426 144 37.2426C144 46.2715 144 55.3003 144 64.6028C134.454 64.6028 124.908 64.6028 115.073 64.6028C115.074 68.1029 115.075 71.6029 115.076 75.2091C115.077 77.2925 115.077 79.3759 115.077 81.4593C115.077 82.6816 115.078 83.9039 115.078 85.1262C115.078 85.274 115.078 85.4218 115.078 85.5697C115.078 87.9228 115.079 90.2759 115.08 92.629C115.08 95.0492 115.081 97.4694 115.081 99.8896C115.081 100.232 115.081 100.575 115.081 100.917C115.081 100.984 115.081 101.052 115.081 101.121C115.081 102.203 115.082 103.284 115.082 104.365C115.083 105.454 115.083 106.544 115.083 107.633C115.083 108.279 115.083 108.925 115.083 109.57C115.084 110.055 115.083 110.539 115.083 111.024C115.083 111.218 115.083 111.413 115.084 111.607C115.085 112.616 115.073 113.623 115.036 114.632C115.031 114.768 115.031 114.768 115.026 114.907C114.998 115.619 114.936 116.32 114.843 117.026C114.829 117.143 114.814 117.26 114.8 117.376C114.763 117.669 114.725 117.962 114.687 118.255C114.665 118.421 114.644 118.588 114.623 118.754C114.476 119.906 114.304 121.042 114.048 122.175C113.987 122.455 113.939 122.737 113.888 123.019C113.791 123.547 113.662 124.06 113.519 124.577C113.439 124.876 113.374 125.176 113.311 125.479C113.235 125.848 113.142 126.195 113.015 126.548C112.908 126.882 112.829 127.223 112.747 127.563C112.555 128.359 112.296 129.13 112.027 129.903C111.973 130.058 111.92 130.212 111.867 130.366C111.661 130.962 111.451 131.555 111.233 132.146C111.198 132.239 111.164 132.332 111.129 132.429C110.924 132.971 110.695 133.496 110.448 134.021C110.35 134.235 110.26 134.448 110.176 134.667C109.981 135.163 109.753 135.642 109.524 136.123C109.426 136.33 109.329 136.537 109.233 136.744C108.742 137.789 108.214 138.807 107.65 139.814C107.56 139.979 107.475 140.145 107.392 140.313C107.338 140.313 107.284 140.313 107.229 140.313C107.21 140.379 107.192 140.444 107.173 140.512C107.06 140.817 106.918 141.082 106.756 141.363C106.663 141.528 106.577 141.695 106.493 141.865C106.439 141.865 106.385 141.865 106.33 141.865C106.311 141.919 106.293 141.973 106.274 142.028C106.161 142.286 106.025 142.508 105.874 142.744C105.751 142.937 105.634 143.133 105.518 143.33C105.35 143.61 105.179 143.888 105.002 144.162C104.943 144.253 104.943 144.253 104.883 144.346C104.831 144.412 104.831 144.412 104.777 144.478C104.723 144.478 104.67 144.478 104.614 144.478C104.584 144.585 104.584 144.585 104.554 144.693C104.441 144.993 104.3 145.196 104.103 145.448C104.038 145.533 103.972 145.618 103.905 145.706C103.842 145.786 103.78 145.866 103.715 145.948C103.623 146.069 103.531 146.19 103.439 146.311C103.401 146.361 103.363 146.412 103.324 146.464C103.212 146.616 103.212 146.616 103.082 146.847C103.048 146.901 103.014 146.955 102.98 147.01C102.926 147.01 102.872 147.01 102.816 147.01C102.794 147.058 102.772 147.105 102.749 147.154C102.655 147.333 102.551 147.483 102.428 147.643C102.292 147.82 102.158 147.997 102.027 148.178C101.963 148.267 101.963 148.267 101.897 148.358C101.858 148.413 101.819 148.467 101.778 148.524C101.743 148.563 101.708 148.603 101.672 148.644C101.618 148.644 101.564 148.644 101.509 148.644C101.49 148.702 101.472 148.759 101.453 148.819C101.324 149.099 101.143 149.293 100.932 149.511C100.631 149.829 100.343 150.151 100.069 150.492C99.8208 150.798 99.5685 151.099 99.3077 151.395C99.2479 151.463 99.1882 151.53 99.1267 151.6C98.9757 151.747 98.9757 151.747 98.8123 151.747C98.792 151.798 98.7718 151.848 98.751 151.9C98.6294 152.107 98.5314 152.133 98.322 152.237C98.2328 152.395 98.2328 152.395 98.1586 152.564C98.036 152.707 98.036 152.707 97.9134 152.809C97.8595 152.809 97.8055 152.809 97.75 152.809C97.7298 152.859 97.7095 152.91 97.6887 152.962C97.5672 153.169 97.4691 153.194 97.2597 153.299C97.2327 153.353 97.2058 153.407 97.178 153.462C97.0747 153.669 96.9714 153.688 96.7694 153.789C96.6802 153.947 96.6802 153.947 96.606 154.116C96.4834 154.259 96.4834 154.259 96.3608 154.361C96.3069 154.361 96.253 154.361 96.1974 154.361C96.1796 154.406 96.1618 154.451 96.1435 154.498C95.9992 154.748 95.8031 154.921 95.5897 155.111C95.5463 155.15 95.503 155.189 95.4583 155.23C95.0356 155.608 94.597 155.966 94.1546 156.321C93.8409 156.574 93.8409 156.574 93.5452 156.848C93.1383 157.255 92.6762 157.641 92.1934 157.954C92.1395 157.954 92.0856 157.954 92.03 157.954C92.03 158.008 92.03 158.062 92.03 158.118C91.8846 158.239 91.7337 158.353 91.5806 158.465C91.4896 158.531 91.3986 158.598 91.3077 158.665C91.1799 158.758 91.1799 158.758 91.0494 158.853C90.9386 158.936 90.8279 159.019 90.7175 159.103C90.4564 159.298 90.194 159.492 89.931 159.685C89.8218 159.765 89.8218 159.765 89.7104 159.846C89.1472 160.241 89.1472 160.241 88.9249 160.241C88.9249 160.295 88.9249 160.349 88.9249 160.404C88.6797 160.568 88.6797 160.568 88.4346 160.568C88.4346 160.622 88.4346 160.676 88.4346 160.731C88.2769 160.839 88.1141 160.94 87.9494 161.037C87.8514 161.096 87.7534 161.155 87.6555 161.214C87.6071 161.242 87.5587 161.271 87.5089 161.301C87.3269 161.412 87.1503 161.53 86.974 161.65C86.7258 161.818 86.4742 161.97 86.2124 162.115C86.0388 162.217 85.8738 162.328 85.7074 162.441C85.3474 162.684 84.9763 162.894 84.5941 163.1C84.4527 163.176 84.3114 163.253 84.1702 163.329C84.0953 163.37 84.0204 163.411 83.9432 163.453C83.7623 163.553 83.5827 163.654 83.4038 163.758C83.3288 163.801 83.3288 163.801 83.2524 163.845C83.11 163.928 82.9678 164.01 82.8257 164.093C82.5478 164.245 82.2709 164.366 81.9792 164.488C81.9118 164.529 81.8444 164.569 81.7749 164.611C81.5706 164.733 81.5706 164.733 81.2949 164.851C81.044 164.959 80.8193 165.083 80.5843 165.221C80.342 165.35 80.0886 165.446 79.8326 165.545C79.5128 165.669 79.1967 165.802 78.8802 165.935C78.7137 166.004 78.5471 166.074 78.3803 166.142C77.9895 166.303 77.6023 166.468 77.2194 166.647C76.4636 166.994 75.675 167.279 74.8832 167.532C74.5859 167.632 74.2945 167.749 74.0025 167.863C73.8078 167.918 73.8078 167.918 73.5627 167.837C73.5622 164.458 73.5618 161.079 73.5614 157.699C73.5614 157.633 73.5614 157.567 73.5614 157.499C73.5605 150.41 73.5597 143.321 73.5592 136.232C73.5592 136.075 73.5592 135.917 73.5592 135.76C73.559 132.453 73.5587 129.145 73.5585 125.838C73.5584 124.176 73.5583 122.515 73.5582 120.853C73.5582 120.603 73.5582 120.352 73.5582 120.102C73.5579 116.245 73.5576 112.387 73.5571 108.53C73.5571 108.406 73.5571 108.406 73.557 108.279C73.5569 106.943 73.5567 105.607 73.5565 104.271C73.556 100.421 73.5555 96.5712 73.5552 92.721C73.5552 92.6417 73.5552 92.5625 73.5552 92.4808C73.5551 90.7405 73.5551 89.0002 73.555 87.2599C73.555 86.5595 73.555 85.8592 73.5549 85.1589C73.5549 85.0822 73.5549 85.0056 73.5549 84.9266C73.5548 82.4612 73.5545 79.9959 73.554 77.5305C73.5535 75.0449 73.5533 72.5593 73.5534 70.0737C73.5534 69.7294 73.5534 69.3851 73.5534 69.0408C73.5535 68.9733 73.5535 68.9058 73.5535 68.8363C73.5535 67.7722 73.5532 66.7081 73.5529 65.644C73.5525 64.5949 73.5525 63.5458 73.5527 62.4968C73.5529 61.9367 73.5529 61.3766 73.5525 60.8165C73.5511 58.5925 73.5556 56.3713 73.6444 54.1488C73.6475 54.0698 73.6505 53.9908 73.6537 53.9094C73.7159 52.3119 73.8491 50.7393 74.087 49.1575C74.1295 48.8745 74.1708 48.5914 74.2117 48.3083C74.2467 48.0661 74.2823 47.824 74.3181 47.5819C74.3351 47.4668 74.352 47.3516 74.3688 47.2365C74.4643 46.5868 74.581 45.9492 74.7346 45.3107C74.7976 45.0441 74.8454 44.7765 74.8905 44.5063C75.0049 43.8632 75.1616 43.2308 75.3195 42.5972C75.3438 42.4995 75.368 42.4017 75.393 42.301C75.5121 41.8297 75.64 41.3667 75.7992 40.9073C75.8665 40.7075 75.9159 40.5056 75.963 40.3002C76.1849 39.3923 76.4772 38.5118 76.821 37.643C76.9248 37.3754 77.0143 37.105 77.1026 36.832C77.1543 36.6819 77.2171 36.5357 77.2807 36.3901C77.3775 36.1602 77.4519 35.9447 77.5207 35.7061C77.7287 34.9947 78.0341 34.3335 78.3474 33.663C78.4805 33.371 78.5998 33.0754 78.717 32.7768C78.9388 32.2188 79.2003 31.6822 79.471 31.1465C79.5692 30.952 79.6667 30.7573 79.7634 30.562C80.2652 29.5498 80.7831 28.5497 81.3628 27.5794C81.4964 27.3473 81.6145 27.1098 81.7341 26.8702C81.9497 26.4892 82.1737 26.1151 82.4337 25.7625C82.5835 25.5591 82.7075 25.3521 82.827 25.1296C83.0172 24.7786 83.2373 24.4575 83.4692 24.1329C83.6881 23.8251 83.8956 23.51 84.1038 23.1949C84.4092 22.7327 84.4092 22.7327 84.5685 22.5263C84.6914 22.3723 84.6914 22.3723 84.7575 22.1332C84.8182 22.0742 84.8788 22.0153 84.9413 21.9545C85.1708 21.72 85.3208 21.4901 85.4837 21.208C85.5746 21.0715 85.5746 21.0715 85.738 20.9898C85.8203 20.854 85.902 20.7178 85.9832 20.5814C86.0649 20.4998 86.1466 20.4181 86.2283 20.3364C86.3244 20.1649 86.3244 20.1649 86.3918 20.0097C86.4457 20.0097 86.4996 20.0097 86.5552 20.0097C86.5779 19.9616 86.6007 19.9134 86.6242 19.8638C86.771 19.5827 86.9675 19.3448 87.1629 19.096C87.203 19.0436 87.2431 18.9913 87.2844 18.9373C87.3234 18.8874 87.3624 18.8376 87.4026 18.7862C87.438 18.7408 87.4733 18.6954 87.5097 18.6487C87.6175 18.5396 87.6175 18.5396 87.8626 18.4579C87.8745 18.4104 87.8864 18.3628 87.8987 18.3137C87.9613 18.0636 88.0942 17.9335 88.2661 17.7433C88.3531 17.6454 88.3531 17.6454 88.4419 17.5455C88.598 17.3962 88.598 17.3962 88.7615 17.3962C88.7893 17.3052 88.7893 17.3052 88.8176 17.2124C88.9456 16.9444 89.101 16.8412 89.3335 16.6612C89.3604 16.6073 89.3874 16.5534 89.4152 16.4978C89.5299 16.2684 89.703 16.1631 89.9055 16.0078C90.1659 15.7619 90.4034 15.4995 90.6409 15.2319C90.9515 14.885 91.2724 14.5508 91.601 14.2212C91.6675 14.1542 91.6675 14.1542 91.7354 14.0858C91.9852 13.837 92.242 13.6116 92.5203 13.3943C92.6582 13.2598 92.7944 13.1237 92.9289 12.9859C93.0378 12.877 93.1468 12.7681 93.2557 12.6592C93.3214 12.5901 93.3872 12.5211 93.4549 12.4499C93.6643 12.2509 93.6643 12.2509 93.8788 12.1232C94.0863 11.9977 94.1765 11.8721 94.318 11.6791C94.3989 11.6522 94.4798 11.6252 94.5631 11.5975C94.6154 11.5301 94.6676 11.4627 94.7215 11.3933C94.9027 11.1737 94.9542 11.1618 95.2169 11.1074C95.2438 11.0266 95.2708 10.9457 95.2986 10.8624C95.4652 10.7099 95.4652 10.7099 95.6765 10.5459C95.7501 10.4886 95.8237 10.4312 95.8996 10.3721C96.0771 10.2382 96.2557 10.1073 96.4375 9.97934C96.6768 9.81973 96.6768 9.81973 96.8151 9.66956C96.9328 9.55566 96.9328 9.55566 97.1065 9.51483C97.157 9.50135 97.2076 9.48788 97.2597 9.47399C97.2867 9.39314 97.3136 9.31228 97.3414 9.22897C97.4743 9.11508 97.4743 9.11508 97.6446 8.99927C97.706 8.95695 97.7673 8.91463 97.8304 8.87102C97.8949 8.82743 97.9593 8.78385 98.0258 8.73894C98.1525 8.65238 98.2791 8.56561 98.4056 8.47861C98.4902 8.42128 98.4902 8.42128 98.5765 8.3628C98.7247 8.25323 98.8465 8.1347 98.9757 8.00389C99.1106 7.92008 99.247 7.83866 99.3843 7.75887C99.5482 7.65078 99.7116 7.54185 99.8745 7.43218C100.724 6.86048 100.724 6.86048 100.937 6.86048C100.937 6.80657 100.937 6.75267 100.937 6.69713C101.102 6.57986 101.264 6.47419 101.437 6.37044C101.484 6.34138 101.53 6.31233 101.578 6.28239C101.873 6.10297 102.158 5.97692 102.489 5.88041C102.489 5.8265 102.489 5.7726 102.489 5.71706C102.672 5.59328 102.672 5.59328 102.923 5.45163C103.057 5.3763 103.057 5.3763 103.193 5.29945C103.284 5.2486 103.376 5.19775 103.47 5.14536C103.556 5.09703 103.641 5.04871 103.729 4.99892C104.346 4.65532 104.346 4.65532 104.532 4.65532C104.532 4.60142 104.532 4.54752 104.532 4.49198C104.672 4.42222 104.811 4.35246 104.951 4.28269C105.041 4.23774 105.131 4.19278 105.223 4.14647C105.412 4.05233 105.601 3.95852 105.79 3.86508C106.35 3.58709 106.905 3.30166 107.455 3.00166C107.781 2.82498 108.112 2.67461 108.454 2.53184C108.562 2.48527 108.669 2.43848 108.776 2.39147C108.858 2.35562 108.858 2.35562 108.942 2.31905C108.997 2.29494 109.052 2.27083 109.108 2.24599C109.424 2.10767 109.739 1.96979 110.056 1.83508C110.325 1.71883 110.59 1.59561 110.855 1.4701C111.216 1.30293 111.571 1.15597 111.95 1.03717C112.475 0.871781 112.988 0.671773 113.498 0.463853C114.635 0 114.635 0 115.073 0Z" fill="#F2F2F2"/>
</svg>
