<?xml version="1.0" encoding="UTF-8"?>
<svg id="Layer_2" data-name="Layer 2" xmlns="http://www.w3.org/2000/svg" viewBox="0 0 1110.36 413.35">
  <defs>
    <style>
      .cls-1 {
        fill: #aaabae;
      }

      .cls-1, .cls-2, .cls-3, .cls-4 {
        stroke-width: 0px;
      }

      .cls-2 {
        fill: #2372b5;
      }

      .cls-3 {
        fill: #42bb9f;
      }

      .cls-4 {
        fill: #308ecd;
      }
    </style>
  </defs>
  <g id="Layer_1-2" data-name="Layer 1">
    <g>
      <g>
        <path class="cls-3" d="M144.79,46.68l-36.64-21.75c-48.19,80.3,5.4,168.85,59.48,159.85,77.14-12.85,179.23-106.32,245.36-64.28-106.47-67.69-243.13,47.16-286.32,47.16-32.98,0-4.25-96.23,18.12-120.97Z"/>
        <path class="cls-4" d="M294.1,143.68s-87.47,43.48-113.93,48.78C67.21,215.17,40.61,117.8,47.07,27.33L0,0c5.88,67.37,45.41,139.5,91.05,179.42,39.2,34.28,78.27,45.36,121.15,38.41,69.83-11.35,153.64-120.86,200.78-94.94,0,0-30.46-27.31-118.89,20.79Z"/>
        <path class="cls-2" d="M383.65,177.54c0-21.26,15.18-25.61,26.82-25.43,0,0,43.54,1.18,54.33,2.67v19.41h-48.76c-8.78,0-8.78,4.85-8.78,9.37v19.07l49.96,1.67v19.43l-49.96,1.5v19.07c0,8.86,5.58,8.7,10.45,8.7h47.08v19.25c-9.62,1.34-52.65,2.85-52.65,2.85-10.96.5-28.51-2.01-28.51-24.6v-72.96Z"/>
        <g>
          <polygon class="cls-2" points="561.31 152.11 540.89 235.78 520.31 152.11 487.41 152.11 476.61 274.59 499.89 274.59 507.16 192.76 527.91 274.59 554.23 274.59 574.13 192.76 582.24 274.59 605.52 274.59 594.05 152.11 561.31 152.11"/>
          <path class="cls-2" d="M691.57,211.01c11.98-2.18,16.87-14.89,16.87-26.1,0-17.74-9.28-32.8-34.75-32.8h-50.95v122.48h51.3c25.97,0,36.44-13.22,36.44-35.97,0-15.56-8.59-25.76-18.9-27.61ZM646.34,172.85h25.84c6.05,0,12.98,2.51,12.98,13.88,0,8.71-4.39,13.89-12.98,13.89h-25.84v-27.78ZM673.18,253.84h-26.83v-33.46h26.83c9.96,0,13.68,8.2,13.68,17.23,0,12.89-6.58,16.23-13.68,16.23Z"/>
          <path class="cls-2" d="M810.69,190.26c0-29.29-14.34-38.15-33.75-38.15h-53.99v122.48h23.62v-46.4h20.34l.41.05,20.41,46.35h26.66l-23.45-48.19c6.92-2.17,19.74-5.86,19.74-36.13ZM774.76,207.5h-28v-34.65h28c7.41,0,12.14,3.53,12.14,17.41,0,14.88-4.04,17.24-12.14,17.24Z"/>
          <path class="cls-2" d="M864.18,152.11l-41.66,122.48h25.3l8.92-27.1h40.51l8.76,27.1h25.15l-40.15-122.48h-26.83ZM863.01,226.74l14.85-43.84,13.82,43.84h-28.67Z"/>
          <path class="cls-2" d="M995.29,152.11h-53.16v122.48h23.62v-45.14h31.29c14.01.18,32.5-3.72,32.5-39.53,0-32.97-18.74-37.81-34.25-37.81ZM993.42,208.65h-27.67v-35.8h27.67c5.92,0,12.16,2.86,12.31,17.23,0,14.74-4.88,18.57-12.31,18.57Z"/>
          <rect class="cls-2" x="1045.4" y="152.11" width="23.62" height="122.48"/>
          <rect class="cls-2" x="1086.73" y="152.11" width="23.64" height="122.48"/>
        </g>
      </g>
      <g>
        <path class="cls-1" d="M388.33,341.24v-38.11h23.19v3.75h-18.95v13.16h15.64v3.69h-15.64v13.77h18.95v3.75h-23.19Z"/>
        <path class="cls-1" d="M422.2,341.24h-4.13v-27.54h4.08v1.93c2.75-1.65,5.43-2.48,8.04-2.48,3.41,0,5.8.94,7.16,2.81,1.21-.73,2.78-1.39,4.71-1.96,1.93-.57,3.63-.85,5.09-.85,3.67,0,6.14.98,7.41,2.95,1.27,1.96,1.9,5.5,1.9,10.6v14.54h-4.13v-14.43c0-3.82-.37-6.43-1.1-7.85-.74-1.41-2.3-2.12-4.68-2.12-1.21,0-2.46.17-3.75.52-1.28.35-2.28.69-2.97,1.02l-1.05.5c.48,1.21.72,3.89.72,8.04v14.32h-4.13v-14.21c0-3.97-.36-6.65-1.07-8.07-.72-1.41-2.29-2.12-4.71-2.12-1.17,0-2.38.17-3.61.52-1.23.35-2.18.69-2.84,1.02l-.94.5v22.36Z"/>
        <path class="cls-1" d="M464.12,353.47v-39.77h4.08v1.98c2.79-1.69,5.54-2.53,8.26-2.53,3.49,0,6.02,1.11,7.6,3.33,1.58,2.22,2.37,5.88,2.37,10.99s-.93,8.77-2.78,10.99c-1.85,2.22-4.93,3.33-9.22,3.33-2.24,0-4.3-.2-6.17-.61v12.28h-4.13ZM475.85,316.84c-1.1,0-2.29.18-3.55.55-1.27.37-2.27.74-3,1.1l-1.05.55v18.56c2.61.4,4.59.61,5.95.61,2.97,0,5.06-.84,6.25-2.53,1.19-1.69,1.79-4.44,1.79-8.26s-.54-6.54-1.62-8.15c-1.08-1.62-2.67-2.42-4.76-2.42Z"/>
        <path class="cls-1" d="M493.14,341.24v-27.54h4.08v3.75c3.2-2.2,6.55-3.65,10.08-4.35v4.19c-1.54.29-3.15.75-4.82,1.38-1.67.62-2.95,1.18-3.83,1.65l-1.38.72v20.21h-4.13Z"/>
        <path class="cls-1" d="M530.38,337.83l1.6-.16.11,3.25c-4.19.59-7.77.88-10.74.88-3.97,0-6.77-1.15-8.43-3.44-1.65-2.29-2.48-5.87-2.48-10.71,0-9.66,3.84-14.49,11.51-14.49,3.71,0,6.48,1.04,8.32,3.11,1.84,2.07,2.75,5.33,2.75,9.78l-.22,3.14h-18.18c0,3.05.55,5.31,1.65,6.77,1.1,1.47,3.02,2.2,5.75,2.2s5.52-.11,8.34-.33ZM528.89,325.87c0-3.38-.54-5.76-1.62-7.16-1.08-1.39-2.85-2.09-5.29-2.09s-4.28.74-5.51,2.2c-1.23,1.47-1.86,3.82-1.9,7.05h14.32Z"/>
        <path class="cls-1" d="M548.11,316.84c-4,0-6,1.4-6,4.19,0,1.29.46,2.19,1.38,2.73.92.53,3.01,1.08,6.28,1.65,3.27.57,5.58,1.37,6.94,2.4,1.36,1.03,2.04,2.96,2.04,5.78s-.91,4.9-2.73,6.22-4.47,1.98-7.96,1.98c-2.28,0-4.96-.26-8.04-.77l-1.65-.28.22-3.58c4.19.63,7.34.94,9.47.94s3.75-.34,4.87-1.02c1.12-.68,1.68-1.82,1.68-3.42s-.48-2.68-1.43-3.25c-.96-.57-3.05-1.11-6.28-1.63-3.23-.51-5.53-1.27-6.89-2.26-1.36-.99-2.04-2.83-2.04-5.51s.95-4.66,2.84-5.95c1.89-1.28,4.25-1.93,7.08-1.93,2.24,0,5.05.26,8.43.77l1.54.28-.11,3.52c-4.08-.59-7.29-.88-9.64-.88Z"/>
        <path class="cls-1" d="M584.52,322.02v14.1c.11,1.36,1.17,2.17,3.2,2.42l-.17,3.25c-2.9,0-5.09-.73-6.55-2.2-3.3,1.47-6.61,2.2-9.91,2.2-2.53,0-4.46-.72-5.78-2.15-1.32-1.43-1.98-3.49-1.98-6.17s.68-4.65,2.04-5.92c1.36-1.27,3.49-2.05,6.39-2.34l8.65-.83v-2.37c0-1.87-.4-3.21-1.21-4.02-.81-.81-1.91-1.21-3.3-1.21-2.94,0-5.99.18-9.14.55l-1.71.17-.16-3.14c4.04-.81,7.62-1.21,10.74-1.21s5.39.72,6.8,2.15c1.41,1.43,2.12,3.67,2.12,6.72ZM567.55,333.26c0,3.38,1.39,5.07,4.19,5.07,2.5,0,4.96-.42,7.38-1.27l1.27-.44v-9.09l-8.15.77c-1.65.15-2.85.62-3.58,1.43-.73.81-1.1,1.98-1.1,3.53Z"/>
        <path class="cls-1" d="M605.5,303.13h13.82c3.78,0,6.62.78,8.51,2.34s2.84,4.01,2.84,7.35c0,2.39-.41,4.25-1.24,5.59-.83,1.34-2.05,2.4-3.66,3.17,4.04,1.4,6.06,4.39,6.06,8.98,0,3.82-1.01,6.55-3.03,8.21-2.02,1.65-4.94,2.48-8.76,2.48h-14.54v-38.11ZM619.16,306.87h-9.42v13.16h9.8c2.35,0,4.07-.56,5.15-1.68,1.08-1.12,1.62-2.81,1.62-5.07s-.58-3.89-1.73-4.9c-1.16-1.01-2.97-1.51-5.43-1.51ZM619.6,323.73h-9.86v13.77h10.13c2.5,0,4.4-.52,5.7-1.57,1.3-1.05,1.96-2.89,1.96-5.54,0-1.39-.27-2.57-.8-3.52-.53-.95-1.24-1.63-2.12-2.04-1.62-.73-3.29-1.1-5.01-1.1Z"/>
        <path class="cls-1" d="M638.71,341.24v-27.54h4.08v3.75c3.2-2.2,6.55-3.65,10.08-4.35v4.19c-1.54.29-3.15.75-4.82,1.38-1.67.62-2.95,1.18-3.83,1.65l-1.38.72v20.21h-4.13Z"/>
        <path class="cls-1" d="M677.21,322.02v14.1c.11,1.36,1.17,2.17,3.2,2.42l-.17,3.25c-2.9,0-5.09-.73-6.55-2.2-3.3,1.47-6.61,2.2-9.91,2.2-2.53,0-4.46-.72-5.78-2.15-1.32-1.43-1.98-3.49-1.98-6.17s.68-4.65,2.04-5.92c1.36-1.27,3.49-2.05,6.39-2.34l8.65-.83v-2.37c0-1.87-.4-3.21-1.21-4.02-.81-.81-1.91-1.21-3.3-1.21-2.94,0-5.99.18-9.14.55l-1.71.17-.16-3.14c4.04-.81,7.62-1.21,10.74-1.21s5.39.72,6.8,2.15c1.41,1.43,2.12,3.67,2.12,6.72ZM660.25,333.26c0,3.38,1.39,5.07,4.19,5.07,2.5,0,4.96-.42,7.38-1.27l1.27-.44v-9.09l-8.15.77c-1.65.15-2.85.62-3.58,1.43-.73.81-1.1,1.98-1.1,3.53Z"/>
        <path class="cls-1" d="M694.01,316.84c-4,0-6,1.4-6,4.19,0,1.29.46,2.19,1.38,2.73.92.53,3.01,1.08,6.28,1.65,3.27.57,5.58,1.37,6.94,2.4,1.36,1.03,2.04,2.96,2.04,5.78s-.91,4.9-2.73,6.22-4.47,1.98-7.96,1.98c-2.28,0-4.96-.26-8.04-.77l-1.65-.28.22-3.58c4.19.63,7.34.94,9.47.94s3.75-.34,4.87-1.02c1.12-.68,1.68-1.82,1.68-3.42s-.48-2.68-1.43-3.25c-.96-.57-3.05-1.11-6.28-1.63-3.23-.51-5.53-1.27-6.89-2.26-1.36-.99-2.04-2.83-2.04-5.51s.95-4.66,2.84-5.95c1.89-1.28,4.25-1.93,7.08-1.93,2.24,0,5.05.26,8.43.77l1.54.28-.11,3.52c-4.08-.59-7.29-.88-9.64-.88Z"/>
        <path class="cls-1" d="M710.97,307.48v-4.79h4.13v4.79h-4.13ZM710.97,341.24v-27.54h4.13v27.54h-4.13Z"/>
        <path class="cls-1" d="M723.37,341.24v-39.55h4.13v39.55h-4.13Z"/>
        <path class="cls-1" d="M754.49,337.83l1.6-.16.11,3.25c-4.19.59-7.77.88-10.74.88-3.97,0-6.77-1.15-8.43-3.44-1.65-2.29-2.48-5.87-2.48-10.71,0-9.66,3.84-14.49,11.51-14.49,3.71,0,6.48,1.04,8.32,3.11,1.84,2.07,2.75,5.33,2.75,9.78l-.22,3.14h-18.18c0,3.05.55,5.31,1.65,6.77,1.1,1.47,3.02,2.2,5.75,2.2s5.52-.11,8.34-.33ZM753,325.87c0-3.38-.54-5.76-1.62-7.16-1.08-1.39-2.85-2.09-5.29-2.09s-4.28.74-5.51,2.2c-1.23,1.47-1.86,3.82-1.9,7.05h14.32Z"/>
        <path class="cls-1" d="M763.57,307.48v-4.79h4.13v4.79h-4.13ZM763.57,341.24v-27.54h4.13v27.54h-4.13Z"/>
        <path class="cls-1" d="M775.63,341.24v-27.54h4.08v3.75c3.2-2.2,6.55-3.65,10.08-4.35v4.19c-1.54.29-3.15.75-4.82,1.38-1.67.62-2.95,1.18-3.83,1.65l-1.38.72v20.21h-4.13Z"/>
        <path class="cls-1" d="M814.13,322.02v14.1c.11,1.36,1.17,2.17,3.2,2.42l-.17,3.25c-2.9,0-5.09-.73-6.55-2.2-3.3,1.47-6.61,2.2-9.91,2.2-2.53,0-4.46-.72-5.78-2.15-1.32-1.43-1.98-3.49-1.98-6.17s.68-4.65,2.04-5.92c1.36-1.27,3.49-2.05,6.39-2.34l8.65-.83v-2.37c0-1.87-.4-3.21-1.21-4.02-.81-.81-1.91-1.21-3.3-1.21-2.94,0-5.99.18-9.14.55l-1.71.17-.16-3.14c4.04-.81,7.62-1.21,10.74-1.21s5.39.72,6.8,2.15c1.41,1.43,2.12,3.67,2.12,6.72ZM797.17,333.26c0,3.38,1.39,5.07,4.19,5.07,2.5,0,4.96-.42,7.38-1.27l1.27-.44v-9.09l-8.15.77c-1.65.15-2.85.62-3.58,1.43-.73.81-1.1,1.98-1.1,3.53Z"/>
        <path class="cls-1" d="M855.55,301.7v39.55h-4.08v-1.87c-2.83,1.62-5.62,2.42-8.37,2.42-1.47,0-2.75-.18-3.86-.55-1.1-.37-2.13-1.03-3.08-1.98-1.98-1.98-2.97-5.65-2.97-10.99s.89-9.2,2.67-11.57c1.78-2.37,4.73-3.55,8.84-3.55,2.13,0,4.39.24,6.77.72v-12.17h4.08ZM841.23,337.72c.66.26,1.51.39,2.56.39s2.22-.17,3.52-.52c1.3-.35,2.32-.69,3.06-1.02l1.1-.5v-18.67c-2.35-.44-4.54-.66-6.55-.66-2.79,0-4.74.89-5.84,2.67-1.1,1.78-1.65,4.54-1.65,8.29,0,4.26.64,7.12,1.93,8.59.59.7,1.21,1.18,1.87,1.43Z"/>
        <path class="cls-1" d="M882.26,337.83l1.6-.16.11,3.25c-4.19.59-7.77.88-10.74.88-3.97,0-6.77-1.15-8.43-3.44-1.65-2.29-2.48-5.87-2.48-10.71,0-9.66,3.84-14.49,11.51-14.49,3.71,0,6.48,1.04,8.32,3.11,1.84,2.07,2.75,5.33,2.75,9.78l-.22,3.14h-18.18c0,3.05.55,5.31,1.65,6.77,1.1,1.47,3.02,2.2,5.75,2.2s5.52-.11,8.34-.33ZM880.78,325.87c0-3.38-.54-5.76-1.62-7.16-1.08-1.39-2.85-2.09-5.29-2.09s-4.28.74-5.51,2.2c-1.23,1.47-1.86,3.82-1.9,7.05h14.32Z"/>
        <path class="cls-1" d="M918.12,328.41h-9.69v12.83h-4.24v-38.11h13.93c4.15,0,7.22,1.01,9.2,3.03,1.98,2.02,2.97,5.1,2.97,9.25,0,8.67-4.06,13-12.17,13ZM908.42,324.66h9.64c5.25,0,7.88-3.08,7.88-9.25,0-2.94-.62-5.09-1.87-6.47-1.25-1.38-3.25-2.07-6-2.07h-9.64v17.79Z"/>
        <path class="cls-1" d="M954.63,337.83l1.6-.16.11,3.25c-4.19.59-7.77.88-10.74.88-3.97,0-6.77-1.15-8.43-3.44-1.65-2.29-2.48-5.87-2.48-10.71,0-9.66,3.84-14.49,11.51-14.49,3.71,0,6.48,1.04,8.32,3.11,1.84,2.07,2.75,5.33,2.75,9.78l-.22,3.14h-18.18c0,3.05.55,5.31,1.65,6.77,1.1,1.47,3.02,2.2,5.75,2.2s5.52-.11,8.34-.33ZM953.15,325.87c0-3.38-.54-5.76-1.62-7.16-1.08-1.39-2.85-2.09-5.29-2.09s-4.28.74-5.51,2.2c-1.23,1.47-1.86,3.82-1.9,7.05h14.32Z"/>
        <path class="cls-1" d="M972.37,316.84c-4,0-6,1.4-6,4.19,0,1.29.46,2.19,1.38,2.73.92.53,3.01,1.08,6.28,1.65,3.27.57,5.58,1.37,6.94,2.4,1.36,1.03,2.04,2.96,2.04,5.78s-.91,4.9-2.73,6.22-4.47,1.98-7.96,1.98c-2.28,0-4.96-.26-8.04-.77l-1.65-.28.22-3.58c4.19.63,7.34.94,9.47.94s3.75-.34,4.87-1.02c1.12-.68,1.68-1.82,1.68-3.42s-.48-2.68-1.43-3.25c-.96-.57-3.05-1.11-6.28-1.63-3.23-.51-5.53-1.27-6.89-2.26-1.36-.99-2.04-2.83-2.04-5.51s.95-4.66,2.84-5.95c1.89-1.28,4.25-1.93,7.08-1.93,2.24,0,5.05.26,8.43.77l1.54.28-.11,3.52c-4.08-.59-7.29-.88-9.64-.88Z"/>
        <path class="cls-1" d="M998.48,341.79c-3.71,0-6.36-1.08-7.96-3.25-1.6-2.17-2.4-5.84-2.4-11.02s.96-8.87,2.86-11.07c1.91-2.2,5.29-3.3,10.13-3.3l9.2.55v39.77h-4.08v-13.49c-2.57,1.21-5.16,1.82-7.77,1.82ZM1001.17,316.73c-3.45,0-5.79.86-7.02,2.59-1.23,1.73-1.85,4.47-1.85,8.23s.5,6.46,1.51,8.1c1.01,1.63,2.71,2.45,5.09,2.45,2.13,0,4.24-.4,6.33-1.21l.99-.39v-19.44c-2.28-.22-3.97-.33-5.07-.33Z"/>
        <path class="cls-1" d="M1035.49,313.7h4.13v27.54h-4.13v-1.93c-2.75,1.65-5.47,2.48-8.15,2.48-3.75,0-6.23-.97-7.46-2.92-1.23-1.95-1.85-5.54-1.85-10.8v-14.38h4.13v14.32c0,4,.35,6.68,1.05,8.04.7,1.36,2.28,2.04,4.74,2.04,1.21,0,2.44-.17,3.69-.52,1.25-.35,2.2-.69,2.86-1.02l.99-.5v-22.36Z"/>
        <path class="cls-1" d="M1047.55,307.48v-4.79h4.13v4.79h-4.13ZM1047.55,341.24v-27.54h4.13v27.54h-4.13Z"/>
        <path class="cls-1" d="M1068.26,316.84c-4,0-6,1.4-6,4.19,0,1.29.46,2.19,1.38,2.73.92.53,3.01,1.08,6.28,1.65,3.27.57,5.58,1.37,6.94,2.4,1.36,1.03,2.04,2.96,2.04,5.78s-.91,4.9-2.73,6.22-4.47,1.98-7.96,1.98c-2.28,0-4.96-.26-8.04-.77l-1.65-.28.22-3.58c4.19.63,7.34.94,9.47.94s3.75-.34,4.87-1.02c1.12-.68,1.68-1.82,1.68-3.42s-.48-2.68-1.43-3.25c-.96-.57-3.05-1.11-6.28-1.63-3.23-.51-5.53-1.27-6.89-2.26-1.36-.99-2.04-2.83-2.04-5.51s.95-4.66,2.84-5.95c1.89-1.28,4.25-1.93,7.08-1.93,2.24,0,5.05.26,8.43.77l1.54.28-.11,3.52c-4.08-.59-7.29-.88-9.64-.88Z"/>
        <path class="cls-1" d="M1104.67,322.02v14.1c.11,1.36,1.17,2.17,3.2,2.42l-.17,3.25c-2.9,0-5.09-.73-6.55-2.2-3.3,1.47-6.61,2.2-9.91,2.2-2.53,0-4.46-.72-5.78-2.15-1.32-1.43-1.98-3.49-1.98-6.17s.68-4.65,2.04-5.92c1.36-1.27,3.49-2.05,6.39-2.34l8.65-.83v-2.37c0-1.87-.4-3.21-1.21-4.02-.81-.81-1.91-1.21-3.3-1.21-2.94,0-5.99.18-9.14.55l-1.71.17-.16-3.14c4.04-.81,7.62-1.21,10.74-1.21s5.39.72,6.8,2.15c1.41,1.43,2.12,3.67,2.12,6.72ZM1087.7,333.26c0,3.38,1.39,5.07,4.19,5.07,2.5,0,4.96-.42,7.38-1.27l1.27-.44v-9.09l-8.15.77c-1.65.15-2.85.62-3.58,1.43-.73.81-1.1,1.98-1.1,3.53Z"/>
        <path class="cls-1" d="M406.34,397.99l1.6-.16.11,3.25c-4.19.59-7.77.88-10.74.88-3.97,0-6.77-1.15-8.43-3.44-1.65-2.29-2.48-5.87-2.48-10.71,0-9.66,3.84-14.49,11.51-14.49,3.71,0,6.48,1.04,8.32,3.11,1.84,2.07,2.75,5.33,2.75,9.78l-.22,3.14h-18.18c0,3.05.55,5.31,1.65,6.77,1.1,1.47,3.02,2.2,5.75,2.2s5.52-.11,8.34-.33ZM404.85,386.03c0-3.38-.54-5.76-1.62-7.16-1.08-1.39-2.85-2.09-5.29-2.09s-4.28.74-5.51,2.2c-1.23,1.47-1.86,3.82-1.9,7.05h14.32Z"/>
        <path class="cls-1" d="M428.26,401.4v-38.11h4.24v38.11h-4.24Z"/>
        <path class="cls-1" d="M445.22,401.4h-4.13v-27.54h4.08v1.93c2.97-1.65,5.82-2.48,8.54-2.48,3.67,0,6.14.99,7.41,2.97,1.27,1.98,1.9,5.51,1.9,10.58v14.54h-4.08v-14.43c0-3.82-.38-6.43-1.13-7.85-.75-1.41-2.36-2.12-4.82-2.12-1.17,0-2.42.17-3.72.52-1.3.35-2.3.69-3,1.02l-1.05.5v22.36Z"/>
        <path class="cls-1" d="M469.46,387.58c0-5.03.9-8.67,2.7-10.91,1.8-2.24,4.84-3.36,9.12-3.36s7.31,1.12,9.09,3.36c1.78,2.24,2.67,5.88,2.67,10.91s-.85,8.68-2.53,10.96c-1.69,2.28-4.77,3.42-9.25,3.42s-7.56-1.14-9.25-3.42c-1.69-2.28-2.53-5.93-2.53-10.96ZM473.7,387.49c0,4.02.49,6.84,1.46,8.45.97,1.62,3.01,2.42,6.11,2.42s5.13-.8,6.09-2.4c.95-1.6,1.43-4.41,1.43-8.45s-.53-6.82-1.6-8.34c-1.07-1.52-3.04-2.29-5.92-2.29s-4.87.76-5.95,2.29-1.62,4.3-1.62,8.32Z"/>
        <path class="cls-1" d="M496.67,373.86h4.41l6.44,23.96h2.04l6.66-23.96h4.24l-7.77,27.54h-8.26l-7.77-27.54Z"/>
        <path class="cls-1" d="M544.75,382.18v14.1c.11,1.36,1.17,2.17,3.2,2.42l-.17,3.25c-2.9,0-5.09-.73-6.55-2.2-3.3,1.47-6.61,2.2-9.91,2.2-2.53,0-4.46-.72-5.78-2.15-1.32-1.43-1.98-3.49-1.98-6.17s.68-4.65,2.04-5.92c1.36-1.27,3.49-2.05,6.39-2.34l8.65-.83v-2.37c0-1.87-.4-3.21-1.21-4.02-.81-.81-1.91-1.21-3.3-1.21-2.94,0-5.99.18-9.14.55l-1.71.17-.16-3.14c4.04-.81,7.62-1.21,10.74-1.21s5.39.72,6.8,2.15c1.41,1.43,2.12,3.67,2.12,6.72ZM527.79,393.41c0,3.38,1.39,5.07,4.19,5.07,2.5,0,4.96-.42,7.38-1.27l1.27-.44v-9.09l-8.15.77c-1.65.15-2.85.62-3.58,1.43-.73.81-1.1,1.98-1.1,3.53Z"/>
        <path class="cls-1" d="M568.76,408.4c0,3.3-1.71,4.96-5.12,4.96-1.69,0-3.07-.09-4.13-.28l-.61-.11.16-2.64c1.43.11,2.64.16,3.63.16,1.62,0,2.42-.7,2.42-2.09,0-1.25-.81-1.87-2.42-1.87h-2.31v-4.74c-3.23-.37-5.48-1.67-6.75-3.91-1.27-2.24-1.9-5.84-1.9-10.8s.88-8.49,2.64-10.6c1.76-2.11,4.7-3.17,8.81-3.17,1.21,0,3.27.22,6.17.66l1.32.17-.17,3.36c-2.94-.33-5.1-.5-6.5-.5-3.12,0-5.24.74-6.36,2.23s-1.68,4.24-1.68,8.26.52,6.82,1.57,8.4c1.05,1.58,3.22,2.37,6.53,2.37l6.5-.5.17,3.42c-3.42.51-5.97.77-7.66.77h-.44v2.15c2.17,0,3.73.29,4.68.88.95.59,1.43,1.73,1.43,3.42Z"/>
        <path class="cls-1" d="M596.36,382.18v14.1c.11,1.36,1.17,2.17,3.2,2.42l-.17,3.25c-2.9,0-5.09-.73-6.55-2.2-3.3,1.47-6.61,2.2-9.91,2.2-2.53,0-4.46-.72-5.78-2.15-1.32-1.43-1.98-3.49-1.98-6.17s.68-4.65,2.04-5.92c1.36-1.27,3.49-2.05,6.39-2.34l8.65-.83v-2.37c0-1.87-.4-3.21-1.21-4.02-.81-.81-1.91-1.21-3.3-1.21-2.94,0-5.99.18-9.14.55l-1.71.17-.16-3.14c4.04-.81,7.62-1.21,10.74-1.21s5.39.72,6.8,2.15c1.41,1.43,2.12,3.67,2.12,6.72ZM589.86,367.69c-.77,0-2.1-.43-3.99-1.29-1.89-.86-3.08-1.29-3.55-1.29-.84,0-1.98.55-3.41,1.65l-.72.55-.99-2.64c1.84-1.91,3.51-2.86,5.01-2.86.77,0,2.11.42,4.02,1.27,1.91.84,3.07,1.27,3.47,1.27.81,0,1.91-.53,3.31-1.6l.66-.5.94,2.64c-1.69,1.87-3.27,2.81-4.74,2.81ZM579.39,393.41c0,3.38,1.39,5.07,4.19,5.07,2.5,0,4.96-.42,7.38-1.27l1.27-.44v-9.09l-8.15.77c-1.65.15-2.85.62-3.58,1.43-.73.81-1.1,1.98-1.1,3.53Z"/>
        <path class="cls-1" d="M603.3,387.58c0-5.03.9-8.67,2.7-10.91,1.8-2.24,4.84-3.36,9.12-3.36s7.31,1.12,9.09,3.36c1.78,2.24,2.67,5.88,2.67,10.91s-.85,8.68-2.53,10.96c-1.69,2.28-4.77,3.42-9.25,3.42s-7.56-1.14-9.25-3.42c-1.69-2.28-2.53-5.93-2.53-10.96ZM607.54,387.49c0,4.02.49,6.84,1.46,8.45.97,1.62,3.01,2.42,6.11,2.42s5.13-.8,6.09-2.4c.95-1.6,1.43-4.41,1.43-8.45s-.53-6.82-1.6-8.34c-1.07-1.52-3.04-2.29-5.92-2.29s-4.87.76-5.95,2.29-1.62,4.3-1.62,8.32Z"/>
        <path class="cls-1" d="M646.42,401.4v-38.11h4.24v38.11h-4.24Z"/>
        <path class="cls-1" d="M663.38,401.4h-4.13v-27.54h4.08v1.93c2.97-1.65,5.82-2.48,8.54-2.48,3.67,0,6.14.99,7.41,2.97,1.27,1.98,1.9,5.51,1.9,10.58v14.54h-4.08v-14.43c0-3.82-.38-6.43-1.13-7.85-.75-1.41-2.36-2.12-4.82-2.12-1.17,0-2.42.17-3.72.52-1.3.35-2.3.69-3,1.02l-1.05.5v22.36Z"/>
        <path class="cls-1" d="M709.98,361.85v39.55h-4.08v-1.87c-2.83,1.62-5.62,2.42-8.37,2.42-1.47,0-2.75-.18-3.86-.55-1.1-.37-2.13-1.03-3.08-1.98-1.98-1.98-2.97-5.65-2.97-10.99s.89-9.2,2.67-11.57c1.78-2.37,4.73-3.55,8.84-3.55,2.13,0,4.39.24,6.77.72v-12.17h4.08ZM695.66,397.88c.66.26,1.51.39,2.56.39s2.22-.17,3.52-.52c1.3-.35,2.32-.69,3.06-1.02l1.1-.5v-18.67c-2.35-.44-4.54-.66-6.55-.66-2.79,0-4.74.89-5.84,2.67-1.1,1.78-1.65,4.54-1.65,8.29,0,4.26.64,7.12,1.93,8.59.59.7,1.21,1.18,1.87,1.43Z"/>
        <path class="cls-1" d="M735.15,373.86h4.13v27.54h-4.13v-1.93c-2.75,1.65-5.47,2.48-8.15,2.48-3.75,0-6.23-.97-7.46-2.92-1.23-1.95-1.85-5.54-1.85-10.8v-14.38h4.13v14.32c0,4,.35,6.68,1.05,8.04.7,1.36,2.28,2.04,4.74,2.04,1.21,0,2.44-.17,3.69-.52,1.25-.35,2.2-.69,2.86-1.02l.99-.5v-22.36Z"/>
        <path class="cls-1" d="M755.86,377c-4,0-6,1.4-6,4.19,0,1.29.46,2.19,1.38,2.73.92.53,3.01,1.08,6.28,1.65,3.27.57,5.58,1.37,6.94,2.4,1.36,1.03,2.04,2.96,2.04,5.78s-.91,4.9-2.73,6.22c-1.82,1.32-4.47,1.98-7.96,1.98-2.28,0-4.96-.26-8.04-.77l-1.65-.28.22-3.58c4.19.63,7.34.94,9.47.94s3.75-.34,4.87-1.02c1.12-.68,1.68-1.82,1.68-3.42s-.48-2.68-1.43-3.25c-.96-.57-3.05-1.11-6.28-1.63-3.23-.51-5.53-1.27-6.89-2.26-1.36-.99-2.04-2.83-2.04-5.51s.95-4.66,2.84-5.95c1.89-1.28,4.25-1.93,7.08-1.93,2.24,0,5.05.26,8.43.77l1.54.28-.11,3.52c-4.08-.59-7.29-.88-9.64-.88Z"/>
        <path class="cls-1" d="M787.09,377.44h-8.76v13.16c0,3.16.23,5.23.69,6.22.46.99,1.55,1.49,3.28,1.49l4.9-.33.27,3.42c-2.46.4-4.33.61-5.62.61-2.86,0-4.85-.7-5.95-2.09-1.1-1.39-1.65-4.06-1.65-7.99v-14.49h-3.91v-3.58h3.91v-8.43h4.08v8.43h8.76v3.58Z"/>
        <path class="cls-1" d="M792.16,401.4v-27.54h4.08v3.75c3.2-2.2,6.55-3.65,10.08-4.35v4.19c-1.54.29-3.15.75-4.82,1.38-1.67.62-2.95,1.18-3.83,1.65l-1.38.72v20.21h-4.13Z"/>
        <path class="cls-1" d="M811.21,367.64v-4.79h4.13v4.79h-4.13ZM811.21,401.4v-27.54h4.13v27.54h-4.13Z"/>
        <path class="cls-1" d="M842.72,382.18v14.1c.11,1.36,1.17,2.17,3.2,2.42l-.17,3.25c-2.9,0-5.09-.73-6.55-2.2-3.3,1.47-6.61,2.2-9.91,2.2-2.53,0-4.46-.72-5.78-2.15-1.32-1.43-1.98-3.49-1.98-6.17s.68-4.65,2.04-5.92c1.36-1.27,3.49-2.05,6.39-2.34l8.65-.83v-2.37c0-1.87-.4-3.21-1.21-4.02-.81-.81-1.91-1.21-3.3-1.21-2.94,0-5.99.18-9.14.55l-1.71.17-.16-3.14c4.04-.81,7.62-1.21,10.74-1.21s5.39.72,6.8,2.15c1.41,1.43,2.12,3.67,2.12,6.72ZM825.75,393.41c0,3.38,1.39,5.07,4.19,5.07,2.5,0,4.96-.42,7.38-1.27l1.27-.44v-9.09l-8.15.77c-1.65.15-2.85.62-3.58,1.43-.73.81-1.1,1.98-1.1,3.53Z"/>
        <path class="cls-1" d="M851.2,401.4v-39.55h4.13v39.55h-4.13Z"/>
      </g>
    </g>
  </g>
</svg>