<svg width="320" height="320" viewBox="0 0 320 320" fill="none" xmlns="http://www.w3.org/2000/svg">
<g clip-path="url(#clip0_1_158)">
<path d="M0 153.867C0.609067 153.681 0.7712 152.892 0.8928 151.157C1.55307 141.783 1.82187 139.396 2.96427 132.8C3.89227 127.436 5.4016 120.799 6.69227 116.4C6.99413 115.373 7.3984 113.994 7.59147 113.333C8.07787 111.675 10.0896 105.642 10.4811 104.667C10.6581 104.227 11.0827 103.147 11.4251 102.267C12.5429 99.3984 13.1072 98.0181 13.6064 96.9333C13.8763 96.3467 14.3573 95.2661 14.6741 94.5333C15.5819 92.4373 18.8256 85.9488 20.1397 83.6C20.7957 82.4267 21.4507 81.2267 21.5947 80.9333C21.7397 80.64 22.1568 79.92 22.5227 79.3333C22.8875 78.7467 23.4315 77.8464 23.7301 77.3333C24.5504 75.9221 28.1333 70.3413 28.6091 69.7333C28.7232 69.5861 29.6757 68.2667 30.7243 66.8C35.4464 60.1952 41.1531 53.5029 47.328 47.328C53.5029 41.1531 60.1952 35.4464 66.8 30.7243C68.2667 29.6757 69.5861 28.7232 69.7333 28.6091C70.3413 28.1333 75.9221 24.5504 77.3333 23.7301C77.8464 23.4315 78.7467 22.8875 79.3333 22.5227C79.92 22.1568 80.64 21.7397 80.9333 21.5947C81.2267 21.4507 82.4267 20.7957 83.6 20.1397C85.9488 18.8256 92.4373 15.5819 94.5333 14.6741C95.2661 14.3573 96.3467 13.8763 96.9333 13.6064C98.0181 13.1072 99.3984 12.5429 102.267 11.4251C103.147 11.0827 104.227 10.6581 104.667 10.4811C105.642 10.0896 111.675 8.07787 113.333 7.59147C113.994 7.3984 115.373 6.99413 116.4 6.69227C120.799 5.4016 127.436 3.89227 132.8 2.96427C139.396 1.82187 141.783 1.55307 151.157 0.8928C152.892 0.7712 153.681 0.609067 153.758 0.359467C153.794 0.238933 153.83 0.119467 153.867 0C157.955 0 162.045 0 166.133 0C166.705 0.629333 168.544 0.861867 172.933 1.18613C176.306 1.43467 179.547 1.7408 180.133 1.8656C180.72 1.98933 182.34 2.224 183.733 2.38613C187.207 2.79147 193.742 4.06827 197.527 5.08373C198.588 5.36747 199.618 5.6 199.815 5.6C200.014 5.6 201.007 5.84853 202.021 6.15253C203.037 6.45653 204.706 6.9536 205.733 7.25867C208.431 8.05867 212.926 9.54667 214.933 10.3029C215.887 10.6624 217.327 11.2021 218.133 11.5029C219.709 12.0875 222.143 13.0923 223.867 13.8667C224.453 14.1312 225.83 14.7488 226.928 15.2395C231.584 17.3259 241.195 22.5248 244.933 24.9803C249.879 28.2293 253.907 30.9877 254.95 31.8411C255.327 32.1483 255.974 32.64 256.39 32.9333C257.382 33.6331 262.575 37.7749 263.6 38.6837C273.545 47.504 282.239 56.7989 288.023 64.7947C288.817 65.8912 289.729 67.1509 290.05 67.5947C293.532 72.4 298.08 79.7483 300.953 85.2075C303.105 89.2992 303.623 90.3659 305.942 95.4667C307.489 98.8683 310.129 105.451 310.143 105.938C310.147 106.119 310.383 106.747 310.667 107.333C310.95 107.92 311.19 108.64 311.2 108.933C311.21 109.227 311.45 109.947 311.733 110.533C312.017 111.12 312.253 111.799 312.257 112.043C312.262 112.287 312.493 113.126 312.768 113.909C313.043 114.692 313.407 115.873 313.577 116.533C315.751 125.04 316.283 127.374 317.039 131.733C318.066 137.649 318.419 140.161 318.671 143.333C319.069 148.349 319.231 149.442 319.629 149.801C319.753 149.911 319.876 150.022 320 150.133C320 156.8 320 163.467 320 170.133C319.246 170.636 319.138 171.194 318.66 177.067C318.499 179.046 318.262 181.087 318.135 181.6C318.007 182.113 317.828 183.253 317.737 184.133C317.426 187.116 316.13 193.731 314.913 198.533C313.879 202.613 312.1 208.858 311.722 209.733C311.595 210.027 311.174 211.227 310.788 212.4C309.938 214.98 308.317 219.28 307.469 221.2C307.34 221.493 306.634 223.114 305.9 224.8C304.042 229.072 299.374 238.229 297.745 240.8C297.42 241.313 296.148 243.354 294.918 245.333C293.69 247.313 292.56 249.073 292.409 249.245C292.257 249.415 291.594 250.355 290.933 251.332C290.273 252.309 289.253 253.749 288.667 254.532C288.08 255.315 287.36 256.286 287.067 256.689C280.321 265.968 265.861 280.43 256.692 287.067C256.287 287.36 255.315 288.08 254.532 288.667C253.749 289.253 252.309 290.273 251.332 290.933C250.355 291.594 249.415 292.257 249.245 292.409C249.073 292.56 247.313 293.69 245.333 294.918C243.354 296.148 241.313 297.42 240.8 297.745C238.229 299.374 229.072 304.042 224.8 305.9C223.114 306.634 221.493 307.34 221.2 307.469C219.28 308.317 214.98 309.938 212.4 310.788C211.227 311.174 210.027 311.595 209.733 311.722C208.858 312.1 202.613 313.879 198.533 314.913C193.731 316.13 187.116 317.426 184.133 317.737C183.253 317.828 182.113 318.007 181.6 318.135C181.087 318.262 179.046 318.499 177.067 318.66C171.616 319.104 170.635 319.248 170.373 319.639C170.293 319.76 170.213 319.879 170.133 320C163.467 320 156.8 320 150.133 320C149.579 319.251 148.91 319.121 143.333 318.674C140.159 318.419 137.637 318.064 131.733 317.039C127.374 316.283 125.04 315.751 116.533 313.577C115.873 313.407 114.692 313.043 113.909 312.768C113.126 312.493 112.287 312.262 112.043 312.257C111.799 312.253 111.12 312.017 110.533 311.733C109.947 311.45 109.227 311.21 108.933 311.2C108.64 311.19 107.92 310.95 107.333 310.667C106.747 310.383 106.119 310.147 105.938 310.143C105.451 310.129 98.8683 307.489 95.4667 305.942C90.3659 303.623 89.2992 303.105 85.2075 300.953C82.4235 299.487 80.5067 298.394 76.7989 296.154C75.1115 295.134 69.2096 291.22 67.5947 290.05C67.1509 289.729 65.8912 288.817 64.7947 288.023C56.7989 282.239 47.504 273.545 38.6837 263.6C37.7749 262.575 33.6331 257.382 32.9333 256.39C32.64 255.974 32.1483 255.327 31.8411 254.95C31.1093 254.055 29.6768 251.997 27.4987 248.709C26.528 247.245 25.3653 245.497 24.9152 244.823C22.6613 241.452 17.3227 231.577 15.2395 226.928C14.7488 225.83 14.1312 224.453 13.8667 223.867C13.0923 222.143 12.0875 219.709 11.5029 218.133C11.2021 217.327 10.6624 215.887 10.3029 214.933C9.54667 212.926 8.05867 208.431 7.25867 205.733C6.9536 204.706 6.45653 203.037 6.15253 202.021C5.84853 201.007 5.6 200.014 5.6 199.815C5.6 199.618 5.36747 198.588 5.08373 197.527C4.06827 193.742 2.79147 187.207 2.38613 183.733C2.224 182.34 1.98933 180.72 1.8656 180.133C1.7408 179.547 1.43467 176.306 1.18613 172.933C0.861867 168.544 0.629333 166.705 0.366933 166.466C0.244267 166.355 0.122667 166.244 0 166.133C0 162.045 0 157.955 0 153.867ZM28.4288 209.467C28.3637 209.906 28.3499 211.887 28.3968 213.867C28.4971 218.06 29.1904 220.884 30.9483 224.265C32.2848 226.834 34.9685 230.167 37.0123 231.797C40.3861 234.49 45.3312 236.564 50.5333 237.472C53.7707 238.036 61.0869 238.122 64.8 237.638C71.744 236.734 77.6064 234.907 84.9333 231.36C100.594 223.782 113.151 212.638 120.602 199.702C122.537 196.343 129.76 181.3 134.927 169.867C137.014 165.247 139.191 160.458 139.764 159.225C140.336 157.991 140.748 156.926 140.677 156.855C140.483 156.661 125.087 167.745 108.667 179.9C104.706 182.831 100.267 186.091 98.8 187.145C96.2944 188.944 93.6587 190.859 85.0421 197.139C83.0752 198.573 79.3664 201.307 76.8 203.214C74.2336 205.121 70.9931 207.514 69.6 208.53C68.2069 209.547 62.8779 213.504 57.7589 217.326C52.64 221.147 48.4053 224.228 48.3499 224.172C48.1824 224.004 49.4624 217.993 52.9525 202.555C58.8885 176.295 60.8779 167.188 60.7125 167.023C60.5333 166.844 56.8373 169.744 52.5333 173.441C48.7232 176.714 42.432 183.027 39.7515 186.267C33.4741 193.854 29.5349 201.925 28.4288 209.467ZM100.941 263.467C100.589 264.273 100.293 265.042 100.284 265.175C100.274 265.317 102.097 265.345 104.709 265.242C107.153 265.146 115.613 265.067 123.509 265.067C128.295 265.067 133.081 265.067 137.867 265.067C137.867 258.395 137.867 251.722 137.867 245.05C137.867 238.378 137.867 231.706 137.867 225.034C138.737 224.128 139.609 223.222 140.479 222.317C141.916 220.822 145.426 217.074 148.279 213.987C151.132 210.9 156.295 205.321 159.753 201.587C163.211 197.854 166.481 194.305 167.02 193.701C167.346 193.334 167.674 192.969 168 192.603C167.997 186.257 167.993 179.913 167.989 173.568C167.986 167.223 167.982 160.878 167.979 154.533C169.027 153.539 170.075 152.546 171.123 151.552C172.171 150.558 173.219 149.565 174.267 148.571C174.267 154.876 174.267 161.181 174.267 167.486C174.267 177.888 174.363 186.368 174.48 186.33C174.597 186.29 178.281 182.48 182.667 177.862C185.325 175.063 187.982 172.266 190.64 169.467C190.645 159.889 190.649 150.311 190.654 140.734C190.66 124.93 190.595 112 190.508 112C190.42 112 189.611 112.643 188.707 113.429C187.01 114.907 181.764 119.107 171.445 127.251C168.157 129.846 162.948 133.987 159.87 136.453C158.004 137.948 156.14 139.442 154.273 140.937C153.719 142.156 153.165 143.375 152.61 144.593C151.695 146.605 149.334 151.945 147.364 156.459C140.571 172.022 136.299 181.765 131.604 192.4C126.747 203.403 119.409 220.38 108.091 246.8C104.51 255.161 101.293 262.66 100.941 263.467ZM160.743 209.2C158.963 211.067 157.181 212.933 155.401 214.8C158.989 214.826 162.578 214.851 166.166 214.877C175.071 214.941 177.386 214.88 179.546 214.526C183.702 213.842 186.853 212.569 190.619 210.047C193.746 207.954 195.181 206.613 202.063 199.353C205.549 195.676 211.162 189.787 214.537 186.267C217.913 182.747 223.009 177.407 225.865 174.4C234.506 165.3 246.221 153.333 246.487 153.333C246.643 153.333 246.673 159.555 246.563 169.801C246.506 175.289 246.446 180.778 246.388 186.267C247.111 185.511 247.835 184.755 248.557 184C249.75 182.753 253.353 178.857 256.563 175.34C258.509 173.209 260.454 171.078 262.4 168.947C262.4 153.897 262.4 138.846 262.4 123.795C262.4 73.8165 262.522 77.4123 260.641 71.92C257.862 63.8037 252.357 55.2181 245.459 48.2421C242.334 45.0827 239.601 43.0027 236.256 41.2373C231.245 38.5931 227.562 38.0011 216.133 38.0043C206.98 38.0064 203.443 38.3008 196.933 39.6043C188.727 41.2459 171.879 46.8352 165.504 50.0309C161.613 51.9819 159.841 53.7045 158.132 57.2C156.405 60.7307 156.275 61.7056 156.271 71.1339C156.269 73.9115 156.268 76.6891 156.267 79.4667C167.181 79.4667 178.096 79.4667 189.01 79.4667C225.168 79.4667 223.453 79.5445 226.221 77.7739C226.989 77.2832 228.103 76.3275 228.7 75.6501C229.815 74.3829 231.467 71.344 231.467 70.5589C231.467 69.9872 231.678 69.9328 234.466 69.7835C235.245 69.7419 236.022 69.7003 236.8 69.6587C236.799 69.8933 236.799 70.128 236.798 70.3627C236.794 71.3675 235.168 75.952 234.268 77.4955C233.28 79.1872 230.579 82.0043 229.124 82.8576C228.495 83.2267 227.235 83.7696 226.324 84.0651C224.713 84.5867 223.804 84.6048 193.267 84.7349C182.8 84.7797 172.333 84.8235 161.867 84.8683C161.867 86.2613 161.867 87.6523 161.867 89.0453C161.867 94.9323 162.505 97.1051 165.025 99.808C166.554 101.446 167.747 102.22 169.837 102.924C171.409 103.453 172.02 103.467 194.324 103.47C218.91 103.473 218.416 103.447 221.2 104.865C225.217 106.911 228.525 112.043 228.982 116.937C229.036 117.514 229.09 118.09 229.143 118.667C228.204 118.667 227.264 118.667 226.324 118.667C225.385 118.667 224.445 118.667 223.505 118.667C223.404 118.18 223.302 117.694 223.201 117.209C222.732 114.943 221.486 112.726 219.838 111.22C217.522 109.103 217.283 109.067 205.751 109.067C202.457 109.067 199.162 109.067 195.867 109.067C195.89 119.699 195.913 130.332 195.936 140.965C195.958 151.598 195.981 162.23 196.004 172.864C193.092 175.833 190.18 178.802 187.269 181.772C178.261 190.958 170.039 199.459 160.743 209.2ZM201.939 208.267C201.206 209.022 200.474 209.778 199.741 210.533C199.74 219.622 199.739 228.711 199.738 237.801C199.735 246.889 199.734 255.978 199.733 265.067C205.844 265.068 211.955 265.069 218.067 265.07C228.15 265.071 236.85 265.147 237.399 265.238C238.051 265.346 238.4 265.3 238.4 265.108C238.4 264.946 237.518 263.281 236.441 261.407C230.7 251.425 223.193 238.5 220.698 234.304C219.141 231.685 217.867 229.385 217.867 229.193C217.867 228.999 219.097 227.538 220.599 225.945C222.103 224.351 226.213 219.933 229.733 216.127C233.253 212.32 237.183 208.076 238.466 206.693C239.245 205.856 240.022 205.019 240.8 204.181C240.8 198.107 240.8 192.032 240.8 185.957C240.8 175.934 240.7 167.733 240.578 167.733C240.457 167.733 239.106 169.093 237.579 170.756C234.897 173.673 206.423 203.643 201.939 208.267Z" fill="#A41D16"/>
<path d="M213.78 45.3333C214.318 46.5877 214.396 47.1477 214.32 49.2C214.247 51.1509 214.101 51.8496 213.539 52.9333C212.243 55.4325 210.202 57.0571 207.485 57.7515C205.594 58.2336 203.895 58.1301 202.215 57.4283C201.119 56.9707 198.933 55.4869 198.933 55.2011C198.933 55.104 201.194 52.7541 203.955 49.9787C206.718 47.2043 209.65 44.1717 210.47 43.2416C210.969 42.6773 211.466 42.1131 211.964 41.5499C212.161 41.936 212.359 42.3221 212.558 42.7083C212.884 43.3451 213.435 44.5269 213.78 45.3333Z" fill="#A41D16"/>
<path d="M201.939 208.267C206.423 203.643 234.897 173.673 237.579 170.756C239.106 169.093 240.457 167.733 240.578 167.733C240.7 167.733 240.8 175.934 240.8 185.957C240.8 192.032 240.8 198.107 240.8 204.181C240.022 205.019 239.245 205.856 238.466 206.693C237.183 208.076 233.253 212.32 229.733 216.127C226.213 219.933 222.103 224.351 220.599 225.945C219.097 227.538 217.867 228.999 217.867 229.193C217.867 229.385 219.141 231.685 220.698 234.304C223.193 238.5 230.7 251.425 236.441 261.407C237.518 263.281 238.4 264.946 238.4 265.108C238.4 265.3 238.051 265.346 237.399 265.238C236.85 265.147 228.15 265.071 218.067 265.07C211.955 265.069 205.844 265.068 199.733 265.067C199.734 255.978 199.735 246.889 199.738 237.801C199.739 228.711 199.74 219.622 199.741 210.533C200.474 209.778 201.206 209.022 201.939 208.267Z" fill="#FEFEFE"/>
<path d="M160.743 209.2C170.039 199.459 178.261 190.958 187.269 181.772C190.18 178.802 193.092 175.833 196.004 172.864C195.981 162.23 195.958 151.598 195.936 140.965C195.913 130.332 195.89 119.699 195.867 109.067C199.162 109.067 202.457 109.067 205.751 109.067C217.283 109.067 217.522 109.103 219.838 111.22C221.486 112.726 222.732 114.943 223.201 117.209C223.302 117.694 223.404 118.18 223.505 118.667C224.445 118.667 225.385 118.667 226.324 118.667C227.264 118.667 228.204 118.667 229.143 118.667C229.09 118.09 229.036 117.514 228.982 116.937C228.525 112.043 225.217 106.911 221.2 104.865C218.416 103.447 218.91 103.473 194.324 103.47C172.02 103.467 171.409 103.453 169.837 102.924C167.747 102.22 166.554 101.446 165.025 99.808C162.505 97.1051 161.867 94.9323 161.867 89.0453C161.867 87.6523 161.867 86.2613 161.867 84.8683C172.333 84.8235 182.8 84.7797 193.267 84.7349C223.804 84.6048 224.713 84.5867 226.324 84.0651C227.235 83.7696 228.495 83.2267 229.124 82.8576C230.579 82.0043 233.28 79.1872 234.268 77.4955C235.168 75.952 236.794 71.3675 236.798 70.3627C236.799 70.128 236.799 69.8933 236.8 69.6587C236.022 69.7003 235.245 69.7419 234.466 69.7835C231.678 69.9328 231.467 69.9872 231.467 70.5589C231.467 71.344 229.815 74.3829 228.7 75.6501C228.103 76.3275 226.989 77.2832 226.221 77.7739C223.453 79.5445 225.168 79.4667 189.01 79.4667C178.096 79.4667 167.181 79.4667 156.267 79.4667C156.268 76.6891 156.269 73.9115 156.271 71.1339C156.275 61.7056 156.405 60.7307 158.132 57.2C159.841 53.7045 161.613 51.9819 165.504 50.0309C171.879 46.8352 188.727 41.2459 196.933 39.6043C203.443 38.3008 206.98 38.0064 216.133 38.0043C227.562 38.0011 231.245 38.5931 236.256 41.2373C239.601 43.0027 242.334 45.0827 245.459 48.2421C252.357 55.2181 257.862 63.8037 260.641 71.92C262.522 77.4123 262.4 73.8165 262.4 123.795C262.4 138.846 262.4 153.897 262.4 168.947C260.454 171.078 258.509 173.209 256.563 175.34C253.353 178.857 249.75 182.753 248.557 184C247.835 184.755 247.111 185.511 246.388 186.267C246.446 180.778 246.506 175.289 246.563 169.801C246.673 159.555 246.643 153.333 246.487 153.333C246.221 153.333 234.506 165.3 225.865 174.4C223.009 177.407 217.913 182.747 214.537 186.267C211.162 189.787 205.549 195.676 202.063 199.353C195.181 206.613 193.746 207.954 190.619 210.047C186.853 212.569 183.702 213.842 179.546 214.526C177.386 214.88 175.071 214.941 166.166 214.877C162.578 214.851 158.989 214.826 155.401 214.8C157.181 212.933 158.963 211.067 160.743 209.2ZM213.78 45.3333C213.435 44.5269 212.884 43.3451 212.558 42.7083C212.359 42.3221 212.161 41.936 211.964 41.5499C211.466 42.1131 210.969 42.6773 210.47 43.2416C209.65 44.1717 206.718 47.2043 203.955 49.9787C201.194 52.7541 198.933 55.104 198.933 55.2011C198.933 55.4869 201.119 56.9707 202.215 57.4283C203.895 58.1301 205.594 58.2336 207.485 57.7515C210.202 57.0571 212.243 55.4325 213.539 52.9333C214.101 51.8496 214.247 51.1509 214.32 49.2C214.396 47.1477 214.318 46.5877 213.78 45.3333Z" fill="#FEFEFE"/>
<path d="M100.941 263.467C101.293 262.66 104.51 255.161 108.091 246.8C119.409 220.38 126.747 203.403 131.604 192.4C136.299 181.765 140.571 172.022 147.364 156.459C149.334 151.945 151.695 146.605 152.61 144.593C153.165 143.375 153.719 142.156 154.273 140.937C156.14 139.442 158.004 137.948 159.87 136.453C162.948 133.987 168.157 129.846 171.445 127.251C181.764 119.107 187.01 114.907 188.707 113.429C189.611 112.643 190.42 112 190.508 112C190.595 112 190.66 124.93 190.654 140.734C190.649 150.311 190.645 159.889 190.64 169.467C187.982 172.266 185.325 175.063 182.667 177.862C178.281 182.48 174.597 186.29 174.48 186.33C174.363 186.368 174.267 177.888 174.267 167.486C174.267 161.181 174.267 154.876 174.267 148.571C173.219 149.565 172.171 150.558 171.123 151.552C170.075 152.546 169.027 153.539 167.979 154.533C167.982 160.878 167.986 167.223 167.989 173.568C167.993 179.913 167.997 186.257 168 192.603C167.674 192.969 167.346 193.334 167.02 193.701C166.481 194.305 163.211 197.854 159.753 201.587C156.295 205.321 151.132 210.9 148.279 213.987C145.426 217.074 141.916 220.822 140.479 222.317C139.609 223.222 138.737 224.128 137.867 225.034C137.867 231.706 137.867 238.378 137.867 245.05C137.867 251.722 137.867 258.395 137.867 265.067C133.081 265.067 128.295 265.067 123.509 265.067C115.613 265.067 107.153 265.146 104.709 265.242C102.097 265.345 100.274 265.317 100.284 265.175C100.293 265.042 100.589 264.273 100.941 263.467Z" fill="#FEFEFE"/>
<path d="M28.4288 209.467C29.5349 201.925 33.4741 193.854 39.7515 186.267C42.432 183.027 48.7232 176.714 52.5333 173.441C56.8373 169.744 60.5333 166.844 60.7125 167.023C60.8779 167.188 58.8885 176.295 52.9525 202.555C49.4624 217.993 48.1824 224.004 48.3499 224.172C48.4053 224.228 52.64 221.147 57.7589 217.326C62.8779 213.504 68.2069 209.547 69.6 208.53C70.9931 207.514 74.2336 205.121 76.8 203.214C79.3664 201.307 83.0752 198.573 85.0421 197.139C93.6587 190.859 96.2944 188.944 98.8 187.145C100.267 186.091 104.706 182.831 108.667 179.9C125.087 167.745 140.483 156.661 140.677 156.855C140.748 156.926 140.336 157.991 139.764 159.225C139.191 160.458 137.014 165.247 134.927 169.867C129.76 181.3 122.537 196.343 120.602 199.702C113.151 212.638 100.594 223.782 84.9333 231.36C77.6064 234.907 71.744 236.734 64.8 237.638C61.0869 238.122 53.7707 238.036 50.5333 237.472C45.3312 236.564 40.3861 234.49 37.0123 231.797C34.9685 230.167 32.2848 226.834 30.9483 224.265C29.1904 220.884 28.4971 218.06 28.3968 213.867C28.3499 211.887 28.3637 209.906 28.4288 209.467Z" fill="#FEFEFE"/>
</g>
<defs>
<clipPath id="clip0_1_158">
<rect width="320" height="320" fill="white"/>
</clipPath>
</defs>
</svg>
