<svg width="477" height="202" viewBox="0 0 477 202" fill="none" xmlns="http://www.w3.org/2000/svg">
<g clip-path="url(#clip0_1_2)">
<mask id="mask0_1_2" style="mask-type:luminance" maskUnits="userSpaceOnUse" x="0" y="0" width="203" height="202">
<path d="M203 0H0V202H203V0Z" fill="white"/>
</mask>
<g mask="url(#mask0_1_2)">
<path d="M0 97.1286C0.386377 97.0111 0.48923 96.5131 0.56637 95.4179C0.985229 89.5005 1.15575 87.9937 1.88046 83.83C2.46916 80.444 3.42664 76.2544 4.24541 73.4775C4.4369 72.8292 4.69336 71.9587 4.81584 71.5415C5.1244 70.4948 6.40059 66.6865 6.64895 66.071C6.76123 65.7933 7.03059 65.1115 7.2478 64.556C7.9569 62.7452 8.31488 61.8739 8.63156 61.1891C8.80278 60.8189 9.10791 60.1367 9.30888 59.6741C9.88477 58.351 11.9425 54.2552 12.7761 52.7725C13.1923 52.0319 13.6078 51.2744 13.6991 51.0891C13.7911 50.904 14.0557 50.4495 14.2878 50.0791C14.5193 49.7089 14.8644 49.1405 15.0538 48.8166C15.5742 47.9258 17.8471 44.4029 18.1489 44.0191C18.2213 43.9262 18.8255 43.0934 19.4907 42.1675C22.4863 37.9982 26.1065 33.7737 30.0237 29.8758C33.9409 25.9779 38.1863 22.3755 42.3763 19.3947C43.3067 18.7328 44.1437 18.1315 44.2371 18.0595C44.6228 17.7591 48.1631 15.4974 49.0583 14.9796C49.3838 14.7911 49.9549 14.4477 50.3271 14.2175C50.6992 13.9865 51.156 13.7232 51.3421 13.6317C51.5282 13.5408 52.2894 13.1273 53.0337 12.7132C54.5238 11.8837 58.6399 9.83607 59.9696 9.26303C60.4344 9.06305 61.1199 8.75941 61.4921 8.58904C62.1802 8.27392 63.0559 7.91771 64.8756 7.21209C65.4339 6.99595 66.119 6.72793 66.3981 6.61619C67.0166 6.36906 70.8438 5.09916 71.8956 4.79212C72.3149 4.67024 73.1897 4.41504 73.8412 4.2245C76.6319 3.40976 80.8422 2.457 84.245 1.8712C88.4293 1.15006 89.9436 0.980375 95.8902 0.56358C96.9909 0.48682 97.4914 0.384474 97.5402 0.226914C97.5631 0.150826 97.5859 0.0754135 97.6094 0C100.203 0 102.797 0 105.391 0C105.753 0.397266 106.92 0.544054 109.704 0.748745C111.844 0.905636 113.9 1.09888 114.272 1.17766C114.644 1.25576 115.672 1.4039 116.556 1.50624C118.759 1.76212 122.905 2.5681 125.306 3.2091C125.979 3.38822 126.633 3.535 126.758 3.535C126.884 3.535 127.514 3.69188 128.157 3.88378C128.802 4.07568 129.86 4.38946 130.512 4.58204C132.223 5.08704 135.075 6.02634 136.348 6.50371C136.953 6.73064 137.867 7.07133 138.378 7.26121C139.378 7.63023 140.922 8.26451 142.016 8.75335C142.387 8.92032 143.261 9.31018 143.957 9.61993C146.911 10.937 153.008 14.2188 155.379 15.7688C158.517 17.8197 161.072 19.561 161.734 20.0997C161.973 20.2936 162.384 20.604 162.647 20.7891C163.277 21.2309 166.571 23.8454 167.221 24.4191C173.53 29.9869 179.045 35.8543 182.715 40.9017C183.218 41.5938 183.797 42.389 184 42.6692C186.209 45.7025 189.094 50.3411 190.917 53.7872C192.282 56.3701 192.611 57.0435 194.082 60.2634C195.063 62.4106 196.738 66.5659 196.747 66.8734C196.749 66.9876 196.899 67.384 197.079 67.754C197.259 68.1245 197.411 68.579 197.418 68.764C197.424 68.9495 197.576 69.404 197.756 69.774C197.936 70.1445 198.085 70.5731 198.088 70.7271C198.091 70.8812 198.238 71.4108 198.412 71.9051C198.587 72.3993 198.818 73.1448 198.925 73.5615C200.305 78.9315 200.642 80.4048 201.122 83.1565C201.773 86.8909 201.997 88.4766 202.157 90.479C202.409 93.6453 202.512 94.3353 202.765 94.5619C202.843 94.6313 202.921 94.7014 203 94.7715C203 98.98 203 103.189 203 107.396C202.522 107.714 202.453 108.066 202.15 111.774C202.048 113.023 201.897 114.311 201.817 114.635C201.736 114.959 201.622 115.678 201.564 116.234C201.367 118.117 200.545 122.293 199.773 125.324C199.117 127.899 197.988 131.842 197.749 132.394C197.668 132.58 197.401 133.337 197.156 134.078C196.617 135.706 195.589 138.421 195.051 139.633C194.969 139.817 194.521 140.841 194.055 141.905C192.877 144.602 189.915 150.382 188.882 152.005C188.676 152.329 187.869 153.617 187.089 154.866C186.31 156.116 185.593 157.227 185.497 157.336C185.401 157.443 184.98 158.037 184.561 158.653C184.142 159.27 183.495 160.179 183.123 160.673C182.751 161.168 182.294 161.781 182.108 162.035C177.829 167.892 168.656 177.021 162.839 181.211C162.582 181.396 161.965 181.851 161.469 182.221C160.972 182.591 160.059 183.235 159.439 183.651C158.819 184.069 158.223 184.487 158.115 184.583C158.006 184.679 156.889 185.392 155.633 186.167C154.378 186.943 153.083 187.746 152.757 187.952C151.127 188.98 145.318 191.927 142.607 193.099C141.538 193.563 140.51 194.008 140.324 194.09C139.106 194.625 136.378 195.648 134.741 196.185C133.997 196.429 133.236 196.694 133.049 196.775C132.494 197.013 128.533 198.136 125.944 198.789C122.898 199.557 118.702 200.375 116.809 200.571C116.251 200.629 115.528 200.742 115.202 200.823C114.877 200.903 113.582 201.053 112.327 201.154C108.869 201.434 108.247 201.525 108.08 201.772C108.03 201.849 107.979 201.924 107.928 202C103.699 202 99.47 202 95.2406 202C94.8892 201.527 94.4648 201.445 90.9269 201.163C88.9134 201.002 87.3135 200.778 83.5681 200.131C80.8029 199.654 79.3222 199.318 73.9256 197.945C73.5069 197.838 72.7577 197.608 72.261 197.435C71.7643 197.261 71.2321 197.115 71.0773 197.112C70.9225 197.11 70.4917 196.961 70.1194 196.781C69.7476 196.603 69.2909 196.451 69.1044 196.445C68.9185 196.439 68.4617 196.287 68.0894 196.109C67.7176 195.929 67.3192 195.78 67.2044 195.778C66.8955 195.769 62.7196 194.102 60.5617 193.126C57.3259 191.662 56.6492 191.335 54.0535 189.977C52.2874 189.051 51.0714 188.361 48.7193 186.947C47.6489 186.303 43.9048 183.833 42.8804 183.094C42.5989 182.891 41.7997 182.316 41.1041 181.815C36.0318 178.163 30.1353 172.675 24.54 166.398C23.9635 165.75 21.336 162.472 20.8921 161.846C20.706 161.584 20.3941 161.175 20.1992 160.937C19.735 160.372 18.8262 159.073 17.4445 156.998C16.8287 156.073 16.0911 154.97 15.8056 154.545C14.3758 152.417 10.9891 146.183 9.66756 143.248C9.35627 142.555 8.96448 141.686 8.79669 141.316C8.30543 140.228 7.66801 138.691 7.29715 137.696C7.10633 137.188 6.76396 136.279 6.5359 135.676C6.05617 134.41 5.11222 131.572 4.60472 129.869C4.41119 129.221 4.09586 128.167 3.90301 127.526C3.71016 126.886 3.5525 126.259 3.5525 126.133C3.5525 126.009 3.40499 125.359 3.22499 124.689C2.58081 122.3 1.77084 118.174 1.5137 115.981C1.41085 115.102 1.26198 114.08 1.18349 113.709C1.10432 113.339 0.910119 111.293 0.752451 109.164C0.546747 106.393 0.399233 105.233 0.232773 105.082C0.154957 105.012 0.0778169 104.942 0 104.871C0 102.291 0 99.7091 0 97.1286ZM18.0345 132.226C17.9932 132.503 17.9845 133.754 18.0142 135.004C18.0778 137.65 18.5177 139.433 19.6328 141.567C20.4807 143.189 22.1831 145.293 23.4797 146.322C25.6199 148.022 28.757 149.331 32.0571 149.904C34.1108 150.26 38.752 150.315 41.1075 150.009C45.5126 149.438 49.2316 148.285 53.8796 146.046C63.8143 141.262 71.7802 134.228 76.5069 126.062C77.7344 123.942 82.3165 114.446 85.5943 107.229C86.9183 104.312 88.2993 101.289 88.6628 100.511C89.0257 99.7318 89.287 99.0595 89.242 99.0147C89.1189 98.8923 79.3521 105.889 68.9356 113.562C66.4229 115.412 63.6069 117.47 62.6762 118.135C61.0868 119.271 59.4147 120.48 53.9486 124.444C52.7008 125.349 50.3481 127.075 48.72 128.279C47.0919 129.483 45.0362 130.993 44.1525 131.635C43.2687 132.277 39.8882 134.774 36.6408 137.187C33.3935 139.599 30.7071 141.544 30.672 141.509C30.5657 141.403 31.3777 137.608 33.5917 127.863C37.3574 111.286 38.6194 105.537 38.5145 105.433C38.4008 105.32 36.0562 107.151 33.3258 109.485C30.9088 111.551 26.9178 115.536 25.2174 117.581C21.2351 122.37 18.7362 127.465 18.0345 132.226ZM64.0344 166.314C63.8111 166.822 63.6234 167.308 63.6177 167.392C63.6113 167.481 64.7678 167.499 66.4248 167.434C67.9752 167.373 73.342 167.324 78.351 167.324C81.3871 167.324 84.4233 167.324 87.4594 167.324C87.4594 163.112 87.4594 158.9 87.4594 154.688C87.4594 150.476 87.4594 146.264 87.4594 142.053C88.0113 141.481 88.5645 140.909 89.1164 140.338C90.028 139.394 92.2546 137.028 94.0645 135.079C95.8744 133.131 99.1496 129.609 101.343 127.252C103.537 124.895 105.611 122.655 105.953 122.274C106.16 122.042 106.368 121.812 106.575 121.581C106.573 117.575 106.571 113.57 106.568 109.565C106.566 105.56 106.564 101.554 106.562 97.549C107.227 96.9215 107.891 96.2947 108.556 95.6672C109.221 95.0397 109.886 94.4129 110.551 93.7854C110.551 97.7655 110.551 101.746 110.551 105.726C110.551 112.292 110.612 117.645 110.686 117.621C110.76 117.596 113.097 115.191 115.879 112.275C117.566 110.509 119.251 108.743 120.937 106.976C120.94 100.93 120.943 94.8838 120.946 88.8383C120.95 78.8621 120.909 70.7 120.854 70.7C120.798 70.7 120.284 71.1059 119.711 71.6021C118.634 72.535 115.307 75.1863 108.76 80.3272C106.675 81.9653 103.37 84.5793 101.418 86.136C100.234 87.0797 99.0513 88.0228 97.8669 88.9665C97.5155 89.736 97.164 90.5055 96.812 91.2743C96.2315 92.5444 94.7338 95.9153 93.484 98.7647C89.1747 108.589 86.4647 114.739 83.4863 121.453C80.4051 128.398 75.7501 139.115 68.5702 155.793C66.2985 161.07 64.2577 165.804 64.0344 166.314ZM101.971 132.058C100.842 133.236 99.7117 134.414 98.5825 135.593C100.859 135.609 103.135 135.625 105.412 135.641C111.061 135.682 112.529 135.643 113.899 135.42C116.536 134.988 118.535 134.184 120.924 132.592C122.908 131.271 123.818 130.424 128.184 125.842C130.395 123.52 133.956 119.803 136.097 117.581C138.239 115.359 141.471 111.988 143.283 110.09C148.765 104.346 156.196 96.7915 156.365 96.7915C156.464 96.7915 156.483 100.719 156.413 107.187C156.377 110.651 156.339 114.116 156.302 117.581C156.761 117.104 157.22 116.627 157.678 116.15C158.435 115.363 160.721 112.903 162.757 110.683C163.992 109.338 165.225 107.993 166.46 106.648C166.46 97.1475 166.46 87.6465 166.46 78.1456C166.46 46.5967 166.537 48.8665 165.344 45.3995C163.581 40.2761 160.089 34.8564 155.713 30.4528C153.731 28.4585 151.997 27.1455 149.875 26.031C146.696 24.3619 144.36 23.9882 137.109 23.9902C131.303 23.9915 129.059 24.1774 124.929 25.0002C119.724 26.0365 109.036 29.5647 104.992 31.582C102.523 32.8136 101.399 33.901 100.315 36.1075C99.2194 38.3363 99.1369 38.9517 99.1344 44.9033C99.1331 46.6566 99.1325 48.41 99.1319 50.1634C106.055 50.1634 112.98 50.1634 119.903 50.1634C142.841 50.1634 141.753 50.2125 143.509 49.0948C143.996 48.785 144.703 48.1817 145.082 47.7541C145.789 46.9542 146.837 45.0359 146.837 44.5403C146.837 44.1794 146.971 44.1451 148.739 44.0508C149.234 44.0246 149.726 43.9983 150.22 43.9721C150.219 44.1201 150.219 44.2683 150.219 44.4165C150.216 45.0507 149.185 47.9447 148.614 48.919C147.987 49.9869 146.274 51.7652 145.351 52.3039C144.952 52.5369 144.152 52.8796 143.574 53.0661C142.552 53.3954 141.976 53.4068 122.604 53.4889C115.964 53.5172 109.324 53.5448 102.684 53.5731C102.684 54.4524 102.684 55.3305 102.684 56.2098C102.684 59.926 103.089 61.2976 104.688 63.0038C105.658 64.0378 106.415 64.5264 107.74 64.9708C108.738 65.3047 109.125 65.3135 123.274 65.3154C138.871 65.3173 138.558 65.3009 140.324 66.196C142.872 67.4876 144.971 70.7271 145.26 73.8165C145.295 74.1807 145.329 74.5443 145.363 74.9085C144.767 74.9085 144.171 74.9085 143.574 74.9085C142.979 74.9085 142.382 74.9085 141.786 74.9085C141.722 74.6011 141.657 74.2943 141.593 73.9882C141.296 72.5578 140.505 71.1583 139.46 70.2076C137.991 68.8713 137.839 68.8485 130.523 68.8485C128.434 68.8485 126.343 68.8485 124.253 68.8485C124.268 75.56 124.282 82.2721 124.297 88.9842C124.311 95.6962 124.325 102.408 124.34 109.12C122.493 110.995 120.645 112.869 118.799 114.744C113.084 120.542 107.868 125.908 101.971 132.058ZM128.105 131.469C127.64 131.945 127.176 132.422 126.711 132.899C126.71 138.636 126.709 144.374 126.709 150.112C126.707 155.849 126.706 161.586 126.706 167.324C130.582 167.324 134.459 167.325 138.336 167.325C144.733 167.326 150.252 167.374 150.6 167.431C151.014 167.5 151.235 167.471 151.235 167.349C151.235 167.247 150.675 166.196 149.992 165.013C146.35 158.712 141.588 150.553 140.005 147.904C139.018 146.251 138.209 144.799 138.209 144.678C138.209 144.556 138.99 143.633 139.942 142.628C140.897 141.622 143.504 138.833 145.737 136.43C147.97 134.027 150.463 131.348 151.277 130.475C151.771 129.947 152.264 129.418 152.757 128.889C152.757 125.055 152.757 121.22 152.757 117.385C152.757 111.058 152.694 105.881 152.617 105.881C152.54 105.881 151.683 106.74 150.714 107.79C149.013 109.631 130.95 128.55 128.105 131.469Z" fill="#A41D16"/>
<path d="M135.617 28.6166C135.958 29.4085 136.007 29.762 135.959 31.0575C135.913 32.289 135.82 32.7301 135.464 33.4141C134.642 34.9918 133.347 36.0173 131.623 36.4556C130.424 36.76 129.346 36.6946 128.28 36.2516C127.585 35.9628 126.198 35.0261 126.198 34.8457C126.198 34.7844 127.632 33.301 129.384 31.5491C131.137 29.7977 132.997 27.8834 133.517 27.2963C133.833 26.94 134.149 26.5839 134.465 26.2284C134.59 26.4721 134.715 26.7158 134.841 26.9596C135.048 27.3616 135.398 28.1076 135.617 28.6166Z" fill="#A41D16"/>
<path d="M128.105 131.469C130.95 128.55 149.013 109.631 150.714 107.79C151.683 106.74 152.54 105.881 152.617 105.881C152.694 105.881 152.757 111.058 152.757 117.385C152.757 121.22 152.757 125.055 152.757 128.889C152.264 129.418 151.771 129.947 151.277 130.475C150.463 131.348 147.97 134.027 145.737 136.43C143.504 138.833 140.897 141.622 139.942 142.628C138.99 143.633 138.209 144.556 138.209 144.678C138.209 144.799 139.018 146.251 140.005 147.904C141.588 150.553 146.35 158.712 149.992 165.013C150.675 166.196 151.235 167.247 151.235 167.349C151.235 167.471 151.014 167.5 150.6 167.431C150.252 167.374 144.733 167.326 138.336 167.325C134.459 167.325 130.582 167.324 126.706 167.324C126.706 161.586 126.707 155.849 126.709 150.112C126.709 144.374 126.71 138.636 126.711 132.899C127.176 132.422 127.64 131.945 128.105 131.469Z" fill="white"/>
<path d="M101.971 132.058C107.868 125.908 113.084 120.542 118.799 114.744C120.645 112.869 122.493 110.995 124.34 109.12C124.325 102.408 124.311 95.6962 124.297 88.9842C124.282 82.2721 124.268 75.56 124.253 68.8485C126.343 68.8485 128.434 68.8485 130.523 68.8485C137.839 68.8485 137.991 68.8713 139.46 70.2076C140.505 71.1583 141.296 72.5578 141.593 73.9882C141.657 74.2943 141.722 74.6011 141.786 74.9085C142.382 74.9085 142.979 74.9085 143.574 74.9085C144.171 74.9085 144.767 74.9085 145.363 74.9085C145.329 74.5443 145.295 74.1807 145.26 73.8165C144.971 70.7271 142.872 67.4876 140.324 66.196C138.558 65.3009 138.871 65.3173 123.274 65.3154C109.125 65.3135 108.738 65.3047 107.74 64.9708C106.415 64.5264 105.658 64.0378 104.688 63.0038C103.089 61.2976 102.684 59.926 102.684 56.2098C102.684 55.3305 102.684 54.4524 102.684 53.5731C109.324 53.5448 115.964 53.5172 122.604 53.4889C141.976 53.4068 142.552 53.3954 143.574 53.0661C144.152 52.8796 144.952 52.5369 145.351 52.3039C146.274 51.7652 147.987 49.9869 148.614 48.919C149.185 47.9447 150.216 45.0507 150.219 44.4165C150.219 44.2683 150.219 44.1201 150.22 43.9721C149.726 43.9983 149.234 44.0246 148.739 44.0508C146.971 44.1451 146.837 44.1794 146.837 44.5403C146.837 45.0359 145.789 46.9542 145.082 47.7541C144.703 48.1817 143.996 48.785 143.509 49.0948C141.753 50.2125 142.841 50.1634 119.903 50.1634C112.98 50.1634 106.055 50.1634 99.1319 50.1634C99.1325 48.41 99.1331 46.6566 99.1344 44.9033C99.137 38.9517 99.2194 38.3363 100.315 36.1075C101.399 33.901 102.523 32.8136 104.992 31.582C109.036 29.5647 119.724 26.0365 124.929 25.0002C129.059 24.1774 131.303 23.9915 137.109 23.9902C144.36 23.9882 146.696 24.3619 149.875 26.031C151.997 27.1455 153.731 28.4585 155.713 30.4528C160.089 34.8564 163.581 40.2761 165.344 45.3995C166.537 48.8665 166.46 46.5967 166.46 78.1456C166.46 87.6465 166.46 97.1475 166.46 106.648C165.226 107.993 163.992 109.338 162.757 110.683C160.721 112.903 158.435 115.363 157.678 116.15C157.22 116.627 156.761 117.104 156.302 117.581C156.339 114.116 156.377 110.651 156.413 107.187C156.483 100.719 156.464 96.7915 156.365 96.7915C156.196 96.7915 148.765 104.346 143.283 110.09C141.471 111.988 138.239 115.359 136.097 117.581C133.956 119.803 130.395 123.52 128.184 125.842C123.818 130.424 122.908 131.271 120.924 132.592C118.535 134.184 116.536 134.988 113.899 135.42C112.529 135.643 111.061 135.682 105.412 135.641C103.135 135.625 100.859 135.609 98.5825 135.593C99.7117 134.414 100.842 133.236 101.971 132.058ZM135.617 28.6166C135.398 28.1076 135.048 27.3616 134.841 26.9596C134.715 26.7158 134.59 26.4721 134.465 26.2284C134.149 26.5839 133.833 26.94 133.517 27.2963C132.997 27.8834 131.137 29.7977 129.384 31.5491C127.632 33.301 126.198 34.7844 126.198 34.8457C126.198 35.0261 127.585 35.9628 128.28 36.2516C129.346 36.6946 130.424 36.76 131.623 36.4556C133.347 36.0173 134.642 34.9918 135.464 33.4141C135.82 32.7301 135.913 32.289 135.959 31.0575C136.007 29.762 135.958 29.4085 135.617 28.6166Z" fill="white"/>
<path d="M64.0345 166.314C64.2578 165.804 66.2985 161.07 68.5702 155.793C75.7501 139.115 80.4051 128.398 83.4863 121.452C86.4647 114.739 89.1747 108.589 93.484 98.7647C94.7338 95.9153 96.2315 92.5444 96.812 91.2743C97.164 90.5055 97.5155 89.736 97.8669 88.9665C99.0513 88.0228 100.234 87.0797 101.418 86.136C103.37 84.5793 106.675 81.9653 108.76 80.3272C115.307 75.1863 118.634 72.535 119.711 71.6021C120.284 71.1059 120.798 70.7 120.854 70.7C120.909 70.7 120.95 78.8621 120.946 88.8383C120.943 94.8838 120.94 100.93 120.937 106.976C119.251 108.743 117.566 110.509 115.879 112.275C113.097 115.191 110.76 117.596 110.686 117.621C110.612 117.645 110.551 112.292 110.551 105.726C110.551 101.746 110.551 97.7655 110.551 93.7854C109.886 94.4129 109.221 95.0397 108.556 95.6672C107.891 96.2947 107.227 96.9215 106.562 97.549C106.564 101.554 106.566 105.56 106.568 109.565C106.571 113.57 106.573 117.575 106.575 121.581C106.368 121.812 106.16 122.042 105.953 122.274C105.611 122.655 103.537 124.895 101.343 127.252C99.1496 129.609 95.8744 133.131 94.0645 135.079C92.2546 137.028 90.028 139.394 89.1164 140.338C88.5645 140.909 88.0113 141.481 87.4594 142.053C87.4594 146.264 87.4594 150.476 87.4594 154.688C87.4594 158.9 87.4594 163.112 87.4594 167.324C84.4233 167.324 81.3871 167.324 78.351 167.324C73.342 167.324 67.9752 167.373 66.4248 167.434C64.7678 167.499 63.6113 167.481 63.6177 167.392C63.6234 167.308 63.8112 166.822 64.0345 166.314Z" fill="white"/>
<path d="M18.0345 132.226C18.7362 127.465 21.2351 122.37 25.2174 117.581C26.9178 115.536 30.9088 111.551 33.3258 109.485C36.0562 107.151 38.4008 105.32 38.5145 105.433C38.6194 105.537 37.3574 111.286 33.5917 127.863C31.3777 137.608 30.5657 141.403 30.672 141.509C30.7071 141.544 33.3935 139.599 36.6408 137.187C39.8882 134.774 43.2688 132.277 44.1525 131.635C45.0362 130.993 47.0919 129.483 48.72 128.279C50.3481 127.075 52.7008 125.349 53.9486 124.444C59.4147 120.48 61.0868 119.271 62.6762 118.135C63.6069 117.47 66.4229 115.412 68.9356 113.562C79.3521 105.889 89.1189 98.8923 89.242 99.0147C89.287 99.0595 89.0257 99.7318 88.6628 100.511C88.2993 101.289 86.9183 104.312 85.5943 107.229C82.3165 114.446 77.7344 123.942 76.5069 126.062C71.7802 134.228 63.8143 141.262 53.8796 146.046C49.2316 148.285 45.5126 149.438 41.1075 150.009C38.752 150.315 34.1108 150.26 32.0571 149.904C28.757 149.331 25.6199 148.022 23.4797 146.322C22.1831 145.293 20.4807 143.189 19.6328 141.567C18.5177 139.433 18.0778 137.65 18.0142 135.004C17.9845 133.754 17.9932 132.503 18.0345 132.226Z" fill="white"/>
</g>
</g>
<path d="M243 132.119V42H278.494C285.288 42 291.086 43.2174 295.889 45.6523C300.721 48.0578 304.396 51.4754 306.915 55.9051C309.463 60.3055 310.737 65.4832 310.737 71.4384C310.737 77.4229 309.448 82.5713 306.871 86.8836C304.294 91.1667 300.56 94.4523 295.669 96.7405C290.808 99.0286 284.922 100.173 278.01 100.173H254.245V84.8595H274.935C278.567 84.8595 281.583 84.3608 283.985 83.3634C286.386 82.366 288.172 80.8698 289.344 78.875C290.544 76.8802 291.145 74.4013 291.145 71.4384C291.145 68.4462 290.544 65.9233 289.344 63.8698C288.172 61.8163 286.371 60.2615 283.941 59.2054C281.539 58.12 278.508 57.5773 274.848 57.5773H262.021V132.119H243ZM291.584 91.108L313.943 132.119H292.946L271.07 91.108H291.584Z" fill="#A41D16"/>
<path d="M324.178 132.119V42H384.799V57.7093H343.199V79.183H381.68V94.8923H343.199V116.41H384.974V132.119H324.178Z" fill="#A41D16"/>
<path d="M417.755 42L435.898 72.7145H436.6L454.83 42H476.311L448.856 87.0597L476.926 132.119H455.05L436.6 101.361H435.898L417.448 132.119H395.66L423.817 87.0597L396.187 42H417.755Z" fill="#A41D16"/>
<path d="M249.873 148.514C249.812 148.005 249.559 147.611 249.115 147.331C248.672 147.048 248.113 146.907 247.44 146.907C246.958 146.907 246.542 146.978 246.19 147.122C245.838 147.261 245.564 147.455 245.369 147.702C245.178 147.946 245.082 148.224 245.082 148.535C245.082 148.797 245.147 149.023 245.278 149.213C245.411 149.402 245.585 149.562 245.8 149.691C246.018 149.816 246.251 149.922 246.499 150.008C246.748 150.09 246.987 150.159 247.217 150.212L248.364 150.492C248.739 150.578 249.123 150.694 249.517 150.841C249.911 150.988 250.276 151.182 250.613 151.422C250.949 151.662 251.221 151.959 251.427 152.314C251.638 152.669 251.743 153.093 251.743 153.588C251.743 154.211 251.571 154.765 251.227 155.249C250.886 155.732 250.391 156.114 249.741 156.393C249.094 156.673 248.312 156.813 247.394 156.813C246.515 156.813 245.754 156.682 245.111 156.42C244.469 156.159 243.966 155.788 243.602 155.308C243.239 154.824 243.038 154.251 243 153.588H244.778C244.813 153.985 244.951 154.317 245.191 154.582C245.436 154.844 245.748 155.039 246.127 155.168C246.509 155.293 246.928 155.356 247.383 155.356C247.884 155.356 248.33 155.283 248.72 155.136C249.114 154.985 249.423 154.777 249.649 154.512C249.875 154.243 249.987 153.93 249.987 153.572C249.987 153.246 249.888 152.979 249.689 152.771C249.494 152.563 249.228 152.391 248.892 152.255C248.559 152.119 248.182 151.999 247.762 151.895L246.373 151.54C245.432 151.3 244.687 150.947 244.136 150.481C243.589 150.015 243.316 149.399 243.316 148.632C243.316 147.998 243.499 147.444 243.866 146.971C244.233 146.498 244.731 146.131 245.358 145.869C245.985 145.604 246.693 145.472 247.48 145.472C248.276 145.472 248.978 145.602 249.586 145.864C250.198 146.126 250.68 146.486 251.032 146.944C251.383 147.399 251.567 147.923 251.582 148.514H249.873Z" fill="#A41D16"/>
<path d="M264.067 151.126C264.067 152.301 263.838 153.312 263.379 154.157C262.92 155 262.291 155.648 261.491 156.103C260.696 156.555 259.791 156.78 258.778 156.78C257.76 156.78 256.852 156.555 256.053 156.103C255.257 155.648 254.63 154.998 254.171 154.152C253.712 153.306 253.483 152.298 253.483 151.126C253.483 149.951 253.712 148.942 254.171 148.1C254.63 147.254 255.257 146.606 256.053 146.154C256.852 145.699 257.76 145.472 258.778 145.472C259.791 145.472 260.696 145.699 261.491 146.154C262.291 146.606 262.92 147.254 263.379 148.1C263.838 148.942 264.067 149.951 264.067 151.126ZM262.312 151.126C262.312 150.23 262.157 149.476 261.847 148.863C261.541 148.247 261.12 147.781 260.585 147.466C260.053 147.147 259.451 146.987 258.778 146.987C258.101 146.987 257.497 147.147 256.965 147.466C256.433 147.781 256.013 148.247 255.703 148.863C255.397 149.476 255.244 150.23 255.244 151.126C255.244 152.022 255.397 152.778 255.703 153.394C256.013 154.007 256.433 154.473 256.965 154.792C257.497 155.107 258.101 155.265 258.778 155.265C259.451 155.265 260.053 155.107 260.585 154.792C261.12 154.473 261.541 154.007 261.847 153.394C262.157 152.778 262.312 152.022 262.312 151.126Z" fill="#A41D16"/>
<path d="M266.277 156.63V145.622H268.05V155.2H273.374V156.63H266.277Z" fill="#A41D16"/>
<path d="M282.951 145.622H284.73V152.862C284.73 153.633 284.537 154.315 284.15 154.91C283.764 155.501 283.221 155.967 282.521 156.307C281.821 156.644 281.001 156.813 280.06 156.813C279.123 156.813 278.305 156.644 277.605 156.307C276.905 155.967 276.362 155.501 275.975 154.91C275.589 154.315 275.396 153.633 275.396 152.862V145.622H277.169V152.728C277.169 153.226 277.285 153.668 277.519 154.055C277.756 154.442 278.09 154.747 278.523 154.969C278.955 155.188 279.467 155.297 280.06 155.297C280.657 155.297 281.171 155.188 281.603 154.969C282.039 154.747 282.372 154.442 282.601 154.055C282.835 153.668 282.951 153.226 282.951 152.728V145.622Z" fill="#A41D16"/>
<path d="M297.065 149.202H295.276C295.207 148.843 295.079 148.528 294.891 148.256C294.704 147.983 294.474 147.752 294.203 147.562C293.931 147.373 293.627 147.229 293.291 147.132C292.958 147.036 292.604 146.987 292.229 146.987C291.552 146.987 290.946 147.147 290.411 147.466C289.879 147.785 289.458 148.252 289.149 148.869C288.843 149.485 288.69 150.237 288.69 151.126C288.69 152.022 288.843 152.778 289.149 153.394C289.458 154.011 289.881 154.476 290.416 154.792C290.952 155.107 291.554 155.265 292.224 155.265C292.595 155.265 292.946 155.218 293.279 155.125C293.616 155.028 293.92 154.887 294.191 154.7C294.463 154.514 294.692 154.286 294.88 154.018C295.071 153.745 295.203 153.434 295.276 153.082L297.065 153.088C296.97 153.629 296.784 154.127 296.509 154.582C296.237 155.034 295.887 155.424 295.459 155.754C295.035 156.08 294.549 156.333 294.002 156.512C293.455 156.691 292.858 156.78 292.212 156.78C291.195 156.78 290.288 156.555 289.493 156.103C288.697 155.648 288.07 154.998 287.611 154.152C287.156 153.306 286.928 152.298 286.928 151.126C286.928 149.951 287.158 148.942 287.617 148.1C288.076 147.254 288.703 146.606 289.499 146.154C290.294 145.699 291.199 145.472 292.212 145.472C292.835 145.472 293.417 145.556 293.956 145.724C294.499 145.889 294.987 146.133 295.419 146.455C295.851 146.774 296.209 147.165 296.492 147.627C296.775 148.086 296.966 148.611 297.065 149.202ZM291.61 156.646H292.734L292.642 157.087C292.975 157.137 293.266 157.262 293.514 157.463C293.763 157.664 293.887 157.966 293.887 158.371C293.891 158.855 293.667 159.248 293.216 159.549C292.769 159.85 292.12 160 291.271 160L291.237 159.102C291.635 159.102 291.956 159.049 292.201 158.941C292.449 158.834 292.575 158.66 292.579 158.42C292.583 158.18 292.487 158.011 292.292 157.915C292.101 157.818 291.795 157.75 291.374 157.71L291.61 156.646Z" fill="#A41D16"/>
<path d="M309.392 151.126C309.392 152.301 309.163 153.312 308.704 154.157C308.245 155 307.616 155.648 306.817 156.103C306.021 156.555 305.117 156.78 304.103 156.78C303.086 156.78 302.177 156.555 301.378 156.103C300.583 155.648 299.955 154.998 299.496 154.152C299.037 153.306 298.808 152.298 298.808 151.126C298.808 149.951 299.037 148.942 299.496 148.1C299.955 147.254 300.583 146.606 301.378 146.154C302.177 145.699 303.086 145.472 304.103 145.472C305.117 145.472 306.021 145.699 306.817 146.154C307.616 146.606 308.245 147.254 308.704 148.1C309.163 148.942 309.392 149.951 309.392 151.126ZM307.637 151.126C307.637 150.23 307.482 149.476 307.172 148.863C306.866 148.247 306.446 147.781 305.91 147.466C305.379 147.147 304.776 146.987 304.103 146.987C303.426 146.987 302.822 147.147 302.29 147.466C301.759 147.781 301.338 148.247 301.028 148.863C300.722 149.476 300.569 150.23 300.569 151.126C300.569 152.022 300.722 152.778 301.028 153.394C301.338 154.007 301.759 154.473 302.29 154.792C302.822 155.107 303.426 155.265 304.103 155.265C304.776 155.265 305.379 155.107 305.91 154.792C306.446 154.473 306.866 154.007 307.172 153.394C307.482 152.778 307.637 152.022 307.637 151.126ZM302.376 144.531L301.217 144.493C301.217 143.902 301.39 143.429 301.734 143.074C302.078 142.72 302.501 142.54 303.002 142.537C303.239 142.537 303.445 142.574 303.621 142.65C303.797 142.721 303.962 142.806 304.115 142.902C304.268 142.999 304.422 143.085 304.579 143.16C304.736 143.232 304.91 143.268 305.101 143.268C305.319 143.264 305.497 143.185 305.635 143.031C305.776 142.874 305.847 142.678 305.847 142.446L306.983 142.515C306.979 143.114 306.805 143.585 306.461 143.929C306.121 144.269 305.7 144.44 305.199 144.44C304.927 144.44 304.702 144.404 304.522 144.332C304.342 144.257 304.183 144.173 304.046 144.079C303.908 143.983 303.767 143.899 303.621 143.827C303.476 143.752 303.302 143.714 303.099 143.714C302.889 143.714 302.715 143.791 302.577 143.945C302.443 144.099 302.376 144.294 302.376 144.531Z" fill="#A41D16"/>
<path d="M311.603 156.63V145.622H318.969V147.052H313.375V150.406H318.584V151.83H313.375V155.2H319.038V156.63H311.603Z" fill="#A41D16"/>
<path d="M327.745 148.514C327.683 148.005 327.431 147.611 326.987 147.331C326.544 147.048 325.985 146.907 325.312 146.907C324.83 146.907 324.413 146.978 324.062 147.122C323.71 147.261 323.436 147.455 323.241 147.702C323.05 147.946 322.954 148.224 322.954 148.535C322.954 148.797 323.019 149.023 323.149 149.213C323.283 149.402 323.457 149.562 323.671 149.691C323.889 149.816 324.123 149.922 324.371 150.008C324.62 150.09 324.859 150.159 325.088 150.212L326.236 150.492C326.611 150.578 326.995 150.694 327.389 150.841C327.783 150.988 328.148 151.182 328.485 151.422C328.821 151.662 329.093 151.959 329.299 152.314C329.51 152.669 329.615 153.093 329.615 153.588C329.615 154.211 329.443 154.765 329.099 155.249C328.758 155.732 328.263 156.114 327.613 156.393C326.966 156.673 326.184 156.813 325.266 156.813C324.387 156.813 323.626 156.682 322.983 156.42C322.341 156.159 321.838 155.788 321.474 155.308C321.111 154.824 320.91 154.251 320.872 153.588H322.65C322.685 153.985 322.822 154.317 323.063 154.582C323.308 154.844 323.62 155.039 323.998 155.168C324.381 155.293 324.8 155.356 325.255 155.356C325.756 155.356 326.201 155.283 326.592 155.136C326.985 154.985 327.295 154.777 327.521 154.512C327.747 154.243 327.859 153.93 327.859 153.572C327.859 153.246 327.76 152.979 327.561 152.771C327.366 152.563 327.1 152.391 326.764 152.255C326.431 152.119 326.054 151.999 325.633 151.895L324.245 151.54C323.304 151.3 322.559 150.947 322.008 150.481C321.461 150.015 321.187 149.399 321.187 148.632C321.187 147.998 321.371 147.444 321.738 146.971C322.105 146.498 322.602 146.131 323.23 145.869C323.857 145.604 324.565 145.472 325.352 145.472C326.148 145.472 326.85 145.602 327.458 145.864C328.07 146.126 328.552 146.486 328.903 146.944C329.255 147.399 329.439 147.923 329.454 148.514H327.745Z" fill="#A41D16"/>
<path d="M336.009 156.63V145.622H340.196C341.111 145.622 341.868 145.778 342.468 146.09C343.069 146.401 343.518 146.828 343.816 147.369C344.115 147.906 344.264 148.512 344.264 149.186C344.264 149.863 344.113 150.472 343.811 151.013C343.512 151.551 343.061 151.977 342.457 152.292C341.856 152.604 341.101 152.76 340.191 152.76H337.311V151.352H340.03C340.608 151.352 341.076 151.259 341.436 151.072C341.795 150.882 342.059 150.624 342.227 150.298C342.396 149.972 342.48 149.601 342.48 149.186C342.48 148.77 342.396 148.401 342.227 148.078C342.059 147.756 341.793 147.503 341.43 147.321C341.07 147.138 340.596 147.046 340.007 147.046H337.781V156.63H336.009Z" fill="#A41D16"/>
<path d="M346.088 156.63H344.206L348.435 145.622H350.483L354.711 156.63H352.829L349.507 147.622H349.416L346.088 156.63ZM346.404 152.319H352.508V153.717H346.404V152.319Z" fill="#A41D16"/>
<path d="M356.407 156.63V145.622H360.595C361.505 145.622 362.261 145.769 362.861 146.063C363.466 146.357 363.917 146.763 364.215 147.283C364.513 147.799 364.663 148.396 364.663 149.073C364.663 149.746 364.512 150.339 364.209 150.852C363.911 151.361 363.46 151.757 362.856 152.04C362.255 152.323 361.5 152.464 360.589 152.464H357.417V151.035H360.429C361.003 151.035 361.469 150.958 361.829 150.804C362.192 150.649 362.458 150.425 362.626 150.132C362.794 149.838 362.878 149.485 362.878 149.073C362.878 148.657 362.792 148.297 362.62 147.992C362.452 147.688 362.186 147.455 361.823 147.294C361.463 147.129 360.991 147.046 360.406 147.046H358.18V156.63H356.407ZM362.207 151.663L365.11 156.63H363.091L360.245 151.663H362.207Z" fill="#A41D16"/>
<path d="M367.812 156.63H365.93L370.159 145.622H372.207L376.435 156.63H374.553L371.231 147.622H371.14L367.812 156.63ZM368.128 152.319H374.232V153.717H368.128V152.319Z" fill="#A41D16"/>
<path d="M382.407 145.622H384.558L388.298 154.179H388.436L392.177 145.622H394.328V156.63H392.641V148.664H392.532L389.067 156.614H387.667L384.202 148.659H384.093V156.63H382.407V145.622Z" fill="#A41D16"/>
<path d="M398.678 145.622V156.63H396.905V145.622H398.678Z" fill="#A41D16"/>
<path d="M410.742 145.622V156.63H409.113L403.141 148.557H403.032V156.63H401.259V145.622H402.9L408.878 153.706H408.987V145.622H410.742Z" fill="#A41D16"/>
<path d="M413.328 156.63V145.622H420.694V147.052H415.101V150.406H420.31V151.83H415.101V155.2H420.763V156.63H413.328Z" fill="#A41D16"/>
<path d="M423.062 156.63V145.622H427.25C428.16 145.622 428.916 145.769 429.516 146.063C430.12 146.357 430.572 146.763 430.87 147.283C431.168 147.799 431.318 148.396 431.318 149.073C431.318 149.746 431.166 150.339 430.864 150.852C430.566 151.361 430.115 151.757 429.51 152.04C428.91 152.323 428.155 152.464 427.244 152.464H424.072V151.035H427.084C427.657 151.035 428.124 150.958 428.484 150.804C428.847 150.649 429.113 150.425 429.281 150.132C429.449 149.838 429.533 149.485 429.533 149.073C429.533 148.657 429.447 148.297 429.275 147.992C429.107 147.688 428.841 147.455 428.478 147.294C428.118 147.129 427.646 147.046 427.061 147.046H424.835V156.63H423.062ZM428.862 151.663L431.765 156.63H429.746L426.9 151.663H428.862Z" fill="#A41D16"/>
<path d="M434.467 156.63H432.585L436.813 145.622H438.862L443.09 156.63H441.208L437.886 147.622H437.794L434.467 156.63ZM434.783 152.319H440.887V153.717H434.783V152.319Z" fill="#A41D16"/>
<path d="M453.992 149.202H452.203C452.134 148.843 452.006 148.528 451.818 148.256C451.631 147.983 451.401 147.752 451.13 147.562C450.858 147.373 450.554 147.229 450.218 147.132C449.885 147.036 449.531 146.987 449.156 146.987C448.479 146.987 447.873 147.147 447.338 147.466C446.806 147.785 446.385 148.252 446.076 148.869C445.77 149.485 445.617 150.237 445.617 151.126C445.617 152.022 445.77 152.778 446.076 153.394C446.385 154.011 446.808 154.476 447.343 154.792C447.879 155.107 448.481 155.265 449.151 155.265C449.522 155.265 449.873 155.218 450.206 155.125C450.543 155.028 450.847 154.887 451.118 154.7C451.39 154.514 451.619 154.286 451.807 154.018C451.998 153.745 452.13 153.434 452.203 153.082L453.992 153.088C453.897 153.629 453.711 154.127 453.436 154.582C453.164 155.034 452.814 155.424 452.386 155.754C451.962 156.08 451.476 156.333 450.929 156.512C450.382 156.691 449.785 156.78 449.139 156.78C448.122 156.78 447.215 156.555 446.42 156.103C445.624 155.648 444.997 154.998 444.538 154.152C444.083 153.306 443.855 152.298 443.855 151.126C443.855 149.951 444.085 148.942 444.544 148.1C445.003 147.254 445.63 146.606 446.426 146.154C447.221 145.699 448.126 145.472 449.139 145.472C449.762 145.472 450.344 145.556 450.883 145.724C451.426 145.889 451.914 146.133 452.346 146.455C452.778 146.774 453.136 147.165 453.419 147.627C453.702 148.086 453.893 148.611 453.992 149.202ZM448.537 156.646H449.661L449.569 157.087C449.902 157.137 450.193 157.262 450.441 157.463C450.69 157.664 450.814 157.966 450.814 158.371C450.818 158.855 450.594 159.248 450.143 159.549C449.696 159.85 449.047 160 448.198 160L448.164 159.102C448.562 159.102 448.883 159.049 449.128 158.941C449.376 158.834 449.502 158.66 449.506 158.42C449.51 158.18 449.414 158.011 449.219 157.915C449.028 157.818 448.722 157.75 448.301 157.71L448.537 156.646Z" fill="#A41D16"/>
<path d="M457.027 156.63H455.146L459.374 145.622H461.422L465.65 156.63H463.768L460.446 147.622H460.355L457.027 156.63ZM457.343 152.319H463.447V153.717H457.343V152.319ZM458.674 144.531L457.515 144.493C457.515 143.902 457.687 143.429 458.031 143.074C458.375 142.72 458.798 142.54 459.299 142.537C459.536 142.537 459.743 142.574 459.919 142.65C460.095 142.721 460.259 142.806 460.412 142.902C460.565 142.999 460.72 143.085 460.877 143.16C461.033 143.232 461.207 143.268 461.399 143.268C461.617 143.264 461.795 143.185 461.932 143.031C462.074 142.874 462.144 142.678 462.144 142.446L463.28 142.515C463.277 143.114 463.103 143.585 462.758 143.929C462.418 144.269 461.997 144.44 461.496 144.44C461.225 144.44 460.999 144.404 460.819 144.332C460.64 144.257 460.481 144.173 460.343 144.079C460.205 143.983 460.064 143.899 459.919 143.827C459.773 143.752 459.599 143.714 459.397 143.714C459.186 143.714 459.012 143.791 458.874 143.945C458.741 144.099 458.674 144.294 458.674 144.531Z" fill="#A41D16"/>
<path d="M477 151.126C477 152.301 476.771 153.312 476.312 154.157C475.853 155 475.224 155.648 474.424 156.103C473.629 156.555 472.724 156.78 471.711 156.78C470.693 156.78 469.785 156.555 468.986 156.103C468.19 155.648 467.563 154.998 467.104 154.152C466.645 153.306 466.416 152.298 466.416 151.126C466.416 149.951 466.645 148.942 467.104 148.1C467.563 147.254 468.19 146.606 468.986 146.154C469.785 145.699 470.693 145.472 471.711 145.472C472.724 145.472 473.629 145.699 474.424 146.154C475.224 146.606 475.853 147.254 476.312 148.1C476.771 148.942 477 149.951 477 151.126ZM475.245 151.126C475.245 150.23 475.09 149.476 474.78 148.863C474.474 148.247 474.053 147.781 473.518 147.466C472.986 147.147 472.384 146.987 471.711 146.987C471.034 146.987 470.429 147.147 469.898 147.466C469.366 147.781 468.945 148.247 468.636 148.863C468.33 149.476 468.177 150.23 468.177 151.126C468.177 152.022 468.33 152.778 468.636 153.394C468.945 154.007 469.366 154.473 469.898 154.792C470.429 155.107 471.034 155.265 471.711 155.265C472.384 155.265 472.986 155.107 473.518 154.792C474.053 154.473 474.474 154.007 474.78 153.394C475.09 152.778 475.245 152.022 475.245 151.126Z" fill="#A41D16"/>
<defs>
<clipPath id="clip0_1_2">
<rect width="203" height="202" fill="white"/>
</clipPath>
</defs>
</svg>
